<svg xmlns="http://www.w3.org/2000/svg" viewBox="0 0 16 16">
  <defs>
    <style>.canvas{fill: none; opacity: 0;}.light-defaultgrey-10{fill: #212121; opacity: 0.1;}.light-defaultgrey{fill: #212121; opacity: 1;}.cls-1{opacity:0.75;}</style>
  </defs>
  <title>IconLightAboutBox</title>
  <g id="canvas" class="canvas">
    <path class="canvas" d="M16,16H0V0H16Z" />
  </g>
  <g id="level-1">
    <g class="cls-1">
      <path class="light-defaultgrey-10" d="M14.5,5v8.5H1.5V5Z" />
      <path class="light-defaultgrey" d="M15,4.5v9l-.5.5H1.5L1,13.5v-9l.5.5H2v8H14V5h.5Z" />
    </g>
    <path class="light-defaultgrey-10" d="M14.5,1.5v3H1.5v-3Z" />
    <path class="light-defaultgrey" d="M14.5,1H1.5L1,1.5v3l.5.5h13l.5-.5v-3ZM14,4H2V2H14Z" />
    <path class="light-defaultgrey" d="M11.1,8.148a3.152,3.152,0,0,1-.532.243A1.688,1.688,0,0,1,10,8.5v-1a.924.924,0,0,0,.242-.047,2.486,2.486,0,0,0,.313-.117,1.5,1.5,0,0,0,.281-.164A.673.673,0,0,0,11.008,7H12v5h-.9Z" />
    <path class="light-defaultgrey" d="M9.125,11.5a.625.625,0,1,1-.625-.625A.625.625,0,0,1,9.125,11.5Z" />
    <path d="M7.5,8,5.953,12h-.98L3.5,8h.984l.887,2.8a2.6,2.6,0,0,1,.125.539h.012a2.884,2.884,0,0,1,.109-.523L6.547,8Z" />
  </g>
</svg>
