<svg xmlns="http://www.w3.org/2000/svg" viewBox="0 0 16 16">
  <defs>
    <style>.canvas{fill: none; opacity: 0;}.light-defaultgrey-10{fill: #212121; opacity: 0.1;}.light-defaultgrey{fill: #212121; opacity: 1;}.light-yellow{fill: #996f00; opacity: 1;}.cls-1{opacity:0.75;}</style>
  </defs>
  <title>AbstractClass</title>
  <g id="canvas">
    <path class="canvas" d="M16,16H0V0H16Z" />
  </g>
  <g id="level-1">
    <g class="cls-1">
      <path class="light-defaultgrey-10" d="M15,15H1V1H15Z" />
      <path class="light-defaultgrey" d="M2,1V2H3V1ZM4,1V2H5V1ZM6,1V2H7V1ZM8,1V2H9V1Zm2,0V2h1V1Zm2,0V2h1V1Zm2,0V2h1V1ZM1,14v1H2V14Zm2,0v1H4V14Zm2,0v1H6V14Zm2,0v1H8V14Zm2,0v1h1V14Zm2,0v1h1V14Zm2,0v1h1V14ZM2,2H1V3H2ZM2,4H1V5H2ZM2,6H1V7H2ZM2,8H1V9H2Zm0,2H1v1H2Zm0,2H1v1H2ZM15,3H14V4h1Zm0,2H14V6h1Zm0,2H14V8h1Zm0,2H14v1h1Zm0,2H14v1h1Zm0,2H14v1h1Z" />
    </g>
    <path class="light-yellow" d="M9.023,7.307V7H8v3H9.976l.672-.672H11l.625.625v.354L10,11.932H9.648l-.625-.625V11H7.5L7,10.5V7H6.229l-.615.614H5.261l-1-1V6.261l2.25-2.25h.353l1,1v.353L7.229,6H9.976l.672-.672H11l.625.625v.354L10,7.932H9.648Z" />
  </g>
</svg>
