<svg xmlns="http://www.w3.org/2000/svg" viewBox="0 0 16 16">
  <defs>
    <style>.canvas{fill: none; opacity: 0;}.light-defaultgrey-10{fill: #212121; opacity: 0.1;}.light-defaultgrey{fill: #212121; opacity: 1;}.cls-1{opacity:0.75;}</style>
  </defs>
  <title>IconLightAccountGroup</title>
  <g id="canvas">
    <path class="canvas" d="M16,16H0V0H16Z" />
  </g>
  <g id="level-1">
    <g class="cls-1">
      <path class="light-defaultgrey-10" d="M14.5,1.5v9H13v-7L12.5,3h-5V1.5Z" />
      <path class="light-defaultgrey" d="M15,1.5v9l-.5.5H13V10h1V2H8V3H7V1.5L7.5,1h7Z" />
    </g>
    <path class="light-defaultgrey-10" d="M5.5,10.989v3.869L4,13.358l-1.5,1.5V10.989a2.5,2.5,0,1,1,3,0Z" />
    <path class="light-defaultgrey" d="M7,9a3,3,0,1,0-5,2.22v3.638l.854.353L4,14.065l1.146,1.146L6,14.858V11.22A2.985,2.985,0,0,0,7,9ZM5,13.651,4.354,13H3.646L3,13.651V11.816A2.966,2.966,0,0,0,4,12a2.966,2.966,0,0,0,1-.184ZM4,11A2,2,0,1,1,6,9,2,2,0,0,1,4,11Z" />
    <path class="light-defaultgrey-10" d="M12.5,3.5v9H7v-.872A3.978,3.978,0,0,0,5.5,5.3V3.5Z" />
    <path class="light-defaultgrey" d="M11,6H7V5h4Zm0,2V7H7.444a3.93,3.93,0,0,1,.414,1Zm1.5-5h-7L5,3.5V5.142a3.93,3.93,0,0,1,1,.414V4h6v8H7v1h5.5l.5-.5v-9ZM11,9H8a3.918,3.918,0,0,1-.146,1H11Z" />
  </g>
</svg>
