<svg xmlns="http://www.w3.org/2000/svg" viewBox="0 0 16 16">
  <defs>
    <style>.canvas{fill: none; opacity: 0;}.light-defaultgrey{fill: #212121; opacity: 1;}.light-defaultgrey-10{fill: #212121; opacity: 0.1;}</style>
  </defs>
  <title>IconLightAccountAttribute</title>
  <g id="canvas">
    <path class="canvas" d="M16,16H0V0H16Z" />
  </g>
  <g id="level-1">
    <path class="light-defaultgrey" d="M12.391,3.145l-.039.386h-.016a.677.677,0,0,0-.731-.457,1.378,1.378,0,0,0-1.1.561,2.225,2.225,0,0,0-.457,1.455,1.627,1.627,0,0,0,.33,1.082,1.084,1.084,0,0,0,.869.391,1,1,0,0,0,.992-.747h.024a.737.737,0,0,0,.261.539.937.937,0,0,0,.629.208,1.678,1.678,0,0,0,1.317-.612A2.389,2.389,0,0,0,15,4.328a2.494,2.494,0,0,0-.869-1.982,3.352,3.352,0,0,0-2.276-.752,3.35,3.35,0,0,0-2.484.969,3.253,3.253,0,0,0-.965,2.39,2.861,2.861,0,0,0,.9,2.221A3.34,3.34,0,0,0,11.656,8a4.436,4.436,0,0,0,1.719-.285V6.969a3.818,3.818,0,0,1-1.609.336A2.512,2.512,0,0,1,9.959,6.68a2.257,2.257,0,0,1-.654-1.711,2.656,2.656,0,0,1,.74-1.9A2.457,2.457,0,0,1,11.9,2.289a2.189,2.189,0,0,1,1.625.584,2.028,2.028,0,0,1,.582,1.5,2.46,2.46,0,0,1-.2,1.082q-.2.414-.515.414-.3,0-.3-.547,0-.511.176-2.175ZM12.066,5.48a.641.641,0,0,1-.578.395.46.46,0,0,1-.388-.209.989.989,0,0,1-.151-.584,1.892,1.892,0,0,1,.221-.928.651.651,0,0,1,.572-.4.474.474,0,0,1,.389.18.752.752,0,0,1,.146.492A2.239,2.239,0,0,1,12.066,5.48Z" />
    <path class="light-defaultgrey-10" d="M8.5,14h-7a3.5,3.5,0,0,1,7,0ZM7.25,8.25A2.25,2.25,0,1,0,5,10.5,2.25,2.25,0,0,0,7.25,8.25Z" />
    <path class="light-defaultgrey" d="M6.7,10.394a2.75,2.75,0,1,0-3.4,0A4,4,0,0,0,1,14H2a3,3,0,0,1,6,0H9A4,4,0,0,0,6.7,10.394ZM3.25,8.25A1.75,1.75,0,1,1,5,10,1.752,1.752,0,0,1,3.25,8.25Z" />
  </g>
</svg>
