<svg xmlns="http://www.w3.org/2000/svg" viewBox="0 0 16 16">
  <defs>
    <style>.canvas{fill: none; opacity: 0;}.light-defaultgrey{fill: #212121; opacity: 1;}.light-green{fill: #1f801f; opacity: 1;}.white{fill: #ffffff; opacity: 1;}</style>
  </defs>
  <title>IconLightActiveFluidLayout</title>
  <g id="Canvas">
    <path class="canvas" d="M16,16H0V0H16Z" />
  </g>
  <g id="level-1">
    <path class="light-defaultgrey" d="M4.069,4.679a3.712,3.712,0,0,1-2.385-.954l.632-.775c1.539,1.255,2.6.678,3.945-.052s3-1.625,5.055.052l-.632.775c-1.539-1.254-2.6-.678-3.945.052A5.671,5.671,0,0,1,4.069,4.679Zm0,3.446a3.712,3.712,0,0,1-2.385-.954L2.316,6.4c1.539,1.255,2.6.677,3.945-.052s3-1.625,5.055.052l-.632.775c-1.539-1.254-2.6-.678-3.945.052A5.671,5.671,0,0,1,4.069,8.125Z" />
    <path class="light-green" d="M16,11.979a4,4,0,1,1-4-4A4,4,0,0,1,16,11.979Z" />
    <path class="white" d="M14.208,11.15l-2.365,2.364-.711,0-1.34-1.372.715-.7.987,1.011L13.5,10.443Z" />
  </g>
</svg>
