<svg xmlns="http://www.w3.org/2000/svg" viewBox="0 0 16 16">
  <defs>
    <style>.canvas{fill: none; opacity: 0;}.light-defaultgrey-10{fill: #212121; opacity: 0.1;}.light-defaultgrey{fill: #212121; opacity: 1;}</style>
  </defs>
  <title>IconLightActor</title>
  <g id="Canvas">
    <path class="canvas" d="M16,16H0V0H16Z" />
  </g>
  <g id="level-1">
    <path class="light-defaultgrey-10" d="M11.5,5.5v4a1,1,0,0,1-.668.937l-.332.118V14.5a.994.994,0,0,1-1.665.739l-.335-.3-.335.3A.994.994,0,0,1,6.5,14.5V10.555l-.332-.118A1,1,0,0,1,5.5,9.5v-4a1,1,0,0,1,1-1h1l-.018-.287a2,2,0,1,1,2.036,0V4.5H10.5A1,1,0,0,1,11.5,5.5Z" />
    <path class="light-defaultgrey" d="M10.5,4h-.013A2.471,2.471,0,0,0,11,2.5a2.5,2.5,0,0,0-5,0A2.471,2.471,0,0,0,6.513,4H6.5A1.5,1.5,0,0,0,5,5.5v4a1.5,1.5,0,0,0,1,1.408V14.5a1.494,1.494,0,0,0,2.5,1.11A1.494,1.494,0,0,0,11,14.5V10.908A1.5,1.5,0,0,0,12,9.5v-4A1.5,1.5,0,0,0,10.5,4ZM7,2.5A1.5,1.5,0,1,1,8.5,4,1.5,1.5,0,0,1,7,2.5Zm4,7a.5.5,0,0,1-.5.5H10v4.5a.5.5,0,0,1-1,0V10H8v4.5a.5.5,0,0,1-1,0V10H6.5A.5.5,0,0,1,6,9.5v-4A.5.5,0,0,1,6.5,5h4a.5.5,0,0,1,.5.5Z" />
  </g>
</svg>
