<svg xmlns="http://www.w3.org/2000/svg" viewBox="0 0 16 16">
  <defs>
    <style>.canvas{fill: none; opacity: 0;}.light-defaultgrey{fill: #212121; opacity: 1;}.light-green{fill: #1f801f; opacity: 1;}.cls-1{opacity:0.75;}</style>
  </defs>
  <title>IconLightAddAssociation</title>
  <g id="canvas" class="canvas">
    <path class="canvas" d="M16,16H0V0H16Z" />
  </g>
  <g id="level-1">
    <g class="cls-1">
      <path class="light-defaultgrey" d="M4.354,12.354l-.708-.708,8-8,.708.708Z" />
    </g>
    <path class="light-defaultgrey" d="M4.5,15h-3L1,14.5v-3l.5-.5h3l.5.5v3ZM2,14H4V12H2ZM14.5,5h-3L11,4.5v-3l.5-.5h3l.5.5v3ZM12,4h2V2H12Z" />
    <path class="light-green" d="M7,4H4V7H3V4H0V3H3V0H4V3H7Z" />
  </g>
</svg>
