<svg xmlns="http://www.w3.org/2000/svg" viewBox="0 0 16 16">
  <defs>
    <style>.canvas{fill: none; opacity: 0;}.light-defaultgrey{fill: #212121; opacity: 1;}.light-green{fill: #1f801f; opacity: 1;}</style>
  </defs>
  <title>IconLightAddAttribute</title>
  <g id="canvas" class="canvas">
    <path class="canvas" d="M16,16H0V0H16Z" />
  </g>
  <g id="level-1">
    <path class="canvas" d="M16,16H0V0H16Z" />
    <path class="light-defaultgrey" d="M11.781,10.844h-.034a1.969,1.969,0,0,1-1.962,1.627,1.86,1.86,0,0,1-1.508-.691,2.83,2.83,0,0,1-.57-1.859A4.082,4.082,0,0,1,8.5,7.354a2.5,2.5,0,0,1,2.075-1.022,1.57,1.57,0,0,1,.878.253,1.12,1.12,0,0,1,.5.636h.028c.008-.128.032-.39.068-.786H12.9q-.321,3.766-.322,3.835,0,1.415.814,1.415a1.425,1.425,0,0,0,1.227-.8A3.935,3.935,0,0,0,15.1,8.813a4.154,4.154,0,0,0-1.19-3.069,4.454,4.454,0,0,0-3.295-1.189A4.39,4.39,0,0,0,7.263,5.977,5.007,5.007,0,0,0,5.937,9.531,4.635,4.635,0,0,0,7.2,12.918a4.545,4.545,0,0,0,3.4,1.289,6.746,6.746,0,0,0,2.884-.561v.848A7.514,7.514,0,0,1,10.53,15a5.462,5.462,0,0,1-4.009-1.5A5.275,5.275,0,0,1,5,9.572,5.721,5.721,0,0,1,6.6,5.423a5.434,5.434,0,0,1,4.078-1.648,5.515,5.515,0,0,1,3.848,1.381,4.633,4.633,0,0,1,1.525,3.6,4.251,4.251,0,0,1-.8,2.669,2.4,2.4,0,0,1-1.959,1.043Q11.788,12.471,11.781,10.844ZM10.558,7.125a1.572,1.572,0,0,0-1.37.807,3.6,3.6,0,0,0-.524,2,2.058,2.058,0,0,0,.352,1.271,1.12,1.12,0,0,0,.94.465,1.5,1.5,0,0,0,1.343-.844,4.393,4.393,0,0,0,.5-2.239Q11.8,7.126,10.558,7.125Z" />
    <path class="light-green" d="M7,4H4V7H3V4H0V3H3V0H4V3H7Z" />
  </g>
</svg>
