<svg xmlns="http://www.w3.org/2000/svg" viewBox="0 0 16 16">
  <defs>
    <style>.canvas{fill: none; opacity: 0;}.light-defaultgrey-10{fill: #212121; opacity: 0.1;}.light-defaultgrey{fill: #212121; opacity: 1;}.light-green{fill: #1f801f; opacity: 1;}.cls-1{opacity:0.5;}.cls-2{opacity:0.75;}</style>
  </defs>
  <title>IconLightAddBuildToQueue</title>
  <g id="canvas" class="canvas">
    <path class="canvas" d="M16,16H0V0H16Z" />
  </g>
  <g id="level-1">
    <g class="cls-1">
      <path class="light-defaultgrey-10" d="M15.5,1.5v5H12V7H10.5L10,6.5V5h.5V1.5Z" />
      <path class="light-defaultgrey" d="M16,1.5v5l-.5.5H12V6h3V2H11V5H10V1.5l.5-.5h5Z" />
    </g>
    <g class="cls-2">
      <path class="light-defaultgrey-10" d="M11.5,5.5v5H8V11H6.5L6,10.5V9h.5V5.5Z" />
      <path class="light-defaultgrey" d="M12,5.5v5l-.5.5H8V10h3V6H7V9H6V5.5L6.5,5h5Z" />
    </g>
    <path class="light-defaultgrey-10" d="M7.5,9.5v5h-5v-5Z" />
    <path class="light-defaultgrey" d="M7.5,15h-5L2,14.5v-5L2.5,9h5l.5.5v5ZM3,14H7V10H3Z" />
    <path class="light-green" d="M7,4H4V7H3V4H0V3H3V0H4V3H7Z" />
  </g>
</svg>
