<svg xmlns="http://www.w3.org/2000/svg" viewBox="0 0 16 16">
  <defs>
    <style>.canvas{fill: none; opacity: 0;}.light-defaultgrey-10{fill: #212121; opacity: 0.1;}.light-defaultgrey{fill: #212121; opacity: 1;}.light-green{fill: #1f801f; opacity: 1;}.cls-1{opacity:0.75;}</style>
  </defs>
  <title>IconLightAddConditionalLoop</title>
  <g id="canvas" class="canvas">
    <path class="canvas" d="M16,16H0V0H16Z" />
  </g>
  <g id="level-1">
    <g class="cls-1">
      <path class="light-defaultgrey-10" d="M16,1.5v14H4V8H5V5H8V1.5Z" />
      <path class="light-defaultgrey" d="M16,11.3v4.2l-.5.5H4.5L4,15.5V11.3a4.5,4.5,0,0,0,1,.943V15H15V12.24A4.5,4.5,0,0,0,16,11.3Zm0-9.8V5.7a4.5,4.5,0,0,0-1-.943V2H8V1h7.5Z" />
    </g>
    <path class="light-defaultgrey" d="M10.854,5.146v.708L8.6,8.1,7.9,7.4,9.293,6H7.5a2.5,2.5,0,0,0,0,5H8v1H7.5A3.5,3.5,0,0,1,4,8.5,3.443,3.443,0,0,1,4.051,8H5V6.058A3.485,3.485,0,0,1,7.5,5H9.293L7.9,3.6,8.6,2.9ZM16,8.5A3.5,3.5,0,0,1,12.5,12H10.707l1.4,1.4L11.4,14.1l-2.25-2.25v-.708L11.4,8.9,12.1,9.6l-1.4,1.4H12.5a2.5,2.5,0,0,0,0-5H12V5h.5A3.5,3.5,0,0,1,16,8.5Z" />
    <path class="light-green" d="M7,4H4V7H3V4H0V3H3V0H4V3H7Z" />
  </g>
</svg>
