<svg xmlns="http://www.w3.org/2000/svg" viewBox="0 0 16 16">
  <defs>
    <style>.canvas{fill: none; opacity: 0;}.light-defaultgrey-10{fill: #212121; opacity: 0.1;}.light-defaultgrey{fill: #212121; opacity: 1;}.light-green{fill: #1f801f; opacity: 1;}.cls-1{opacity:0.75;}</style>
  </defs>
  <title>AddComponent</title>
  <g id="canvas">
    <path class="canvas" d="M16,0V16H0V0Z" />
  </g>
  <g id="level-1">
    <g class="cls-1">
      <path class="light-defaultgrey-10" d="M13.5,4.5v9H8V9.086L6.914,8H5V5H8V2H5V1.5h5.5Z" />
      <path class="light-defaultgrey" d="M14,4.5v9l-.5.5H8V13h5V5H10V2H5V1h5.5l.354.146,3,3Z" />
    </g>
    <path class="light-defaultgrey-10" d="M6.5,9.5v6H.5v-3h3v-3Z" />
    <path class="light-defaultgrey" d="M6.5,9h-3L3,9.5V12H.5l-.5.5v3l.5.5h6l.5-.5v-6ZM4,10H6v2H4ZM1,13H3v2H1Zm5,2H4V13H6Z" />
    <path class="light-green" d="M7,4H4V7H3V4H0V3H3V0H4V3H7Z" />
  </g>
</svg>
