<svg xmlns="http://www.w3.org/2000/svg" viewBox="0 0 16 16">
  <defs>
    <style>.canvas{fill: none; opacity: 0;}.light-defaultgrey-10{fill: #212121; opacity: 0.1;}.light-defaultgrey{fill: #212121; opacity: 1;}.light-blue-10{fill: #005dba; opacity: 0.1;}.light-blue{fill: #005dba; opacity: 1;}</style>
  </defs>
  <title>IconLightAddCellToLeft</title>
  <g id="canvas" class="canvas">
    <path class="canvas" d="M16,16H0V0H16Z" />
    <path class="canvas" d="M16,16H0V0H16Z" />
  </g>
  <g id="level-1">
    <path class="light-defaultgrey-10" d="M1.5,1.5h4v3h-4Zm0,7h4v6h-4Z" />
    <path class="light-defaultgrey" d="M1,8.5v6l.5.5h4l.5-.5v-6L5.5,8h-4ZM5,11H2V9H5ZM2,12H5v2H2ZM1,4.5v-3L1.5,1h4l.5.5v3L5.5,5h-4ZM5,2H2V4H5Z" />
    <path class="light-blue-10" d="M15.5,8.354h-4v-3h4Z" />
    <path class="light-blue" d="M11.5,5l-.5.5v3l.5.5h4l.5-.5v-3L15.5,5ZM12,6h3V8H12ZM8.146,4.146l.708.708L7.707,6H11V7H7.707L8.854,8.146l-.708.708-2-2V6.146Z" />
  </g>
</svg>
