<svg xmlns="http://www.w3.org/2000/svg" viewBox="0 0 16 16">
  <defs>
    <style>.canvas{fill: none; opacity: 0;}.light-defaultgrey-10{fill: #212121; opacity: 0.1;}.light-defaultgrey{fill: #212121; opacity: 1;}.light-green{fill: #1f801f; opacity: 1;}</style>
  </defs>
  <title>IconLightAddComment</title>
  <g id="canvas" class="canvas">
    <path class="canvas" d="M16,16H0V0H16Z" />
  </g>
  <g id="level-1">
    <path class="light-defaultgrey-10" d="M15.5,2.5v9h-3v3l-3-3h-7V8H5V5H8V2.5Z" />
    <path class="light-defaultgrey" d="M16,2.5v9l-.5.5H13v2.5l-.854.354L9.293,12H2.5L2,11.5V8H3v3H9.5l.354.146L12,13.293V11.5l.5-.5H15V3H8V2h7.5Z" />
    <path class="light-green" d="M7,4H4V7H3V4H0V3H3V0H4V3H7Z" />
  </g>
</svg>
