<svg xmlns="http://www.w3.org/2000/svg" viewBox="0 0 16 16">
  <defs>
    <style>.canvas{fill: none; opacity: 0;}.light-defaultgrey-10{fill: #212121; opacity: 0.1;}.light-defaultgrey{fill: #212121; opacity: 1;}.light-blue-10{fill: #005dba; opacity: 0.1;}.light-blue{fill: #005dba; opacity: 1;}</style>
  </defs>
  <title>IconLightAddCellToRight</title>
  <g id="canvas" class="canvas">
    <path class="canvas" d="M16,16H0V0H16Z" />
    <path class="canvas" d="M16,16H0V0H16Z" />
  </g>
  <g id="level-1">
    <path class="light-defaultgrey-10" d="M10.5,1.5h4v3h-4Zm0,7h4v6h-4Z" />
    <path class="light-defaultgrey" d="M10,8.5v6l.5.5h4l.5-.5v-6L14.5,8h-4ZM14,11H11V9h3Zm-3,1h3v2H11ZM10,4.5v-3l.5-.5h4l.5.5v3l-.5.5h-4ZM14,2H11V4h3Z" />
    <path class="light-blue-10" d="M.5,5.354h4v3H.5Z" />
    <path class="light-blue" d="M.5,5,0,5.5v3L.5,9h4L5,8.5v-3L4.5,5ZM4,8H1V6H4ZM9.854,6.146v.708l-2,2-.708-.708L8.293,7H5V6H8.293L7.146,4.854l.708-.708Z" />
  </g>
</svg>
