<svg xmlns="http://www.w3.org/2000/svg" viewBox="0 0 16 16">
  <defs>
    <style>.canvas{fill: none; opacity: 0;}.light-defaultgrey-10{fill: #212121; opacity: 0.1;}.light-defaultgrey{fill: #212121; opacity: 1;}.light-green{fill: #1f801f; opacity: 1;}.cls-1{opacity:0.75;}</style>
  </defs>
  <title>IconLightAddColumns</title>
  <g id="canvas" class="canvas">
    <path class="canvas" d="M16,16H0V0H16Z" />
  </g>
  <g id="level-1">
    <g class="cls-1">
      <path class="light-defaultgrey-10" d="M14.5,3.5v9H11v-6L10.5,6V3.5Z" />
      <path class="light-defaultgrey" d="M14.5,2h-4l-.5.5V6h.5l.5.5V7h3V9H11v1h3v2H11v1h3.5l.5-.5V2.5ZM14,6H11V4h3Z" />
    </g>
    <path class="light-defaultgrey-10" d="M7.5,6.5h4v9h-4Z" />
    <path class="light-defaultgrey" d="M11.5,5h-4L7,5.5v10l.5.5h4l.5-.5V5.5ZM11,15H8V13h3Zm0-3H8V10h3Zm0-3H8V7h3Z" />
    <path class="light-green" d="M7,4H4V7H3V4H0V3H3V0H4V3H7Z" />
  </g>
</svg>
