<svg xmlns="http://www.w3.org/2000/svg" viewBox="0 0 16 16">
  <defs>
    <style>.canvas{fill: none; opacity: 0;}.light-lightblue-10{fill: #0077a0; opacity: 0.1;}.light-lightblue{fill: #0077a0; opacity: 1;}.light-green{fill: #1f801f; opacity: 1;}</style>
  </defs>
  <title>IconLightAddDatabase</title>
  <g id="canvas" class="canvas">
    <path class="canvas" d="M16,16H0V0H16Z" />
  </g>
  <g id="level-1">
    <path class="light-lightblue-10" d="M15.5,6.47V14.5c0,.828-1.791,1.5-4,1.5s-4-.672-4-1.5V6.47c0-.828,1.791-1.5,4-1.5S15.5,5.642,15.5,6.47Z" />
    <path class="light-lightblue" d="M16,5.97c0-2.627-9-2.627-9,0H7V14c0,1.314,2.264,2,4.5,2s4.5-.686,4.5-2V5.97Zm-4.5-1c2.273,0,3.5.71,3.5,1s-1.227,1-3.5,1S8,6.26,8,5.97,9.227,4.97,11.5,4.97ZM15,14c0,.29-1.227,1-3.5,1S8,14.29,8,14V7.261H8a7.863,7.863,0,0,0,3.5.709A7.863,7.863,0,0,0,15,7.261h0Z" />
    <path class="light-green" d="M7,4H4V7H3V4H0V3H3V0H4V3H7Z" />
  </g>
</svg>
