<svg xmlns="http://www.w3.org/2000/svg" viewBox="0 0 16 16">
  <defs>
    <style>.canvas{fill: none; opacity: 0;}.light-defaultgrey-10{fill: #212121; opacity: 0.1;}.light-defaultgrey{fill: #212121; opacity: 1;}.light-lightblue-10{fill: #0077a0; opacity: 0.1;}.light-lightblue{fill: #0077a0; opacity: 1;}.light-green{fill: #1f801f; opacity: 1;}</style>
  </defs>
  <title>IconLightAddDataItem</title>
  <g id="canvas" class="canvas">
    <path class="canvas" d="M16,16H0V0H16Z" />
  </g>
  <g id="level-1">
    <path class="light-defaultgrey-10" d="M9.5,15.5h-6v-5h6Z" />
    <path class="light-defaultgrey" d="M9.5,16h-6L3,15.5v-5l.5-.5h6l.5.5v5ZM4,15H9V11H4Z" />
    <path class="light-lightblue-10" d="M15.5,4.97V13c0,.828-1.791,1.5-4,1.5-.171,0-.334-.011-.5-.019V10.086L9.914,9H7.5V6H8V4.258a6.677,6.677,0,0,1,3.5-.788C13.709,3.47,15.5,4.142,15.5,4.97Z" />
    <path class="light-lightblue" d="M16,4.97V13c0,1.313-2.264,2-4.5,2-.167,0-.333-.012-.5-.019v-1c.164.008.323.019.5.019,2.273,0,3.5-.71,3.5-1V6.261a7.863,7.863,0,0,1-3.5.709A7.863,7.863,0,0,1,8,6.261V9H7V5H8V4.97c0,.29,1.227,1,3.5,1s3.5-.71,3.5-1-1.227-1-3.5-1S8,4.68,8,4.97V3.688C10.337,2.461,16,2.884,16,4.97Z" />
    <path class="light-green" d="M7,4H4V7H3V4H0V3H3V0H4V3H7Z" />
  </g>
</svg>
