<svg xmlns="http://www.w3.org/2000/svg" viewBox="0 0 16 16">
  <defs>
    <style>.canvas{fill: none; opacity: 0;}.light-defaultgrey-10{fill: #212121; opacity: 0.1;}.light-defaultgrey{fill: #212121; opacity: 1;}.light-green{fill: #1f801f; opacity: 1;}</style>
  </defs>
  <title>IconLightAddDictionary</title>
  <g id="canvas" class="canvas">
    <path class="canvas" d="M16,16H0V0H16Z" />
  </g>
  <g id="level-1">
    <path class="light-defaultgrey-10" d="M15.5,2.707v9.586l-.207.207H11.5a2,2,0,0,0-.4.04l-.081.017-.071.041a2.885,2.885,0,0,1-2.9,0l-.071-.041L7.9,12.54a2,2,0,0,0-.4-.04H3.707L3.5,12.293V8H5V5H8V2.569a2,2,0,0,1,1.1.745l.4.539.4-.539A1.982,1.982,0,0,1,11.5,2.5h3.793Z" />
    <path class="light-defaultgrey" d="M15.5,2h-4a2.491,2.491,0,0,0-2,1.015A2.505,2.505,0,0,0,8,2.061V3.092A1.5,1.5,0,0,1,9,4.5v8H9A2.482,2.482,0,0,0,7.5,12H4V8H3v4.5l.5.5h4a1.547,1.547,0,0,1,.3.03,3.381,3.381,0,0,0,3.4,0,1.547,1.547,0,0,1,.3-.03h4l.5-.5V2.5ZM15,12H11.5a2.482,2.482,0,0,0-1.5.5h0v-8A1.5,1.5,0,0,1,11.5,3H15Z" />
    <path class="light-green" d="M7,4H4V7H3V4H0V3H3V0H4V3H7Z" />
  </g>
</svg>
