<svg xmlns="http://www.w3.org/2000/svg" viewBox="0 0 16 16">
  <defs>
    <style>.canvas{fill: none; opacity: 0;}.light-defaultgrey-10{fill: #212121; opacity: 0.1;}.light-defaultgrey{fill: #212121; opacity: 1;}.light-defaultgrey-25{fill: #212121; opacity: 0.25;}.light-green{fill: #1f801f; opacity: 1;}.cls-1{opacity:0.75;}</style>
  </defs>
  <title>IconLightAddDocumentGroup</title>
  <g id="canvas" class="canvas">
    <path class="canvas" d="M16,16H0V0H16Z" />
  </g>
  <g id="level-1">
    <g class="cls-1">
      <path class="light-defaultgrey-10" d="M14.5,3.5v9h-3v-5l-2-2H8v-2Z" />
      <path class="light-defaultgrey" d="M15,3.5v9l-.5.5H12V12h2V4H8V3h6.5Z" />
    </g>
    <path class="light-defaultgrey-10" d="M11.5,8v6.5h-7V8H5V5.5H9Z" />
    <path class="light-defaultgrey" d="M12,7.5v7l-.5.5h-7L4,14.5V8H5v6h6V8H9V6H5V5H9.5l.354.146,2,2Z" />
    <path class="light-defaultgrey-25" d="M11,12v1H7.5L7,12.5V6H8v6Z" />
    <path class="light-green" d="M7,4H4V7H3V4H0V3H3V0H4V3H7Z" />
  </g>
</svg>
