<svg xmlns="http://www.w3.org/2000/svg" viewBox="0 0 16 16">
  <defs>
    <style>.canvas{fill: none; opacity: 0;}.light-green{fill: #1f801f; opacity: 1;}.light-defaultgrey-10{fill: #212121; opacity: 0.1;}.light-defaultgrey{fill: #212121; opacity: 1;}</style>
  </defs>
  <title>IconLightAddFriend</title>
  <g id="canvas">
    <path class="canvas" d="M16,16H0V0H16Z" />
  </g>
  <g id="level-1">
    <path class="light-green" d="M7,4H4V7H3V4H0V3H3V0H4V3H7Z" />
    <path class="light-defaultgrey-10" d="M3.5,14a4.5,4.5,0,0,1,9,0Z" />
    <path class="light-defaultgrey-10" d="M11,6.5a3,3,0,0,1-6,0A2.968,2.968,0,0,1,5.416,5H8V3.5A3,3,0,0,1,11,6.5Z" />
    <path class="light-defaultgrey" d="M13,14H12a4,4,0,0,0-8,0H3A5.007,5.007,0,0,1,6.043,9.4,3.52,3.52,0,0,1,4.845,8H5V5H6.013A2.471,2.471,0,0,0,5.5,6.5,2.5,2.5,0,1,0,8,4V3A3.5,3.5,0,0,1,9.957,9.4,5.007,5.007,0,0,1,13,14Z" />
  </g>
</svg>
