<svg xmlns="http://www.w3.org/2000/svg" viewBox="0 0 16 16">
  <defs>
    <style>.canvas{fill: none; opacity: 0;}.light-defaultgrey-10{fill: #212121; opacity: 0.1;}.light-defaultgrey{fill: #212121; opacity: 1;}.light-green{fill: #1f801f; opacity: 1;}.cls-1{opacity:0.75;}</style>
  </defs>
  <title>IconLightAddHTMLPage</title>
  <g id="canvas" class="canvas">
    <path class="canvas" d="M16,16H0V0H16Z" />
  </g>
  <g id="level-1">
    <g class="cls-1">
      <path class="light-defaultgrey-10" d="M14.5,4.5v10H12.625l.227-.225V12.734L9.911,9.805,8.125,11.6a2.493,2.493,0,0,0-3.248,0L3.5,10.233V8H5V5H8V1.5h3.5Z" />
      <path class="light-defaultgrey" d="M15,4.5v10l-.5.5H12.121l.731-.725V14H14V5H11V2H8V1h3.5l.354.146,3,3Z" />
      <path class="light-defaultgrey" d="M4,10.73l-1-1V8H4Z" />
    </g>
    <path class="light-defaultgrey-10" d="M5.5,13.5a1,1,0,1,1,1,1A1,1,0,0,1,5.5,13.5Z" />
    <path class="light-defaultgrey" d="M6.5,14a.5.5,0,1,1,.5-.5A.5.5,0,0,1,6.5,14Zm-4.288-.5,1.566,1.57-.707.707L1.156,13.854v-.706l1.918-1.929.709.705Zm9.637-.351v.709L9.914,15.781l-.7-.709L10.79,13.5,9.209,11.929l.705-.709ZM6.5,12A1.5,1.5,0,1,0,8,13.5,1.5,1.5,0,0,0,6.5,12Z" />
    <path class="light-green" d="M7,4H4V7H3V4H0V3H3V0H4V3H7Z" />
  </g>
</svg>
