<svg xmlns="http://www.w3.org/2000/svg" viewBox="0 0 16 16">
  <defs>
    <style>.canvas{fill: none; opacity: 0;}.light-defaultgrey{fill: #212121; opacity: 1;}.light-defaultgrey-10{fill: #212121; opacity: 0.1;}.light-blue{fill: #005dba; opacity: 1;}.cls-1{opacity:0.75;}</style>
  </defs>
  <title>IconLightAddIn</title>
  <g id="canvas" class="canvas">
    <path class="canvas" d="M16,16H0V0H16Z" />
  </g>
  <g id="level-1">
    <g class="cls-1">
      <path class="light-defaultgrey" d="M11,6H10V4h1ZM6,11H4V10H6Z" />
    </g>
    <path class="light-defaultgrey-10" d="M3.5,11.5h-2v-2h2Zm8-10h-2v2h2Zm3,13h-8v-8h8Z" />
    <path class="light-defaultgrey" d="M3.5,12h-2L1,11.5v-2L1.5,9h2l.5.5v2ZM2,11H3V10H2Zm12.5,4h-8L6,14.5v-8L6.5,6h8l.5.5v8ZM7,14h7V7H7ZM11.5,4h-2L9,3.5v-2L9.5,1h2l.5.5v2ZM10,3h1V2H10Z" />
    <path class="light-blue" d="M13,11H11v2H10V11H8V10h2V8h1v2h2Z" />
  </g>
</svg>
