<svg xmlns="http://www.w3.org/2000/svg" viewBox="0 0 16 16">
  <defs>
    <style>.canvas{fill: none; opacity: 0;}.light-defaultgrey-10{fill: #212121; opacity: 0.1;}.light-defaultgrey{fill: #212121; opacity: 1;}.light-green{fill: #1f801f; opacity: 1;}.cls-1{opacity:0.75;}</style>
  </defs>
  <title>IconLightAddInheritedForm</title>
  <g id="canvas" class="canvas">
    <path class="canvas" d="M16,16H0V0H16Z" />
  </g>
  <g id="level-1">
    <g class="cls-1">
      <path class="light-defaultgrey-10" d="M16,4.5v8l-.5.5H14V6.5L13.5,6H8V4h7.5Z" />
      <path class="light-defaultgrey" d="M15.5,13H15V12h1v.5ZM14,4H13V5h1ZM12,4H11V5h1ZM10,4H9V5h1Zm6,.5L15.5,4H15V5h1ZM16,10H15v1h1Zm0-2H15V9h1Zm0-2H15V7h1Z" />
    </g>
    <path class="light-defaultgrey-10" d="M13.5,6.5v8H3.5V8H5V6.5Z" />
    <path class="light-defaultgrey" d="M14,6.5v8l-.5.5H3.5L3,14.5V8H4v6h9V8H5V6h8.5Z" />
    <path class="light-green" d="M7,4H4V7H3V4H0V3H3V0H4V3H7Z" />
  </g>
</svg>
