<svg xmlns="http://www.w3.org/2000/svg" viewBox="0 0 16 16">
  <defs>
    <style>.canvas{fill: none; opacity: 0;}.light-blue{fill: #005dba; opacity: 1;}.light-blue-10{fill: #005dba; opacity: 0.1;}.light-green{fill: #1f801f; opacity: 1;}.cls-1{opacity:0.75;}</style>
  </defs>
  <title>IconLightAddInterface</title>
  <g id="canvas" class="canvas">
    <path class="canvas" d="M16,16H0V0H16Z" />
  </g>
  <g id="level-1">
    <g class="cls-1">
      <path class="light-blue" d="M5.949,12a2.476,2.476,0,0,0,0-1h3.1A3.443,3.443,0,0,0,9,11.5a3.443,3.443,0,0,0,.051.5Z" />
    </g>
    <path class="light-blue-10" d="M5.5,11.5a2,2,0,1,1-2-2A2,2,0,0,1,5.5,11.5Zm7-3a3,3,0,1,0,3,3A3,3,0,0,0,12.5,8.5Z" />
    <path class="light-blue" d="M3.5,9A2.5,2.5,0,1,0,6,11.5,2.5,2.5,0,0,0,3.5,9Zm0,4A1.5,1.5,0,1,1,5,11.5,1.5,1.5,0,0,1,3.5,13Zm9-5A3.5,3.5,0,1,0,16,11.5,3.5,3.5,0,0,0,12.5,8Zm0,6A2.5,2.5,0,1,1,15,11.5,2.5,2.5,0,0,1,12.5,14Z" />
    <path class="light-green" d="M7,4H4V7H3V4H0V3H3V0H4V3H7Z" />
  </g>
</svg>
