<svg xmlns="http://www.w3.org/2000/svg" viewBox="0 0 16 16">
  <defs>
    <style>.canvas{fill: none; opacity: 0;}.light-lightblue{fill: #0077a0; opacity: 1;}.light-purple{fill: #6936aa; opacity: 1;}.light-green{fill: #1f801f; opacity: 1;}</style>
  </defs>
  <title>IconLightAddLink</title>
  <g id="canvas" class="canvas">
    <path class="canvas" d="M16,16H0V0H16Z" />
  </g>
  <g id="level-1">
    <path class="light-lightblue" d="M16,12a3,3,0,0,1-3,3H9A3,3,0,0,1,9,9h2a1.978,1.978,0,0,1-.278,1H9a2,2,0,0,0,0,4h4a2,2,0,0,0,0-4H11.816A2.966,2.966,0,0,0,12,9h1A3,3,0,0,1,16,12Z" />
    <path class="light-purple" d="M5,11H6.184A2.966,2.966,0,0,0,6,12H5A3,3,0,0,1,2.172,8h1.1A2,2,0,0,0,5,11Z" />
    <path class="light-purple" d="M12,9a3,3,0,0,1-3,3H7a1.978,1.978,0,0,1,.278-1H9A2,2,0,0,0,9,7H5V6H9A3,3,0,0,1,12,9Z" />
    <path class="light-green" d="M7,4H4V7H3V4H0V3H3V0H4V3H7Z" />
  </g>
</svg>
