<svg xmlns="http://www.w3.org/2000/svg" viewBox="0 0 16 16">
  <defs>
    <style>.canvas{fill: none; opacity: 0;}.light-lightblue-10{fill: #0077a0; opacity: 0.1;}.light-lightblue{fill: #0077a0; opacity: 1;}.light-green{fill: #1f801f; opacity: 1;}.light-defaultgrey{fill: #212121; opacity: 1;}</style>
  </defs>
  <title>AddLiveDataSource</title>
  <g id="canvas">
    <path class="canvas" d="M16,0V16H0V0Z" />
  </g>
  <g id="level-1">
    <path class="light-lightblue-10" d="M12.5,3v7c0,.828-1.791,1.5-4,1.5s-4-.672-4-1.5V8H5V5H8V2H6V1.838A8.807,8.807,0,0,1,8.5,1.5C10.709,1.5,12.5,2.172,12.5,3Z" />
    <path class="light-lightblue" d="M13,3v7c0,1.313-2.264,2-4.5,2S4,11.313,4,10V8H5v2c0,.29,1.227,1,3.5,1s3.5-.71,3.5-1V4.291A7.874,7.874,0,0,1,8.5,5c-.17,0-.332-.024-.5-.033V3.981c.164.009.323.019.5.019C10.773,4,12,3.29,12,3S10.773,2,8.5,2c-.177,0-.336.01-.5.019V2H6V1.334C8.651.62,13,1.173,13,3Z" />
    <path class="light-green" d="M7,4H4V7H3V4H0V3H3V0H4V3H7Z" />
    <path class="light-defaultgrey" d="M13,14v1H4V14H7.5v-.5L8,13V12H9v1l.5.5V14Z" />
  </g>
</svg>
