<svg xmlns="http://www.w3.org/2000/svg" viewBox="0 0 16 16">
  <defs>
    <style>.canvas{fill: none; opacity: 0;}.light-purple-10{fill: #6936aa; opacity: 0.1;}.light-purple{fill: #6936aa; opacity: 1;}.light-green{fill: #1f801f; opacity: 1;}.cls-1{opacity:0.75;}</style>
  </defs>
  <title>IconLightAddModule</title>
  <g id="canvas" class="canvas">
    <path class="canvas" d="M16,16H0V0H16Z" />
  </g>
  <g id="level-1">
    <g class="cls-1">
      <path class="light-purple-10" d="M14.5,9.5v5H2.5v-5Z" />
      <path class="light-purple" d="M14.5,9H2.5L2,9.5v5l.5.5h12l.5-.5v-5ZM14,14H3V10H14Z" />
    </g>
    <path class="light-purple-10" d="M7.5,5V7.5H5V5Z" />
    <path class="light-purple-10" d="M14.5,2.5v5h-5v-5Z" />
    <path class="light-purple" d="M7,5H8V7.5L7.5,8H5V7H7Z" />
    <path class="light-purple" d="M14.5,2h-5L9,2.5v5l.5.5h5l.5-.5v-5ZM14,7H10V3h4Z" />
    <path class="light-green" d="M7,4H4V7H3V4H0V3H3V0H4V3H7Z" />
  </g>
</svg>
