<svg xmlns="http://www.w3.org/2000/svg" viewBox="0 0 16 16">
  <defs>
    <style>.canvas{fill: none; opacity: 0;}.light-purple-10{fill: #6936aa; opacity: 0.1;}.light-purple{fill: #6936aa; opacity: 1;}.light-green{fill: #1f801f; opacity: 1;}.cls-1{opacity:0.75;}</style>
  </defs>
  <title>IconLightAddMethod</title>
  <g id="canvas" class="canvas">
    <path class="canvas" d="M16,16H0V0H16Z" />
  </g>
  <g id="level-1">
    <g class="cls-1">
      <path class="light-purple-10" d="M10,14.567l-4.5-2.6V6.757l4.509-2.795L14.5,6.757v5.212Z" />
      <path class="light-purple" d="M14.764,6.332,10.273,3.537H9.746l-4.509,2.8L5,6.757V11.97l.25.432L9.75,15h.5l4.214-2.433.286-.165L15,11.97V6.757ZM9.5,13.7,6,11.681V7.623L9.5,9.644ZM10,8.777,6.474,6.741l3.535-2.19,3.52,2.19Zm.5,4.924V9.643L14,7.623v4.058l-1.536.886h0Z" />
    </g>
    <path class="light-purple-10" d="M10.009,3.962,14.5,6.757,10,9.355l-4.5-2.6Z" />
    <path class="light-purple" d="M9.753,9.788l-4.5-2.6-.013-.858L9.746,3.537h.527l4.491,2.8-.014.857-4.5,2.6ZM6.474,6.741,10,8.777l3.525-2.036-3.519-2.19Z" />
    <path class="light-green" d="M7,4H4V7H3V4H0V3H3V0H4V3H7Z" />
  </g>
</svg>
