<svg xmlns="http://www.w3.org/2000/svg" viewBox="0 0 16 16">
  <defs>
    <style>.canvas{fill: none; opacity: 0;}.light-defaultgrey-10{fill: #212121; opacity: 0.1;}.light-defaultgrey{fill: #212121; opacity: 1;}.light-blue{fill: #005dba; opacity: 1;}.cls-1{opacity:0.75;}</style>
  </defs>
  <title>IconLightAddOrRemoveColumns</title>
  <g id="canvas" class="canvas">
    <path class="canvas" d="M16,16H0V0H16Z" />
    <path class="canvas" d="M16,16H0V0H16Z" />
  </g>
  <g id="level-1">
    <g class="cls-1">
      <path class="light-defaultgrey-10" d="M5,2.5v9H1.5v-9Zm8.5,0v9H10v-9Z" />
      <path class="light-defaultgrey" d="M14,1.5v10l-.5.5H10V11h3V9H10V8h3V6H10V5h3V3H10V2.5L9.5,2H9V1.5L9.5,1h4ZM1.5,1h4l.5.5V2H5.5L5,2.5V3H2V5H5V6H2V8H5V9H2v2H5v1H1.5L1,11.5V1.5Z" />
    </g>
    <path class="light-defaultgrey-10" d="M6.732,10,5.5,11.233V3.5h4v7.733L8.268,10Z" />
    <path class="light-defaultgrey" d="M6,10H9v.733l1,1V2.5L9.5,2h-4L5,2.5v9.233l1-1ZM6,4H9V6H6ZM6,7H9V9H6Z" />
    <path class="light-blue" d="M7,12.707,5.854,13.854l-.708-.708,2-2h.708l2,2-.708.708L8,12.707V16H7Z" />
  </g>
</svg>
