<svg xmlns="http://www.w3.org/2000/svg" viewBox="0 0 16 16">
  <defs>
    <style>.canvas{fill: none; opacity: 0;}.light-defaultgrey-10{fill: #212121; opacity: 0.1;}.light-defaultgrey{fill: #212121; opacity: 1;}.light-green{fill: #1f801f; opacity: 1;}</style>
  </defs>
  <title>IconLightAddOnlineVersion</title>
  <g id="canvas" class="canvas">
    <path class="canvas" d="M16,16H0V0H16Z" />
  </g>
  <g id="level-1">
    <path class="light-defaultgrey-10" d="M.5,7.5a7,7,0,1,1,7,7A7,7,0,0,1,.5,7.5Z" />
    <path class="light-defaultgrey" d="M7.5,15A7.5,7.5,0,1,1,15,7.5,7.508,7.508,0,0,1,7.5,15Zm0-14A6.5,6.5,0,1,0,14,7.5,6.508,6.508,0,0,0,7.5,1Z" />
    <path class="light-green" d="M11,8H8v3H7V8H4V7H7V4H8V7h3Z" />
  </g>
</svg>
