<svg xmlns="http://www.w3.org/2000/svg" viewBox="0 0 16 16">
  <defs>
    <style>.canvas{fill: none; opacity: 0;}.light-defaultgrey-10{fill: #212121; opacity: 0.1;}.light-defaultgrey{fill: #212121; opacity: 1;}.light-green{fill: #1f801f; opacity: 1;}.cls-1{opacity:0.75;}</style>
  </defs>
  <title>IconLightAddPageGuides</title>
  <g id="canvas" class="canvas">
    <path class="canvas" d="M16,16H0V0H16Z" />
  </g>
  <g id="level-1">
    <g class="cls-1">
      <path class="light-defaultgrey-10" d="M15.5,2V15.5H4.5V8H5V5H8V2Z" />
      <path class="light-defaultgrey" d="M16,2.5v13l-.5.5H4.5L4,15.5V8H5v7H15V3H8V2h7.5Z" />
    </g>
    <path class="light-defaultgrey" d="M8,4H9V5H8ZM8,7H9V6H8ZM8,9H9V8H8Zm0,2H9V10H8Zm0,2H9V12H8Zm0,2H9V14H8ZM6,11H7V10H6Zm4,0h1V10H10Zm2,0h1V10H12Zm2-1v1h1V10Z" />
    <path class="light-green" d="M7,4H4V7H3V4H0V3H3V0H4V3H7Z" />
  </g>
</svg>
