<svg xmlns="http://www.w3.org/2000/svg" viewBox="0 0 16 16">
  <defs>
    <style>.canvas{fill: none; opacity: 0;}.light-defaultgrey-10{fill: #212121; opacity: 0.1;}.light-defaultgrey{fill: #212121; opacity: 1;}.light-green{fill: #1f801f; opacity: 1;}.cls-1{opacity:0.75;}</style>
  </defs>
  <title>IconLightAddProperty</title>
  <g id="canvas" class="canvas">
    <path class="canvas" d="M16,16H0V0H16Z" />
  </g>
  <g id="level-1">
    <g class="cls-1">
      <path class="light-defaultgrey-10" d="M10,8.451c-1.883,1.894-4.507,4.5-5.92,5.816-.861.75-2.077-.651-1.418-1.4,1.335-1.4,3.981-4.026,5.875-5.874A3.924,3.924,0,0,0,10,8.451Z" />
      <path class="light-defaultgrey" d="M10.475,8.679c-1.83,1.842-4.561,4.56-6.057,5.954a1.352,1.352,0,0,1-.892.346,1.5,1.5,0,0,1-1.056-.47,1.444,1.444,0,0,1-.187-1.973c1.383-1.448,4.122-4.167,6.022-6.018a3.9,3.9,0,0,0,.506.9c-1.858,1.817-4.466,4.408-5.791,5.8-.134.153.009.441.158.591a.4.4,0,0,0,.57.087C5.173,12.563,7.755,10,9.567,8.174A4,4,0,0,0,10.475,8.679Z" />
    </g>
    <path class="light-defaultgrey" d="M16,5A4,4,0,0,1,8,5a3.961,3.961,0,0,1,4-4,4.19,4.19,0,0,1,1.441.241L10.559,4.2,12.8,6.441l2.959-2.882A4.19,4.19,0,0,1,16,5Z" />
    <path class="light-green" d="M7,4H4V7H3V4H0V3H3V0H4V3H7Z" />
  </g>
</svg>
