<svg xmlns="http://www.w3.org/2000/svg" viewBox="0 0 16 16">
  <defs>
    <style>.canvas{fill: none; opacity: 0;}.light-defaultgrey{fill: #212121; opacity: 1;}.light-green{fill: #1f801f; opacity: 1;}.cls-1{opacity:0;fill:none;}</style>
  </defs>
  <title>IconLightAddParameter</title>
  <g id="canvas" class="canvas">
    <path class="canvas" d="M16,0V16H0V0Z" />
    <path class="cls-1" d="M16,16H0V0H16Z" />
  </g>
  <g id="level-1">
    <path class="light-defaultgrey" d="M16,2.5v11l-.5.5H13V13h2V3H13V2h2.5Z" />
    <path class="light-defaultgrey" d="M3,13H5v1H2.5L2,13.5V8H3Z" />
    <path class="light-defaultgrey" d="M11.843,5.459a4.067,4.067,0,0,0-2.8-.986A4.8,4.8,0,0,0,8,4.581V5H6.908a3.925,3.925,0,0,0-.839.649A4.046,4.046,0,0,0,4.907,8.613a3.761,3.761,0,0,0,1.1,2.813A3.967,3.967,0,0,0,8.9,12.5a5.517,5.517,0,0,0,2.134-.361v-.752a4.608,4.608,0,0,1-2.007.4A3.187,3.187,0,0,1,6.66,10.9a3.15,3.15,0,0,1-.879-2.324,3.413,3.413,0,0,1,.913-2.432A3.03,3.03,0,0,1,9,5.176a3.1,3.1,0,0,1,2.268.8,2.78,2.78,0,0,1,.817,2.073,2.853,2.853,0,0,1-.3,1.4.88.88,0,0,1-.762.539q-.5,0-.5-.967,0-.048.23-2.627H9.936q-.058.426-.073.562H9.848A.843.843,0,0,0,9.5,6.506a1.039,1.039,0,0,0-.61-.188,1.73,1.73,0,0,0-1.448.728,2.946,2.946,0,0,0-.549,1.826,2.028,2.028,0,0,0,.4,1.321,1.3,1.3,0,0,0,1.055.491,1.361,1.361,0,0,0,1.377-1.05H9.75q.006,1.049,1.128,1.05a1.831,1.831,0,0,0,1.473-.745,2.94,2.94,0,0,0,.6-1.907A3.281,3.281,0,0,0,11.843,5.459Zm-2.4,3.977a.948.948,0,0,1-.85.554A.7.7,0,0,1,8,9.685a1.39,1.39,0,0,1-.222-.832,2.444,2.444,0,0,1,.329-1.314.991.991,0,0,1,.867-.527q.781,0,.781.957A2.983,2.983,0,0,1,9.443,9.436Z" />
    <path class="light-green" d="M7,4H4V7H3V4H0V3H3V0H4V3H7Z" />
  </g>
</svg>
