<svg xmlns="http://www.w3.org/2000/svg" viewBox="0 0 16 16">
  <defs>
    <style>.canvas{fill: none; opacity: 0;}.light-defaultgrey{fill: #212121; opacity: 1;}.light-green{fill: #1f801f; opacity: 1;}.cls-1{opacity:0.75;}</style>
  </defs>
  <title>IconLightAddStyleRule</title>
  <g id="canvas" class="canvas">
    <path class="canvas" d="M16,16H0V0H16Z" />
  </g>
  <g id="level-1">
    <g class="cls-1">
      <path class="light-defaultgrey" d="M3,9H2V8H3Zm0,2H2V10H3Zm0,2H2V12H3Zm0,2H2V14H3Zm2,0H4V14H5Zm2,0H6V14H7Zm2-1H8v1H9Zm2,1H10V14h1Zm2,0H12V14h1Zm2,0H14V14h1Z" />
    </g>
    <path class="light-defaultgrey" d="M12.148,13l-.3-2.021H8.7L7.578,13H6l4.717-8.052h1.577L13.569,13Zm-.859-6.452v-.2l.012-.2h-.029a3.867,3.867,0,0,1-.263.617L9.279,9.855h2.426l-.393-3.032A1.315,1.315,0,0,1,11.289,6.548Z" />
    <path class="light-green" d="M7,4H4V7H3V4H0V3H3V0H4V3H7Z" />
  </g>
</svg>
