<svg xmlns="http://www.w3.org/2000/svg" viewBox="0 0 16 16">
  <defs>
    <style>.canvas{fill: none; opacity: 0;}.light-green{fill: #1f801f; opacity: 1;}.light-defaultgrey-10{fill: #212121; opacity: 0.1;}.light-defaultgrey{fill: #212121; opacity: 1;}.light-defaultgrey-25{fill: #212121; opacity: 0.25;}.cls-1{opacity:0.75;}</style>
  </defs>
  <title>AddToCollection</title>
  <g id="canvas" class="canvas">
    <path class="canvas" d="M16,16H0V0H16Z" />
  </g>
  <g id="level-1">
    <path class="light-green" d="M7,4H4V7H3V4H0V3H3V0H4V3H7Z" />
    <g class="cls-1">
      <path class="light-defaultgrey-10" d="M8.5,2.5V6h4l.5.5v5h2.5v-9Z" />
      <path class="light-defaultgrey-10" d="M2.5,8v5.5H5V8Z" />
      <path class="light-defaultgrey" d="M15.5,2h-7L8,2.5V6H9V3h6v8H13v1h2.5l.5-.5v-9ZM3,8H2v5.5l.5.5H5V13H3Z" />
    </g>
    <path class="light-defaultgrey-10" d="M5.5,6.5v9h7v-9Z" />
    <path class="light-defaultgrey" d="M12.5,6h-7L5,6.5v9l.5.5h7l.5-.5v-9ZM12,15H6V7h6Z" />
    <path class="light-defaultgrey-25" d="M9,11V7H8v4.5l.5.5H12V11Z" />
  </g>
</svg>
