<svg xmlns="http://www.w3.org/2000/svg" viewBox="0 0 16 16">
  <defs>
    <style>.canvas{fill: none; opacity: 0;}.light-blue{fill: #005dba; opacity: 1;}.light-defaultgrey-10{fill: #212121; opacity: 0.1;}.light-defaultgrey{fill: #212121; opacity: 1;}.light-blue-10{fill: #005dba; opacity: 0.1;}</style>
  </defs>
  <title>IconLightAddToRowAbove</title>
  <g id="canvas" class="canvas">
    <path class="canvas" d="M16,16H0V0H16Z" />
    <path class="canvas" d="M16,16H0V0H16Z" />
  </g>
  <g id="level-1">
    <path class="light-blue" d="M7,6.707,5.854,7.853l-.708-.707,2-2h.708l2,2-.708.707L8,6.707V10H7Z" />
    <path class="light-defaultgrey-10" d="M1.5,13h12v2.5H1.5Z" />
    <path class="light-defaultgrey" d="M13.5,13l.5-.5v3l-.5.5H1.5L1,15.5v-3l.5.5H2v2H5V13H6v2H9V13h1v2h3V13Zm-12-2-.5.5v1l.5.5h12l.5-.5v-1l-.5-.5Z" />
    <path class="light-blue-10" d="M13.5,1.5v3H1.5v-3Z" />
    <path class="light-blue" d="M14,1.5v3l-.5.5H1.5L1,4.5v-3l.5.5H2V4H5V2H6V4H9V2h1V4h3V2h.5ZM13.5,0H1.5L1,.5v1l.5.5h12l.5-.5V.5Z" />
  </g>
</svg>
