<svg xmlns="http://www.w3.org/2000/svg" viewBox="0 0 16 16">
  <defs>
    <style>.canvas{fill: none; opacity: 0;}.light-defaultgrey{fill: #212121; opacity: 1;}.light-defaultgrey-10{fill: #212121; opacity: 0.1;}.light-green{fill: #1f801f; opacity: 1;}.cls-1{opacity:0.75;}</style>
  </defs>
  <title>IconLightAddToDependancyGraph</title>
  <g id="canvas" class="canvas">
    <path class="canvas" d="M16,16H0V0H16Z" />
  </g>
  <g id="level-1">
    <g class="cls-1">
      <path class="light-defaultgrey" d="M13.221,10H11.94L8.982,6.3,6.055,10H4.779L7.946,6h2.075Z" />
    </g>
    <path class="light-defaultgrey-10" d="M6.5,2V1.5h5v4h-5V5H8V2Z" />
    <path class="light-defaultgrey-10" d="M15.5,10.5v4h-5v-4Z" />
    <path class="light-defaultgrey-10" d="M2.5,10.5h5v4h-5Z" />
    <path class="light-defaultgrey" d="M6,2V1.5L6.5,1h5l.5.5v4l-.5.5h-5L6,5.5V5h5V2ZM2.5,10l-.5.5v4l.5.5h5l.5-.5v-4L7.5,10ZM7,14H3V11H7Zm8.5-4h-5l-.5.5v4l.5.5h5l.5-.5v-4ZM15,14H11V11h4Z" />
    <path class="light-green" d="M7,4H4V7H3V4H0V3H3V0H4V3H7Z" />
  </g>
</svg>
