<svg xmlns="http://www.w3.org/2000/svg" viewBox="0 0 16 16">
  <defs>
    <style>.canvas{fill: none; opacity: 0;}.light-defaultgrey-10{fill: #212121; opacity: 0.1;}.light-defaultgrey{fill: #212121; opacity: 1;}.light-green{fill: #1f801f; opacity: 1;}.cls-1{opacity:0.75;}</style>
  </defs>
  <title>IconLightAddTopFrame</title>
  <g id="canvas" class="canvas">
    <path class="canvas" d="M16,16H0V0H16Z" />
  </g>
  <g id="level-1">
    <g class="cls-1">
      <path class="light-defaultgrey-10" d="M2.5,9h12v5.5H2.5Z" />
      <path class="light-defaultgrey" d="M2,14.5v-6l.5.5H3v5H14V9h.5l.5-.5v6l-.5.5H2.5Z" />
    </g>
    <g class="cls-1">
      <path class="light-defaultgrey" d="M14.5,2.5v6H5V5H8V2.5Z" />
    </g>
    <path class="light-defaultgrey" d="M15,2.5v6l-.5.5H2.5L2,8.5V8H14V3H8V2h6.5Z" />
    <path class="light-green" d="M7,4H4V7H3V4H0V3H3V0H4V3H7Z" />
  </g>
</svg>
