<svg xmlns="http://www.w3.org/2000/svg" viewBox="0 0 16 16">
  <defs>
    <style>.canvas{fill: none; opacity: 0;}.light-defaultgrey-10{fill: #212121; opacity: 0.1;}.light-defaultgrey{fill: #212121; opacity: 1;}.light-green{fill: #1f801f; opacity: 1;}</style>
  </defs>
  <title>IconLightAddUser</title>
  <g id="canvas" class="canvas">
    <path class="canvas" d="M16,16H0V0H16Z" />
  </g>
  <g id="level-1">
    <path class="light-defaultgrey-10" d="M10.5,4.5a3,3,0,1,1-3,3A3,3,0,0,1,10.5,4.5ZM15,15a4.5,4.5,0,0,0-9,0Z" />
    <path class="light-defaultgrey" d="M12.457,10.4a3.5,3.5,0,1,0-3.914,0A5.007,5.007,0,0,0,5.5,15h1a4,4,0,0,1,8,0h1A5.007,5.007,0,0,0,12.457,10.4ZM8,7.5A2.5,2.5,0,1,1,10.5,10,2.5,2.5,0,0,1,8,7.5Z" />
    <path class="light-green" d="M7,4H4V7H3V4H0V3H3V0H4V3H7Z" />
  </g>
</svg>
