<svg xmlns="http://www.w3.org/2000/svg" viewBox="0 0 16 16">
  <defs>
    <style>.canvas{fill: none; opacity: 0;}.light-blue-10{fill: #005dba; opacity: 0.1;}.light-blue{fill: #005dba; opacity: 1;}.light-defaultgrey-10{fill: #212121; opacity: 0.1;}.light-defaultgrey{fill: #212121; opacity: 1;}.light-green{fill: #1f801f; opacity: 1;}</style>
  </defs>
  <title>IconLightAddWebUserControl</title>
  <g id="canvas" class="canvas">
    <path class="canvas" d="M16,16H0V0H16Z" />
  </g>
  <g id="level-1">
    <path class="light-blue-10" d="M15.5,8a4.5,4.5,0,0,1-6.269,4.139A3.7,3.7,0,0,0,9.75,10.25,3.757,3.757,0,0,0,6.732,6.572,4.481,4.481,0,0,1,7.647,5H8V4.647A4.5,4.5,0,0,1,15.5,8Z" />
    <path class="light-blue" d="M11,3A4.968,4.968,0,0,0,8,4V5H7a4.976,4.976,0,0,0-.775,1.507A3.731,3.731,0,0,1,7.869,7h.705c-.021.159-.039.318-.052.477a3.732,3.732,0,0,1,.947,4.188l.018.033-.028-.012a3.733,3.733,0,0,1-.253.5,5,5,0,0,1,.68.693A5,5,0,1,0,11,3Zm3.444,3H13.225a7.486,7.486,0,0,0-.712-1.7A4.011,4.011,0,0,1,14.444,6ZM10.891,4.011C10.928,4.01,10.963,4,11,4s.072.01.11.011A6.54,6.54,0,0,1,12.168,6H9.832A6.5,6.5,0,0,1,10.891,4.011ZM8.775,6H7.556A4.011,4.011,0,0,1,9.487,4.3,7.486,7.486,0,0,0,8.775,6Zm2.332,5.989c-.036,0-.07.011-.107.011s-.072-.01-.109-.011A6.5,6.5,0,0,1,9.832,10h2.336A6.5,6.5,0,0,1,11.107,11.989ZM12.412,9H9.588A6.419,6.419,0,0,1,9.5,8a6.419,6.419,0,0,1,.088-1h2.824A6.419,6.419,0,0,1,12.5,8,6.419,6.419,0,0,1,12.412,9Zm.1,2.7a7.534,7.534,0,0,0,.713-1.7h1.218A4.011,4.011,0,0,1,12.513,11.7ZM13.426,9A7.583,7.583,0,0,0,13.5,8a7.583,7.583,0,0,0-.074-1h1.432A3.939,3.939,0,0,1,15,8a3.939,3.939,0,0,1-.142,1Z" />
    <path class="light-defaultgrey-10" d="M8.25,10.25A2.25,2.25,0,1,1,6,8,2.25,2.25,0,0,1,8.25,10.25ZM9.5,16a3.5,3.5,0,0,0-7,0Z" />
    <path class="light-defaultgrey" d="M4.25,10.25A1.75,1.75,0,1,1,6,12,1.752,1.752,0,0,1,4.25,10.25ZM7.7,12.394a2.75,2.75,0,1,0-3.4,0A4,4,0,0,0,2,16H3a3,3,0,0,1,6,0h1A4,4,0,0,0,7.7,12.394Z" />
    <path class="light-green" d="M7,4H4V7H3V4H0V3H3V0H4V3H7Z" />
  </g>
</svg>
