<svg xmlns="http://www.w3.org/2000/svg" viewBox="0 0 16 16">
  <defs>
    <style>.canvas{fill: none; opacity: 0;}.light-blue-10{fill: #005dba; opacity: 0.1;}.light-blue{fill: #005dba; opacity: 1;}.light-defaultgrey-10{fill: #212121; opacity: 0.1;}.light-defaultgrey{fill: #212121; opacity: 1;}.light-green{fill: #1f801f; opacity: 1;}</style>
  </defs>
  <title>IconLightAddWebForm</title>
  <g id="canvas" class="canvas">
    <path class="canvas" d="M16,16H0V0H16Z" />
  </g>
  <g id="level-1">
    <path class="light-blue-10" d="M11.5,11A4.5,4.5,0,1,1,3.646,8H5V6.968A4.5,4.5,0,0,1,11.5,11Z" />
    <path class="light-blue" d="M7,6a4.963,4.963,0,0,0-2,.418V7.544A3.741,3.741,0,0,1,5.487,7.3,7.486,7.486,0,0,0,4.775,9H3.556a4.091,4.091,0,0,1,.817-1H3A5,5,0,1,0,7,6ZM3.142,12a3.592,3.592,0,0,1,0-2H4.574A7.583,7.583,0,0,0,4.5,11a7.583,7.583,0,0,0,.074,1Zm.414,1H4.775a7.486,7.486,0,0,0,.712,1.7A4.011,4.011,0,0,1,3.556,13Zm6.888-4H9.225a7.486,7.486,0,0,0-.712-1.7A4.011,4.011,0,0,1,10.444,9ZM6.891,7.011C6.928,7.01,6.963,7,7,7s.072.01.11.011A6.54,6.54,0,0,1,8.168,9H5.832A6.5,6.5,0,0,1,6.891,7.011Zm.216,7.978c-.036,0-.07.011-.107.011s-.072-.01-.109-.011A6.5,6.5,0,0,1,5.832,13H8.168A6.5,6.5,0,0,1,7.107,14.989ZM8.412,12H5.588A6.419,6.419,0,0,1,5.5,11a6.419,6.419,0,0,1,.088-1H8.412A6.419,6.419,0,0,1,8.5,11,6.419,6.419,0,0,1,8.412,12Zm.1,2.7A7.534,7.534,0,0,0,9.226,13h1.218A4.011,4.011,0,0,1,8.513,14.7ZM9.426,12A7.583,7.583,0,0,0,9.5,11a7.583,7.583,0,0,0-.074-1h1.432a3.592,3.592,0,0,1,0,2Z" />
    <path class="light-defaultgrey-10" d="M15.5,3.5v8H11.949A4.865,4.865,0,0,0,12,11,5.006,5.006,0,0,0,7,6a4.845,4.845,0,0,0-2,.438V5H8V3.5Z" />
    <path class="light-defaultgrey" d="M16,2.5v9l-.5.5H11.9a5,5,0,0,0,.1-1h3V4H8V2h7.5Z" />
    <path class="light-green" d="M7,4H4V7H3V4H0V3H3V0H4V3H7Z" />
  </g>
</svg>
