<svg xmlns="http://www.w3.org/2000/svg" viewBox="0 0 16 16">
  <defs>
    <style>.canvas{fill: none; opacity: 0;}.light-defaultgrey{fill: #212121; opacity: 1;}.light-yellow{fill: #996f00; opacity: 1;}.white{fill: #ffffff; opacity: 1;}</style>
  </defs>
  <title>IconLightAggregateWarning</title>
  <g id="canvas">
    <path class="canvas" d="M16,16H0V0H16Z" />
  </g>
  <g id="level-1">
    <path class="light-defaultgrey" d="M2,7H0V6H2ZM2,2H0V3H2ZM2,4H0V5H2Zm8,2.5v-1H9V6H7l.9-1.2V4.2L7,3H9v.5h1v-1L9.5,2H6l-.4.8L6.875,4.5,5.6,6.2,6,7H9.5ZM5.215,4.137q-.6,0-.6-.739V2.5a1.4,1.4,0,0,0-.383-1.115A1.885,1.885,0,0,0,3,1.062v.731q.625,0,.625.68v.8q0,.976.6,1.223v.016q-.6.234-.6,1.168v.832a.779.779,0,0,1-.148.537A.632.632,0,0,1,3,7.207v.73a1.952,1.952,0,0,0,1.236-.312,1.408,1.408,0,0,0,.381-1.137v-.9q0-.731.6-.731Z" />
    <path class="light-yellow" d="M15.5,16h-8l-.439-.739,4-7.261h.878l4,7.261Z" />
    <path class="white" d="M12,13H11V10h1Zm.25,1.5a.75.75,0,1,1-.75-.75A.75.75,0,0,1,12.25,14.5Z" />
  </g>
</svg>
