<svg xmlns="http://www.w3.org/2000/svg" viewBox="0 0 16 16">
  <defs>
    <style>.canvas{fill: none; opacity: 0;}.light-defaultgrey{fill: #212121; opacity: 1;}.cls-1{opacity:0.75;}</style>
  </defs>
  <title>IconLightAggregateCopy</title>
  <g id="canvas">
    <path class="canvas" d="M16,16H0V0H16Z" />
  </g>
  <g id="level-1">
    <g class="cls-1">
      <path class="light-defaultgrey" d="M5,3H7V4H5ZM5,6H7V5H5ZM9.617,4.4V3.5a1.4,1.4,0,0,0-.383-1.115A1.885,1.885,0,0,0,8,2.062v.731q.625,0,.625.68v.8q0,.977.6,1.223v.016q-.6.234-.6,1.168v.445h.992V6.586q0-.731.6-.731V5.137Q9.617,5.137,9.617,4.4ZM15,4.5v-1L14.5,3H11l-.4.8,1.275,1.7L10.656,7.125h1.258L12.789,8H14.5l.5-.5v-1H14V7H12l.9-1.2V5.2L12,4h2v.5Z" />
    </g>
    <path class="light-defaultgrey" d="M4,13H2V12H4ZM4,8H2V9H4Zm0,2H2v1H4Zm8,2.5v-1H11V12H9l.9-1.2v-.6L9,9h2v.5h1v-1L11.5,8H8l-.4.8,1.275,1.7L7.6,12.2,8,13h3.5ZM7.215,10.137q-.6,0-.6-.739V8.5a1.4,1.4,0,0,0-.383-1.115A1.885,1.885,0,0,0,5,7.062v.731q.625,0,.625.68v.8q0,.976.6,1.223v.016q-.6.234-.6,1.168v.832a.779.779,0,0,1-.148.537A.632.632,0,0,1,5,13.207v.73a1.952,1.952,0,0,0,1.236-.312,1.408,1.408,0,0,0,.381-1.137v-.9q0-.731.6-.731Z" />
  </g>
</svg>
