<svg xmlns="http://www.w3.org/2000/svg" viewBox="0 0 16 16">
  <defs>
    <style>.canvas{fill: none; opacity: 0;}.light-defaultgrey{fill: #212121; opacity: 1;}.light-defaultgrey-10{fill: #212121; opacity: 0.1;}.cls-1{opacity:0.75;}</style>
  </defs>
  <title>IconLightAlignMiddle</title>
  <g id="canvas" class="canvas">
    <path class="canvas" d="M16,16H0V0H16Z" />
  </g>
  <g id="level-1">
    <path class="light-defaultgrey" d="M11.5,4h-2L9,4.5v6l.5.5h2l.5-.5v-6ZM11,10H10V5h1Z" />
    <path class="light-defaultgrey-10" d="M6.5,12.5h-2V2.5h2Zm5-2h-2v-6h2Z" />
    <path class="light-defaultgrey" d="M6.5,2h-2L4,2.5v10l.5.5h2l.5-.5V2.5ZM6,12H5V3H6Z" />
    <g class="cls-1">
      <path class="light-defaultgrey" d="M2,7H4V8H2ZM7,7H9V8H7Zm5,0h2V8H12Z" />
    </g>
  </g>
</svg>
