<svg xmlns="http://www.w3.org/2000/svg" viewBox="0 0 16 16">
  <defs>
    <style>.canvas{fill: none; opacity: 0;}.light-teal-10{fill: #006758; opacity: 0.1;}.light-teal{fill: #006758; opacity: 1;}.light-defaultgrey{fill: #212121; opacity: 1;}.light-defaultgrey-10{fill: #212121; opacity: 0.1;}.light-blue{fill: #005dba; opacity: 1;}.cls-1{opacity:0.75;}</style>
  </defs>
  <title>All</title>
  <g id="canvas">
    <path class="canvas" d="M16,16H0V0H16Z" />
  </g>
  <g id="level-1">
    <g class="cls-1">
      <path class="light-teal-10" d="M11.5,5.5h-6v-2h6Z" />
      <path class="light-teal" d="M11.5,3h-6L5,3.5v2l.5.5h6l.5-.5v-2ZM11,5H6V4h5Z" />
    </g>
    <g class="cls-1">
      <path class="light-defaultgrey" d="M4,3V4H1V3ZM1,7H4V6H1Zm0,3H4V9H1Zm0,3H4V12H1Z" />
    </g>
    <path class="light-defaultgrey-10" d="M13.6,13.518l.4-.4L13.5,14v.5H2.5V13H4V12H2.5V10H4V9H2.5V7H4V6H2.5V4H4V3H2.5V1.5h11V5l.5.879-.4-.4L11.482,7.6l.4.4H7v3h4.879l-.4.4Z" />
    <path class="light-defaultgrey" d="M2,7H3V9H2Zm0,5H3V10H2ZM13.5,1H2.5L2,1.5V3H3V2H13V6.086l.6-.6.4.4V1.5ZM2,6H3V4H2Zm11,6.914V14H3V13H2v1.5l.5.5h11l.5-.5V13.121l-.4.4Z" />
    <path class="light-blue" d="M15.854,9.146v.708L13.6,12.1,12.9,11.4l1.4-1.4H8V9h6.293L12.9,7.6,13.6,6.9Z" />
  </g>
</svg>
