<svg xmlns="http://www.w3.org/2000/svg" viewBox="0 0 16 16">
  <defs>
    <style>.canvas{fill: none; opacity: 0;}.light-defaultgrey-10{fill: #212121; opacity: 0.1;}.light-defaultgrey{fill: #212121; opacity: 1;}.light-lightblue-10{fill: #0077a0; opacity: 0.1;}.light-lightblue{fill: #0077a0; opacity: 1;}</style>
  </defs>
  <title>IconLightAllFieldsInDatabase</title>
  <g id="canvas" class="canvas">
    <path class="canvas" d="M16,16H0V0H16Z" />
  </g>
  <g id="level-1">
    <path class="light-defaultgrey-10" d="M7.5,15.5H.5v-8h7Z" />
    <path class="light-defaultgrey" d="M6,10H2V9H6ZM5,12H2V11H5Zm1,2H2V13H6Zm1.5,2H.5L0,15.5v-8L.5,7h7l.5.5v8ZM1,15H7V8H1Z" />
    <path class="light-lightblue-10" d="M13.5,3v8c0,.828-1.791,1.5-4,1.5-.171,0-.335-.011-.5-.019V7.086L7.914,6H5.5V3c0-.829,1.791-1.5,4-1.5S13.5,2.171,13.5,3Z" />
    <path class="light-lightblue" d="M5,2.97V6H6V4.261a7.863,7.863,0,0,0,3.5.709A7.863,7.863,0,0,0,13,4.261V11c0,.29-1.227,1-3.5,1-.177,0-.336-.011-.5-.019v1c.166.008.332.019.5.019,2.236,0,4.5-.687,4.5-2V2.97C14,.343,5,.343,5,2.97Zm4.5,1c-2.273,0-3.5-.71-3.5-1s1.227-1,3.5-1,3.5.71,3.5,1S11.773,3.97,9.5,3.97Z" />
  </g>
</svg>
