<svg xmlns="http://www.w3.org/2000/svg" viewBox="0 0 16 16">
  <defs>
    <style>.canvas{fill: none; opacity: 0;}.light-defaultgrey-10{fill: #212121; opacity: 0.1;}.light-defaultgrey{fill: #212121; opacity: 1;}.light-red{fill: #c50b17; opacity: 1;}.cls-1{opacity:0.75;}</style>
  </defs>
  <title>IconLightAnomalyDetection</title>
  <g id="canvas">
    <path class="canvas" d="M16,0V16H0V0Z" />
  </g>
  <g id="level-1">
    <g class="cls-1">
      <path class="light-defaultgrey-10" d="M13.5,1.5V4.49a4.447,4.447,0,0,0-2-.49,4.481,4.481,0,0,0-3.33,7.5H1.5V1.5Z" />
      <path class="light-defaultgrey" d="M14,1.5V4.762a4.493,4.493,0,0,0-1-.486V2H2v9H7.762a4.5,4.5,0,0,0,.944,1H1.5L1,11.5V1.5L1.5,1h12Z" />
      <path class="light-defaultgrey" d="M3,7H6V8H3ZM3,6H7V5H3ZM3,3V4H9V3Z" />
    </g>
    <path class="light-defaultgrey-10" d="M15.5,8.5a4,4,0,1,1-4-4A4,4,0,0,1,15.5,8.5Z" />
    <path class="light-defaultgrey" d="M11.5,4A4.505,4.505,0,0,0,7,8.5a4.455,4.455,0,0,0,1,2.793L5.146,14.146a.5.5,0,0,0,.708.708L8.707,12A4.455,4.455,0,0,0,11.5,13a4.5,4.5,0,0,0,0-9Zm0,8A3.5,3.5,0,1,1,15,8.5,3.5,3.5,0,0,1,11.5,12Z" />
    <path class="light-red" d="M12,6V9H11V6Zm.25,4.5a.75.75,0,1,1-.75-.75A.75.75,0,0,1,12.25,10.5Z" />
  </g>
</svg>
