<svg xmlns="http://www.w3.org/2000/svg" viewBox="0 0 16 16">
  <defs>
    <style>.canvas{fill: none; opacity: 0;}.light-defaultgrey-10{fill: #212121; opacity: 0.1;}.light-defaultgrey{fill: #212121; opacity: 1;}.light-red{fill: #c50b17; opacity: 1;}.cls-1{opacity:0.75;}</style>
  </defs>
  <title>IconLightAppearanceEditor</title>
  <g id="canvas" class="canvas">
    <path class="canvas" d="M16,16H0V0H16Z" />
  </g>
  <g id="level-1">
    <g class="cls-1">
      <path class="light-defaultgrey-10" d="M14,2V12H8.81L6,4.7V2Z" />
      <path class="light-defaultgrey" d="M15,1.5v11l-.5.5H9.2L8.81,12H14V2H6V4.7L5,2.1V1.5L5.5,1h9Z" />
      <path class="light-defaultgrey" d="M13,7V8H7.27L7,7.3V7ZM7,5h6V6H7Zm5,4v1H8.04L8,9.9V9Zm1-5H7V3h6Z" />
    </g>
    <path class="light-red" d="M7.979,14h-8V13h8Z" />
    <path class="light-defaultgrey" d="M4.5,3.6H3.484L.262,12h1.1l.838-2.355H5.758L6.648,12h1.09ZM2.523,8.76,3.83,5.18a3.131,3.131,0,0,0,.135-.563h.023a3.425,3.425,0,0,0,.129.563L5.436,8.76Z" />
  </g>
</svg>
