<svg xmlns="http://www.w3.org/2000/svg" viewBox="0 0 16 16">
  <defs>
    <style>.canvas{fill: none; opacity: 0;}.light-defaultgrey-10{fill: #212121; opacity: 0.1;}.light-defaultgrey{fill: #212121; opacity: 1;}</style>
  </defs>
  <title>IconLightAppearanceGrid</title>
  <g id="canvas" class="canvas">
    <path class="canvas" d="M16,16H0V0H16Z" />
  </g>
  <g id="level-1">
    <path class="light-defaultgrey-10" d="M13.5,14.5H1.5V2.5h12Z" />
    <path class="light-defaultgrey" d="M13.5,2H1.5L1,2.5v12l.5.5h12l.5-.5V2.5ZM9,3V6H6V3ZM9,7v3H6V7ZM2,3H5V6H2ZM2,7H5v3H2Zm0,7V11H5v3Zm4,0V11H9v3Zm7,0H10V11h3Zm0-4H10V7h3Zm0-4H10V3h3Z" />
  </g>
</svg>
