<svg xmlns="http://www.w3.org/2000/svg" viewBox="0 0 16 16">
  <defs>
    <style>.canvas{fill: none; opacity: 0;}.light-defaultgrey-10{fill: #212121; opacity: 0.1;}.light-defaultgrey{fill: #212121; opacity: 1;}.light-blue{fill: #005dba; opacity: 1;}</style>
  </defs>
  <title>ApplicationOnlySequence</title>
  <g id="canvas">
    <path class="canvas" d="M16,16H0V0H16Z" />
  </g>
  <g id="level-1">
    <path class="light-defaultgrey-10" d="M15.5,4.5v8H13.631l.14-.14-2.125-2.123L11,10.885V7.122L13.621,4.5Z" />
    <path class="light-defaultgrey" d="M16,4.5v8l-.5.5H13V12h2V5H13V4h2.5Z" />
    <path class="light-blue" d="M12.355,12.359l-2.5,2.495H9.145l-2.5-2.5.708-.708L9,13.291V9h1v4.3l1.648-1.649Zm-3.21-5.5h.708l2.5-2.5-.708-.708L10,5.3V1H9V5.291L7.977,4.27c0,.079.023.154.023.234a4.448,4.448,0,0,1-.147,1.058Z" />
    <path class="light-defaultgrey-10" d="M.5,4.5a3,3,0,1,1,4,2.816V7.5l1,1-1,1,1,1-1,1,1,1-2,2-1-1V7.316A2.99,2.99,0,0,1,.5,4.5Z" />
    <path class="light-defaultgrey" d="M7,4.5A3.5,3.5,0,1,0,2,7.649V13.5l.146.354,1,1h.708l2-2v-.708L5.207,11.5l.647-.646v-.708L5.207,9.5l.647-.646V8.146l-.623-.622A3.493,3.493,0,0,0,7,4.5ZM4.218,6.882V7.925l.575.575-.647.646v.708l.647.646-.647.646v.708l.647.646L3.5,13.793l-.5-.5V6.949a2.525,2.525,0,1,1,1.218-.067ZM3.5,2.75a.75.75,0,1,1-.75.75A.75.75,0,0,1,3.5,2.75Z" />
  </g>
</svg>
