<svg xmlns="http://www.w3.org/2000/svg" viewBox="0 0 16 16">
  <defs>
    <style>.canvas{fill: none; opacity: 0;}.light-defaultgrey-10{fill: #212121; opacity: 0.1;}.light-defaultgrey{fill: #212121; opacity: 1;}</style>
  </defs>
  <title>IconLightApplicationRole</title>
  <g id="canvas">
    <path class="canvas" d="M16,16H0V0H16Z" />
  </g>
  <g id="level-1">
    <path class="light-defaultgrey-10" d="M14.5,1.5v9H7.733c.005-.083.017-.166.017-.25A3.754,3.754,0,0,0,4,6.5a3.589,3.589,0,0,0-.5.051V1.5Z" />
    <path class="light-defaultgrey-10" d="M6.25,10.25A2.25,2.25,0,1,1,4,8,2.25,2.25,0,0,1,6.25,10.25ZM7.5,16a3.5,3.5,0,0,0-7,0Z" />
    <path class="light-defaultgrey" d="M2.25,10.25A1.75,1.75,0,1,1,4,12,1.752,1.752,0,0,1,2.25,10.25ZM5.7,12.394a2.75,2.75,0,1,0-3.4,0A4,4,0,0,0,0,16H1a3,3,0,0,1,6,0H8A4,4,0,0,0,5.7,12.394Z" />
    <path class="light-defaultgrey" d="M14.5,1H3.5L3,1.5V6.653A3.671,3.671,0,0,1,4,6.5V4H14v6H7.725c.005.084.025.164.025.25a3.747,3.747,0,0,1-.085.75H14.5l.5-.5v-9ZM14,3H4V2H14Z" />
  </g>
</svg>
