<svg xmlns="http://www.w3.org/2000/svg" viewBox="0 0 16 16">
  <defs>
    <style>.canvas{fill: none; opacity: 0;}.light-defaultgrey-10{fill: #212121; opacity: 0.1;}.light-defaultgrey{fill: #212121; opacity: 1;}.cls-1{opacity:0.75;}</style>
  </defs>
  <title>IconLightApplicationBarCommand</title>
  <g id="canvas" class="canvas">
    <path class="canvas" d="M16,16H0V0H16Z" />
  </g>
  <g id="level-1">
    <g class="cls-1">
      <path class="light-defaultgrey-10" d="M5.5,10.5H.5v-5h5Z" />
      <path class="light-defaultgrey-10" d="M15.5,10.5h-5v-5h5Z" />
      <path class="light-defaultgrey" d="M15.5,11H.5L0,10.5v-5L.5,5h15l.5.5v5ZM1,10H15V6H1Z" />
      <path class="light-defaultgrey" d="M3.5,7l.5.5v1L3.5,9h-1L2,8.5v-1L2.5,7Z" />
      <path class="light-defaultgrey" d="M13.5,7h-1l-.5.5v1l.5.5h1l.5-.5v-1Z" />
    </g>
    <path class="light-defaultgrey-10" d="M10.5,10.5h-5v-5h5Z" />
    <path class="light-defaultgrey" d="M10.5,11h-5L5,10.5v-5L5.5,5h5l.5.5v5ZM6,10h4V6H6Z" />
    <path class="light-defaultgrey" d="M7.5,7,7,7.5v1l.5.5h1L9,8.5v-1L8.5,7Z" />
  </g>
</svg>
