<svg xmlns="http://www.w3.org/2000/svg" viewBox="0 0 16 16">
  <defs>
    <style>.canvas{fill: none; opacity: 0;}.light-defaultgrey-10{fill: #212121; opacity: 0.1;}.light-defaultgrey{fill: #212121; opacity: 1;}.cls-1{opacity:0.75;}</style>
  </defs>
  <title>IconLightApplicationGroup</title>
  <g id="canvas">
    <path class="canvas" d="M16,16H0V0H16Z" />
  </g>
  <g id="level-1">
    <path class="light-defaultgrey-10" d="M11.5,14.5H.5v-9h11Z" />
    <path class="light-defaultgrey" d="M11.5,5H.5L0,5.5v9l.5.5h11l.5-.5v-9ZM11,14H1V8H11Zm0-7H1V6H11Z" />
    <g class="cls-1">
      <path class="light-defaultgrey-10" d="M14.5,1.5v9H13V5.086L11.914,4H3.5V1.5Z" />
      <path class="light-defaultgrey" d="M14.5,1H3.5L3,1.5V4H14v6H13v1h1.5l.5-.5v-9ZM14,3H4V2H14Z" />
    </g>
  </g>
</svg>
