<svg xmlns="http://www.w3.org/2000/svg" viewBox="0 0 16 16">
  <defs>
    <style>.canvas{fill: none; opacity: 0;}.light-defaultgrey{fill: #212121; opacity: 1;}.light-lightblue{fill: #0077a0; opacity: 1;}.light-lightblue-10{fill: #0077a0; opacity: 0.1;}.light-defaultgrey-10{fill: #212121; opacity: 0.1;}.cls-1{opacity:0.75;}</style>
  </defs>
  <title>IconLightAreaChart</title>
  <g id="canvas">
    <path class="canvas" d="M16,16H0V0H16Z" />
  </g>
  <g id="level-1">
    <g class="cls-1">
      <path class="light-defaultgrey" d="M15,14v1H1.5L1,14.5V1H2V14Z" />
    </g>
    <path class="light-lightblue" d="M14.5,13H3.5L3,12.5v-4l.146-.354,6-6h.708L12.5,4.793l1.646-1.647L15,3.5v9ZM4,12H14V4.707L12.854,5.854h-.708L9.5,3.207,4,8.707Z" />
    <path class="light-defaultgrey" d="M14.5,13H3.5L3,12.5v-8l.854-.354L8,8.293l2.146-2.147h.708l4,4L15,10.5v2ZM4,12H14V10.707l-3.5-3.5L8.354,9.354H7.646L4,5.707Z" />
    <path class="light-lightblue-10" d="M3.5,8.5l6-6,3,3,2-2v9H3.5Z" />
    <path class="light-defaultgrey-10" d="M14.5,12.5H3.5v-8L8,9l2.5-2.5,4,4Z" />
  </g>
</svg>
