<svg xmlns="http://www.w3.org/2000/svg" viewBox="0 0 16 16">
  <defs>
    <style>.canvas{fill: none; opacity: 0;}.light-defaultgrey{fill: #212121; opacity: 1;}.light-defaultgrey-10{fill: #212121; opacity: 0.1;}.cls-1{opacity:0.75;}</style>
  </defs>
  <title>IconLightASMFile</title>
  <g id="canvas" class="canvas">
    <path class="canvas" d="M16,16H0V0H16Z" />
  </g>
  <g id="level-1">
    <path class="light-defaultgrey" d="M2.049,11.1.214,16H1.1l.423-1.248H3.454L3.9,16h.891L2.965,11.1ZM1.737,14.09l.674-1.955a1.862,1.862,0,0,0,.068-.309h.014a2.7,2.7,0,0,0,.065.309l.68,1.955Zm6.378.066a1.134,1.134,0,0,1,.1.494,1.231,1.231,0,0,1-.151.629,1.2,1.2,0,0,1-.4.416,1.765,1.765,0,0,1-.587.233,3.226,3.226,0,0,1-.7.072,2.859,2.859,0,0,1-.3-.019c-.119-.012-.242-.031-.367-.054s-.244-.054-.355-.087a1.108,1.108,0,0,1-.271-.117v-.837a1.271,1.271,0,0,0,.269.184,2.029,2.029,0,0,0,.33.139,2.751,2.751,0,0,0,.347.087,1.931,1.931,0,0,0,.323.03,1.371,1.371,0,0,0,.763-.17.561.561,0,0,0,.251-.5.55.55,0,0,0-.083-.3.9.9,0,0,0-.234-.234,2.61,2.61,0,0,0-.354-.2q-.2-.1-.436-.2c-.167-.089-.321-.179-.465-.27a2.006,2.006,0,0,1-.374-.3,1.308,1.308,0,0,1-.25-.375,1.209,1.209,0,0,1-.09-.489,1.132,1.132,0,0,1,.154-.6,1.332,1.332,0,0,1,.411-.421,1.856,1.856,0,0,1,.58-.246,2.728,2.728,0,0,1,.663-.08,2.667,2.667,0,0,1,1.121.174v.8a1.8,1.8,0,0,0-1.073-.3,1.93,1.93,0,0,0-.362.035,1.053,1.053,0,0,0-.32.112.684.684,0,0,0-.23.2.49.49,0,0,0-.09.3A.567.567,0,0,0,6,12.541a.747.747,0,0,0,.2.219,1.942,1.942,0,0,0,.321.193c.126.063.273.13.439.2q.257.133.484.281a2.19,2.19,0,0,1,.4.325A1.4,1.4,0,0,1,8.115,14.156ZM14.264,11.1V16h-.807V12.828c0-.26.017-.578.049-.953h-.014a3.535,3.535,0,0,1-.134.461L11.9,16h-.561L9.869,12.363a3.427,3.427,0,0,1-.131-.488H9.725c.018.2.027.516.027.96V16H9V11.1h1.146l1.288,3.264a4.649,4.649,0,0,1,.191.561h.018q.126-.387.205-.574L13.16,11.1Z" />
    <g class="cls-1">
      <path class="light-defaultgrey-10" d="M14.5,4.5V10H3.5V1.5h8Z" />
      <path class="light-defaultgrey" d="M15,4.5V10H14V5H11V2H4v8H3V1.5L3.5,1h8l.354.146,3,3Z" />
    </g>
  </g>
</svg>
