<svg xmlns="http://www.w3.org/2000/svg" viewBox="0 0 16 16">
  <defs>
    <style>.canvas{fill: none; opacity: 0;}.light-defaultgrey-10{fill: #212121; opacity: 0.1;}.light-defaultgrey{fill: #212121; opacity: 1;}.light-red{fill: #c50b17; opacity: 1;}.white{fill: #ffffff; opacity: 1;}.cls-1{opacity:0.75;}</style>
  </defs>
  <title>IconLightAssemblyError</title>
  <g id="canvas">
    <path class="canvas" d="M16,16H0V0H16Z" />
  </g>
  <g id="level-1">
    <path class="light-defaultgrey-10" d="M7.255,13.5H1.5v-8h8V7.7a4.861,4.861,0,0,0-2.245,5.8Z" />
    <path class="light-defaultgrey" d="M7.424,14H1.5L1,13.5v-8L1.5,5h8l.5.5V7.424a4.967,4.967,0,0,0-1,.6V6H2v7H7.1A4.91,4.91,0,0,0,7.424,14Z" />
    <g class="cls-1">
      <path class="light-defaultgrey-10" d="M9.5,5h-6V3.5h2v-2h8V7.255a4.756,4.756,0,0,0-3.5.169V5.5Z" />
      <path class="light-defaultgrey" d="M11,4H4V5H3V3.5L3.5,3H5V1.5L5.5,1h8l.5.5V7.424A4.91,4.91,0,0,0,13,7.1V2H6V3h5.5l.5.5V7a5,5,0,0,0-1,.1Z" />
    </g>
    <path class="light-red" d="M12,8a4,4,0,1,0,4,4A4,4,0,0,0,12,8Z" />
    <path class="white" d="M12.707,12l1.147,1.146-.708.708L12,12.707l-1.146,1.147-.708-.708L11.293,12l-1.147-1.146.708-.708L12,11.293l1.146-1.147.708.708Z" />
  </g>
</svg>
