<svg xmlns="http://www.w3.org/2000/svg" viewBox="0 0 16 16">
  <defs>
    <style>.canvas{fill: none; opacity: 0;}.light-yellow{fill: #996f00; opacity: 1;}.white{fill: #ffffff; opacity: 1;}.light-defaultgrey-10{fill: #212121; opacity: 0.1;}.light-defaultgrey{fill: #212121; opacity: 1;}.cls-1{opacity:0.75;}</style>
  </defs>
  <title>IconLightAssemblyWarning</title>
  <g id="canvas">
    <path class="canvas" d="M16,16H0V0H16Z" />
    <path class="canvas" d="M16,16H0V0H16Z" />
    <path class="canvas" d="M16,16H0V0H16Z" />
  </g>
  <g id="level-1">
    <path class="light-yellow" d="M15.5,16h-8l-.439-.739,4-7.261h.878l4,7.261Z" />
    <path class="white" d="M12,13H11V10h1Zm.25,1.5a.75.75,0,1,1-.75-.75A.75.75,0,0,1,12.25,14.5Z" />
    <g class="cls-1">
      <path class="light-defaultgrey-10" d="M9.5,5h-6V3.5h2v-2h8V8.76L12.53,7H10.47L10,7.853V5.5Z" />
      <path class="light-defaultgrey" d="M11,4H4V5H3V3.5L3.5,3H5V1.5L5.5,1h8l.5.5v8l-.06.06L13,7.853V2H6V3h5.5l.5.5V7H11Z" />
    </g>
    <path class="light-defaultgrey-10" d="M6.889,13.5H1.5v-8h8V8.76Z" />
    <path class="light-defaultgrey" d="M6.613,14H1.5L1,13.5v-8L1.5,5h8l.5.5V7.853L9,9.668V6H2v7H7.164Z" />
  </g>
</svg>
