<svg xmlns="http://www.w3.org/2000/svg" viewBox="0 0 16 16">
  <defs>
    <style>.canvas{fill: none; opacity: 0;}.light-defaultgrey{fill: #212121; opacity: 1;}.light-blue{fill: #005dba; opacity: 1;}</style>
  </defs>
  <title>IconLightAssign</title>
  <g id="canvas" class="canvas">
    <path class="canvas" d="M16,0V16H0V0Z" />
  </g>
  <g id="level-1">
    <path class="light-defaultgrey" d="M5.468,10H4.576l-.44-1.273H2.208L1.784,10H.9L2.73,5h.916ZM3.92,8.051,3.239,6.056a2.554,2.554,0,0,1-.064-.313H3.161a2.01,2.01,0,0,1-.068.313l-.674,2ZM11.682,10V5h1.554a1.812,1.812,0,0,1,1.126.317.99.99,0,0,1,.415.827,1.2,1.2,0,0,1-.235.739,1.27,1.27,0,0,1-.653.446v.014a1.262,1.262,0,0,1,.808.382,1.174,1.174,0,0,1,.3.838,1.269,1.269,0,0,1-.5,1.04,1.933,1.933,0,0,1-1.25.4Zm.809-4.334V7.089h.527a1.007,1.007,0,0,0,.665-.2.719.719,0,0,0,.241-.577q0-.642-.842-.642Zm0,2.089V9.338h.7a1.041,1.041,0,0,0,.7-.215.741.741,0,0,0,.247-.591q0-.777-1.056-.777Z" />
    <path class="light-blue" d="M10.854,7.9H7.561l1.4,1.4L8.25,10,6,7.75V7.043l2.25-2.25.707.707-1.4,1.4h3.293Z" />
  </g>
</svg>
