<svg xmlns="http://www.w3.org/2000/svg" viewBox="0 0 16 16">
  <defs>
    <style>.canvas{fill: none; opacity: 0;}.light-lightblue-10{fill: #0077a0; opacity: 0.1;}.light-lightblue{fill: #0077a0; opacity: 1;}.light-defaultgrey{fill: #212121; opacity: 1;}.light-blue{fill: #005dba; opacity: 1;}</style>
  </defs>
  <title>IconLightAssignBuild</title>
  <g id="canvas" class="canvas">
    <path class="canvas" d="M16,16H0V0H16Z" />
  </g>
  <g id="level-1">
    <path class="light-lightblue-10" d="M12.239,7.882,10.268,9.854H8.732L6.761,7.882C5.988,8.155,5.5,8.54,5.5,8.97V14c0,.828,1.791,1.5,4,1.5s4-.672,4-1.5V8.97C13.5,8.54,13.012,8.155,12.239,7.882Z" />
    <path class="light-lightblue" d="M12.617,7.5l-.777.777c.754.229,1.16.525,1.16.689,0,.29-1.227,1-3.5,1S6,9.26,6,8.97c0-.164.406-.46,1.16-.689L6.383,7.5C5.553,7.832,5,8.32,5,8.97V14c0,1.313,2.264,2,4.5,2s4.5-.687,4.5-2V8.97C14,8.32,13.447,7.832,12.617,7.5ZM13,14c0,.29-1.227,1-3.5,1S6,14.29,6,14V10.261H6a7.863,7.863,0,0,0,3.5.709,7.863,7.863,0,0,0,3.5-.709h0Z" />
    <path class="light-defaultgrey" d="M10,3H9V2h1Zm2-2H11V2h1Zm0,2H11V4h1Zm2-1H13V3h1ZM8,1H7V2H8Z" />
    <path class="light-blue" d="M6.854,3.146v.708L4.6,6.1,3.9,5.4,5.293,4H0V3H5.293L3.9,1.6,4.6.9Z" />
    <path class="light-defaultgrey" d="M11.854,6.854l-2,2H9.146l-2-2,.708-.708L9,7.293V4h1V7.293l1.146-1.147Z" />
  </g>
</svg>
