<svg xmlns="http://www.w3.org/2000/svg" viewBox="0 0 16 16">
  <defs>
    <style>.canvas{fill: none; opacity: 0;}.light-defaultgrey-10{fill: #212121; opacity: 0.1;}.light-defaultgrey{fill: #212121; opacity: 1;}.light-teal-10{fill: #006758; opacity: 0.1;}.light-teal{fill: #006758; opacity: 1;}</style>
  </defs>
  <title>IconLightAssignTesterToTest</title>
  <g id="canvas">
    <path class="canvas" d="M16,16H0V0H16Z" />
  </g>
  <g id="level-1">
    <path class="light-defaultgrey-10" d="M7.25,9.25A2.25,2.25,0,1,1,5,7,2.25,2.25,0,0,1,7.25,9.25ZM8.5,15a3.5,3.5,0,0,0-7,0Z" />
    <path class="light-defaultgrey" d="M3.25,9.25A1.75,1.75,0,1,1,5,11,1.752,1.752,0,0,1,3.25,9.25ZM6.7,11.394a2.75,2.75,0,1,0-3.4,0A4,4,0,0,0,1,15H2a3,3,0,0,1,6,0H9A4,4,0,0,0,6.7,11.394Z" />
    <path class="light-defaultgrey-10" d="M7.794,6.773,8.5,5.667V1.5h3V5.667L12.351,7H7.981C7.922,6.922,7.859,6.847,7.794,6.773Z" />
    <path class="light-defaultgrey" d="M13.091,7.23,12.67,7h-.913l-.679-1.063L11,5.667V2H9V5.667l-.078.27L8.243,7H7.981a3.773,3.773,0,0,0-.553-.584L8,5.521V2H7V1h6V2H12V5.521Z" />
    <path class="light-teal-10" d="M12.76,10.5H8.524a3.588,3.588,0,0,0-.228-3H12.67L13.6,8.962A1,1,0,0,1,12.76,10.5Z" />
    <path class="light-teal" d="M14.076,10.221A1.48,1.48,0,0,1,12.761,11H8.3a3.689,3.689,0,0,0,.364-1h4.1a.5.5,0,0,0,.421-.77L12.4,8H8.52a3.755,3.755,0,0,0-.539-1H12.67l.422.23.933,1.462A1.484,1.484,0,0,1,14.076,10.221Z" />
  </g>
</svg>
