<svg xmlns="http://www.w3.org/2000/svg" viewBox="0 0 16 16">
  <defs>
    <style>.canvas{fill: none; opacity: 0;}.light-defaultgrey{fill: #212121; opacity: 1;}.light-defaultgrey-10{fill: #212121; opacity: 0.1;}.cls-1{opacity:0.75;}</style>
  </defs>
  <title>IconLightAssociationGroup</title>
  <g id="canvas">
    <path class="canvas" d="M16,16H0V0H16Z" />
  </g>
  <g id="level-1">
    <path class="light-defaultgrey" d="M4.4,5.9,5.1,6.6,3.707,8H7V9H3.707l1.4,1.4L4.4,11.1l-2.25-2.25V8.146Zm6.458,4.25v.708L8.6,13.1,7.9,12.4l1.4-1.4H6V10H9.293L7.9,8.6,8.6,7.9Z" />
    <path class="light-defaultgrey-10" d="M12.5,14.5H.5V4.5h12Z" />
    <path class="light-defaultgrey" d="M12.5,15H.5L0,14.5V4.5L.5,4h12l.5.5v10ZM1,14H12V5H1Z" />
    <g class="cls-1">
      <path class="light-defaultgrey-10" d="M15.5,1.5v10H13v-7L12.5,4h-9V1.5Z" />
      <path class="light-defaultgrey" d="M16,1.5v10l-.5.5H13V11h2V2H4V4H3V1.5L3.5,1h12Z" />
    </g>
  </g>
</svg>
