<svg xmlns="http://www.w3.org/2000/svg" viewBox="0 0 16 16">
  <defs>
    <style>.canvas{fill: none; opacity: 0;}.light-defaultgrey-10{fill: #212121; opacity: 0.1;}.light-defaultgrey{fill: #212121; opacity: 1;}</style>
  </defs>
  <title>Association</title>
  <g id="canvas">
    <path class="canvas" d="M16,16H0V0H16Z" />
  </g>
  <g id="level-1">
    <path class="light-defaultgrey-10" d="M14.5,13.5H1.5V2.5h13Z" />
    <path class="light-defaultgrey" d="M14.5,14H1.5L1,13.5V2.5L1.5,2h13l.5.5v11ZM2,13H14V3H2Z" />
    <path class="light-defaultgrey" d="M9.5,7H5.207L6.354,8.146l-.708.708-2-2V6.146l2-2,.708.708L5.207,6H9.5Zm-3,2h4.293L9.646,7.854l.708-.708,2,2v.708l-2,2-.708-.708L10.793,10H6.5Z" />
  </g>
</svg>
