<svg xmlns="http://www.w3.org/2000/svg" viewBox="0 0 16 16">
  <defs>
    <style>.canvas{fill: none; opacity: 0;}.light-defaultgrey-10{fill: #212121; opacity: 0.1;}.light-blue-10{fill: #005dba; opacity: 0.1;}.light-blue{fill: #005dba; opacity: 1;}.light-defaultgrey{fill: #212121; opacity: 1;}.light-red{fill: #c50b17; opacity: 1;}.white{fill: #ffffff; opacity: 1;}</style>
  </defs>
  <title>IconLightAsymmetricKeyError</title>
  <g id="canvas">
    <path class="canvas" d="M16,16H0V0H16Z" />
  </g>
  <g id="level-1">
    <path class="light-defaultgrey-10" d="M7.144,13.144,6.5,12.5H6.316a3,3,0,1,1,0-2h.938a4.582,4.582,0,0,0-.11,2.644Z" />
    <path class="light-blue-10" d="M7.5,5.5l-1,1-1-1-1,1-1-1-1,1-2-2,1-1H7.684A2.994,2.994,0,1,1,12.13,7.013C12.086,7.012,12.045,7,12,7a4.972,4.972,0,0,0-2.044.446A3,3,0,0,1,7.684,5.5Z" />
    <path class="light-blue" d="M12.25,4.5a.75.75,0,1,1-.75-.75A.75.75,0,0,1,12.25,4.5ZM9.328,7.787a4.739,4.739,0,0,1,3.511-.7A3.489,3.489,0,1,0,7.351,3H1.5l-.354.146-1,1v.708l2,2h.708L3.5,6.207l.646.647h.708L5.5,6.207l.646.647h.708l.622-.623A3.533,3.533,0,0,0,9.328,7.787ZM6.5,5.793l-.646-.647H5.146L4.5,5.793l-.646-.647H3.146L2.5,5.793,1.207,4.5l.5-.5H8.051a2.526,2.526,0,1,1,.067,1.218H7.075Z" />
    <path class="light-defaultgrey" d="M2.5,10.75a.75.75,0,1,1-.75.75A.75.75,0,0,1,2.5,10.75Zm4.864,3.1H7.146l-.622-.623A3.5,3.5,0,1,1,6.649,10h.773A4.968,4.968,0,0,0,7.1,11H5.949a2.526,2.526,0,1,0-.067,1.218H6.925l.108.108A4.97,4.97,0,0,0,7.364,13.854Z" />
    <path class="light-red" d="M13.088,8.144a4.014,4.014,0,0,0-4.944,4.944,3.945,3.945,0,0,0,2.768,2.768,4.014,4.014,0,0,0,4.944-4.944A3.945,3.945,0,0,0,13.088,8.144Z" />
    <path class="white" d="M12.707,12l1.147,1.146-.708.708L12,12.707l-1.146,1.147-.708-.708L11.293,12l-1.147-1.146.708-.708L12,11.293l1.146-1.147.708.708Z" />
  </g>
</svg>
