<svg xmlns="http://www.w3.org/2000/svg" viewBox="0 0 16 16">
  <defs>
    <style>.canvas{fill: none; opacity: 0;}.light-blue-10{fill: #005dba; opacity: 0.1;}.light-defaultgrey-10{fill: #212121; opacity: 0.1;}.light-defaultgrey{fill: #212121; opacity: 1;}.light-blue{fill: #005dba; opacity: 1;}</style>
  </defs>
  <title>IconLightAsymmetricKey</title>
  <g id="canvas">
    <path class="canvas" d="M16,16H0V0H16Z" />
  </g>
  <g id="level-1">
    <path class="light-blue-10" d="M11.5,1.5a3,3,0,1,1-2.816,4H8.5l-1,1-1-1-1,1-1-1-1,1-2-2,1-1H8.684A2.99,2.99,0,0,1,11.5,1.5Z" />
    <path class="light-defaultgrey-10" d="M7.316,10.5H13.5l1,1-2,2-1-1-1,1-1-1-1,1-1-1H7.316a3,3,0,1,1,0-2Z" />
    <path class="light-defaultgrey" d="M13.854,10.146,13.5,10H7.649a3.5,3.5,0,1,0-.125,3.231l.622.623h.708l.646-.647.646.647h.708l.646-.647.646.647h.708l2-2v-.708ZM12.5,12.793l-.646-.647h-.708l-.646.647-.646-.647H9.146l-.646.647-.575-.575H6.882A2.477,2.477,0,1,1,6.949,11h6.344l.5.5Zm-9-2.043a.75.75,0,1,1-.75.75A.75.75,0,0,1,3.5,10.75Z" />
    <path class="light-blue" d="M13.25,4.5a.75.75,0,1,1-.75-.75A.75.75,0,0,1,13.25,4.5ZM11.5,1A3.5,3.5,0,0,0,8.351,3H2.5l-.354.146-1,1v.708l2,2h.708L4.5,6.207l.646.647h.708L6.5,6.207l.646.647h.708l.622-.623A3.493,3.493,0,1,0,11.5,1Zm0,6A2.494,2.494,0,0,1,9.118,5.218H8.075L7.5,5.793l-.646-.647H6.146L5.5,5.793l-.646-.647H4.146L3.5,5.793,2.207,4.5l.5-.5H9.051A2.5,2.5,0,1,1,11.5,7Z" />
  </g>
</svg>
