<svg xmlns="http://www.w3.org/2000/svg" viewBox="0 0 16 16">
  <defs>
    <style>.canvas{fill: none; opacity: 0;}.light-defaultgrey-10{fill: #212121; opacity: 0.1;}.light-blue-10{fill: #005dba; opacity: 0.1;}.light-defaultgrey{fill: #212121; opacity: 1;}.light-blue{fill: #005dba; opacity: 1;}.light-yellow{fill: #996f00; opacity: 1;}.white{fill: #ffffff; opacity: 1;}</style>
  </defs>
  <title>IconLightAsymmetricKeyWarning</title>
  <g id="canvas">
    <path class="canvas" d="M16,16H0V0H16Z" />
  </g>
  <g id="level-1">
    <path class="light-defaultgrey-10" d="M6.316,12.5a3,3,0,1,1,0-2H8.542L7.106,13.106,6.5,12.5Z" />
    <path class="light-blue-10" d="M6.5,6.5l-1-1-1,1-1-1-1,1-2-2,1-1H7.684A2.994,2.994,0,1,1,12.155,7H10.47l-.263.477A2.989,2.989,0,0,1,7.684,5.5H7.5Z" />
    <path class="light-defaultgrey" d="M2.5,10.75a.75.75,0,1,1-.75.75A.75.75,0,0,1,2.5,10.75ZM3.5,15a3.5,3.5,0,1,1,3.149-5H8.817l-.551,1H5.949a2.526,2.526,0,1,0-.067,1.218H6.925l.432.432-.5.912-.331-.331A3.491,3.491,0,0,1,3.5,15Z" />
    <path class="light-blue" d="M12.25,4.5a.75.75,0,1,1-.75-.75A.75.75,0,0,1,12.25,4.5Zm-6.1,2.354L5.5,6.207l-.646.647H4.146L3.5,6.207l-.646.647H2.146l-2-2V4.146l1-1L1.5,3H7.351a3.49,3.49,0,1,1,5.308,4.233L12.53,7H10.5A2.5,2.5,0,1,0,8.051,4H1.707l-.5.5L2.5,5.793l.646-.647h.708l.646.647.646-.647h.708l.646.647.575-.575H8.118A2.494,2.494,0,0,0,10.5,7h-.03l-.524.951a3.507,3.507,0,0,1-2.47-1.72l-.622.623Z" />
    <path class="light-yellow" d="M15.5,16h-8l-.439-.739,4-7.261h.878l4,7.261Z" />
    <path class="white" d="M12,13H11V10h1Zm.25,1.5a.75.75,0,1,1-.75-.75A.75.75,0,0,1,12.25,14.5Z" />
  </g>
</svg>
