<svg xmlns="http://www.w3.org/2000/svg" viewBox="0 0 16 16">
  <defs>
    <style>.canvas{fill: none; opacity: 0;}.light-defaultgrey-10{fill: #212121; opacity: 0.1;}.light-defaultgrey{fill: #212121; opacity: 1;}.light-blue-10{fill: #005dba; opacity: 0.1;}.light-blue{fill: #005dba; opacity: 1;}.cls-1{opacity:0.75;}</style>
  </defs>
  <title>ATLASPComponent</title>
  <g id="canvas">
    <path class="canvas" d="M16,0V16H0V0Z" />
  </g>
  <g id="level-1">
    <g class="cls-1">
      <path class="light-defaultgrey-10" d="M15.5,3.5v9H11.867A5.985,5.985,0,0,0,5.5,3.2V.5h7Z" />
      <path class="light-defaultgrey" d="M16,3.5v9l-.5.5H11.46a6.1,6.1,0,0,0,.728-1H15V4H12V1H6V3.09a6.049,6.049,0,0,0-1,.26V.5L5.5,0h7l.354.146,3,3Z" />
    </g>
    <path class="light-blue-10" d="M2.62,10A4.5,4.5,0,1,1,11,11.021V10Z" />
    <path class="light-blue" d="M7,4A5.006,5.006,0,0,0,2,9a5.536,5.536,0,0,0,.148,1h.994A3.932,3.932,0,0,1,3,9a3.932,3.932,0,0,1,.142-1H4.574A7.6,7.6,0,0,0,4.5,9a7.6,7.6,0,0,0,.074,1H5.588A6.451,6.451,0,0,1,5.5,9a6.451,6.451,0,0,1,.088-1H8.412A6.451,6.451,0,0,1,8.5,9a6.451,6.451,0,0,1-.088,1H9.426A7.6,7.6,0,0,0,9.5,9a7.6,7.6,0,0,0-.074-1h1.432A3.932,3.932,0,0,1,11,9a3.932,3.932,0,0,1-.142,1H11v1.96a5.015,5.015,0,0,0,.414-.661c.008-.016.018-.032.026-.048A5.038,5.038,0,0,0,11.949,9.5,4.679,4.679,0,0,0,12,9,5.006,5.006,0,0,0,7,4ZM4.775,7H3.556A4.013,4.013,0,0,1,5.487,5.3,7.482,7.482,0,0,0,4.775,7ZM5.832,7A6.5,6.5,0,0,1,6.891,5.011C6.928,5.01,6.963,5,7,5s.072.01.11.011A6.547,6.547,0,0,1,8.168,7ZM9.225,7a7.482,7.482,0,0,0-.712-1.7A4.013,4.013,0,0,1,10.444,7Z" />
    <path class="light-defaultgrey" d="M4.787,16H3.9l-.441-1.248H1.526L1.1,16H.213l1.836-4.9h.916ZM3.238,14.09l-.68-1.955a2.533,2.533,0,0,1-.065-.309H2.479a1.914,1.914,0,0,1-.068.309L1.738,14.09ZM8.313,11.1H4.692v.689h1.4V16h.813V11.789H8.313Zm3.4,4.214h-1.9V11.1H9V16h2.714Z" />
  </g>
</svg>
