<svg xmlns="http://www.w3.org/2000/svg" viewBox="0 0 16 16">
  <defs>
    <style>.canvas{fill: none; opacity: 0;}.light-yellow-10{fill: #996f00; opacity: 0.1;}.light-yellow{fill: #996f00; opacity: 1;}.light-defaultgrey{fill: #212121; opacity: 1;}</style>
  </defs>
  <title>ATLEvent</title>
  <g id="canvas">
    <path class="canvas" d="M16,0V16H0V0Z" />
  </g>
  <g id="level-1">
    <path class="light-yellow-10" d="M7.5,8.5H4l4-7h5.387L9,6.5h4.5L10.036,9.964H6.646Z" />
    <path class="light-yellow" d="M4,9l-.434-.748,4-7L8,1h5.387l.376.83L10.1,6h3.4l.354.854-3.111,3.11H9.329L12.293,7H9l-.376-.83L12.283,2H8.29L4.862,8H7.5l.432.752L7.225,9.964H6.067L6.629,9Z" />
    <path class="light-defaultgrey" d="M4.787,16H3.9l-.441-1.248H1.526L1.1,16H.213l1.836-4.9h.916ZM3.238,14.09l-.68-1.955a2.533,2.533,0,0,1-.065-.309H2.479a1.914,1.914,0,0,1-.068.309L1.738,14.09ZM8.313,11.1H4.692v.689h1.4V16h.813V11.789H8.313Zm3.4,4.214h-1.9V11.1H9V16h2.714Z" />
  </g>
</svg>
