<svg xmlns="http://www.w3.org/2000/svg" viewBox="0 0 16 16">
  <defs>
    <style>.canvas{fill: none; opacity: 0;}.light-defaultgrey-10{fill: #212121; opacity: 0.1;}.light-defaultgrey{fill: #212121; opacity: 1;}</style>
  </defs>
  <title>ATLFile</title>
  <g id="canvas">
    <path class="canvas" d="M16,0V16H0V0Z" />
  </g>
  <g id="level-1">
    <path class="light-defaultgrey-10" d="M12.5,4.5v9H11V10H2.5V1.5h7Z" />
    <path class="light-defaultgrey" d="M13,4.5v9l-.5.5H11V13h1V5H9V2H3v8H2V1.5L2.5,1h7l.354.146,3,3Z" />
    <path class="light-defaultgrey" d="M4.787,16H3.9l-.441-1.248H1.526L1.1,16H.213l1.836-4.9h.916ZM3.238,14.09l-.68-1.955a2.533,2.533,0,0,1-.065-.309H2.479a1.914,1.914,0,0,1-.068.309L1.738,14.09ZM8.313,11.1H4.692v.689h1.4V16h.813V11.789H8.313Zm3.4,4.214h-1.9V11.1H9V16h2.714Z" />
  </g>
</svg>
