<svg xmlns="http://www.w3.org/2000/svg" viewBox="0 0 16 16">
  <defs>
    <style>.canvas{fill: none; opacity: 0;}.light-defaultgrey-10{fill: #212121; opacity: 0.1;}.light-defaultgrey{fill: #212121; opacity: 1;}.cls-1{opacity:0.75;}</style>
  </defs>
  <title>ATLProperty</title>
  <g id="canvas">
    <path class="canvas" d="M16,0V16H0V0Z" />
  </g>
  <g id="level-1">
    <g class="cls-1">
      <path class="light-defaultgrey-10" d="M7.9,7.406V7.4a3.9,3.9,0,0,0,.765.764c-.549.552-1.166,1.169-1.8,1.8H5.317C6.212,9.074,7.125,8.174,7.9,7.406Z" />
      <path class="light-defaultgrey" d="M6.865,9.964H8.281c.45-.45.88-.882,1.271-1.274a3.862,3.862,0,0,1-.464-.243,3.763,3.763,0,0,1-.425-.281C8.116,8.716,7.5,9.333,6.865,9.964Zm-1.548,0c.895-.89,1.808-1.79,2.59-2.555V7.4a3.719,3.719,0,0,1-.255-.389C7.643,7,7.635,7,7.63,6.985s-.026-.054-.04-.08a3.74,3.74,0,0,1-.2-.388C6.357,7.527,5.077,8.789,3.9,9.964Z" />
    </g>
    <path class="light-defaultgrey" d="M15.1,5a3.961,3.961,0,0,1-3.922,4H11.1a4.2,4.2,0,0,1-1.55-.3c-.16-.07-.31-.16-.46-.24s-.43-.28-.43-.28-.594-.556-.76-.77a7.267,7.267,0,0,1-.51-.88A4.047,4.047,0,0,1,7.1,5a3.961,3.961,0,0,1,3.922-4H11.1a4.179,4.179,0,0,1,1.44.24L9.66,4.2,11.9,6.44l2.96-2.88A4.179,4.179,0,0,1,15.1,5Z" />
    <path class="light-defaultgrey" d="M2.049,11.1.213,16H1.1l.426-1.248H3.459L3.9,16h.887L2.965,11.1Zm-.311,2.99.673-1.955a1.914,1.914,0,0,0,.068-.309h.014a2.533,2.533,0,0,0,.065.309l.68,1.955ZM4.692,11.1H8.313v.689H6.905V16H6.092V11.789h-1.4ZM11.714,16H9V11.1h.813v4.214h1.9Z" />
  </g>
</svg>
