<svg xmlns="http://www.w3.org/2000/svg" viewBox="0 0 16 16">
  <defs>
    <style>.canvas{fill: none; opacity: 0;}.light-blue-10{fill: #005dba; opacity: 0.1;}.light-blue{fill: #005dba; opacity: 1;}.light-defaultgrey{fill: #212121; opacity: 1;}</style>
  </defs>
  <title>ATLWebService</title>
  <g id="canvas">
    <path class="canvas" d="M16,0V16H0V0Z" />
  </g>
  <g id="level-1">
    <path class="light-blue-10" d="M15.5,6A4.5,4.5,0,0,1,11,10.5h0V9.964H8.869A4.5,4.5,0,1,1,15.5,6Z" />
    <path class="light-blue" d="M11,1A5,5,0,0,0,7.957,9.964h2.915A6.482,6.482,0,0,1,9.832,8h2.336a6.489,6.489,0,0,1-1.061,1.989c-.036,0-.07.011-.107.011v1A5,5,0,1,0,11,1Zm3.444,3H13.225a7.482,7.482,0,0,0-.712-1.7A4.013,4.013,0,0,1,14.444,4ZM10.891,2.011C10.928,2.01,10.963,2,11,2s.072.01.11.011A6.547,6.547,0,0,1,12.168,4H9.832A6.5,6.5,0,0,1,10.891,2.011ZM7.142,7A3.932,3.932,0,0,1,7,6a3.932,3.932,0,0,1,.142-1H8.574A7.6,7.6,0,0,0,8.5,6a7.6,7.6,0,0,0,.074,1Zm.414,1H8.775a7.482,7.482,0,0,0,.712,1.7A4.013,4.013,0,0,1,7.556,8ZM8.775,4H7.556A4.013,4.013,0,0,1,9.487,2.3,7.482,7.482,0,0,0,8.775,4Zm3.637,3H9.588A6.451,6.451,0,0,1,9.5,6a6.451,6.451,0,0,1,.088-1h2.824A6.451,6.451,0,0,1,12.5,6,6.451,6.451,0,0,1,12.412,7Zm.1,2.7A7.488,7.488,0,0,0,13.226,8h1.218a4.013,4.013,0,0,1-1.931,1.7ZM13.426,7A7.6,7.6,0,0,0,13.5,6a7.6,7.6,0,0,0-.074-1h1.432A3.932,3.932,0,0,1,15,6a3.932,3.932,0,0,1-.142,1Z" />
    <path class="light-blue" d="M5,3V4H2V3ZM4,6H0V7H4ZM2,10H5V9H2Z" />
    <path class="light-defaultgrey" d="M2.049,11.1.213,16H1.1l.426-1.248H3.459L3.9,16h.887L2.965,11.1Zm-.311,2.99.673-1.955a1.914,1.914,0,0,0,.068-.309h.014a2.533,2.533,0,0,0,.065.309l.68,1.955ZM4.692,11.1H8.313v.689H6.905V16H6.092V11.789h-1.4ZM11.714,16H9V11.1h.813v4.214h1.9Z" />
  </g>
</svg>
