<svg xmlns="http://www.w3.org/2000/svg" viewBox="0 0 16 16">
  <defs>
    <style>.canvas{fill: none; opacity: 0;}.light-blue{fill: #005dba; opacity: 1;}.light-defaultgrey{fill: #212121; opacity: 1;}.cls-1{opacity:0.75;}</style>
  </defs>
  <title>IconLightAttachDynamicTemplate</title>
  <g id="canvas">
    <path class="canvas" d="M16,16H0V0H16Z" />
  </g>
  <g id="level-1">
    <path class="light-blue" d="M15.854,3.146v.708l-2.5,2.5-.707-.708L14.293,4H8.708l1.646,1.646-.707.708-2.5-2.5V3.146l2.5-2.5.707.708L8.708,3h5.585L12.647,1.354l.707-.708Z" />
    <path class="light-defaultgrey" d="M7,11v1.5a3.5,3.5,0,0,1-7,0v-3a2.5,2.5,0,0,1,5,0v3a1.5,1.5,0,0,1-3,0V10H3v2.5a.5.5,0,0,0,1,0v-3a1.5,1.5,0,0,0-3,0v3a2.5,2.5,0,0,0,5,0V11Z" />
    <g class="cls-1">
      <path class="light-defaultgrey" d="M15,10H14v1h1Z" />
      <path class="light-defaultgrey" d="M15,8H14V9h1Z" />
      <path class="light-defaultgrey" d="M15,6,14,7h1Z" />
      <path class="light-defaultgrey" d="M15,13V12H14v1h1Z" />
      <path class="light-defaultgrey" d="M13,12H12v1h1Z" />
      <path class="light-defaultgrey" d="M11,12H10v1h1Z" />
      <path class="light-defaultgrey" d="M9,12H8v1H9Z" />
      <path class="light-defaultgrey" d="M3,2H2V3H3Z" />
      <path class="light-defaultgrey" d="M3,4H2V5H3Z" />
      <path class="light-defaultgrey" d="M7,2H6V3Z" />
      <path class="light-defaultgrey" d="M6,4V5H7Z" />
      <path class="light-defaultgrey" d="M5,2H4V3H5Z" />
      <path class="light-defaultgrey" d="M5,4H4V5H5Z" />
    </g>
  </g>
</svg>
