<svg xmlns="http://www.w3.org/2000/svg" viewBox="0 0 16 16">
  <defs>
    <style>.canvas{fill: none; opacity: 0;}.light-defaultgrey-10{fill: #212121; opacity: 0.1;}.light-defaultgrey{fill: #212121; opacity: 1;}.cls-1{opacity:0.75;}</style>
  </defs>
  <title>IconLightAttachDocument</title>
  <g id="canvas">
    <path class="canvas" d="M16,16H0V0H16Z" />
  </g>
  <g id="level-1">
    <g class="cls-1">
      <path class="light-defaultgrey-10" d="M13.5,4.5v9H7.862A4.181,4.181,0,0,0,8,12.5V10H6V9.5A3.482,3.482,0,0,0,3.5,6.17V1.5h7Z" />
      <path class="light-defaultgrey" d="M14,4.5v9l-.5.5H7.724a4.485,4.485,0,0,0,.225-1H13V5H10V2H4V6.351a3.44,3.44,0,0,0-1-.3V1.5L3.5,1h7l.354.146,3,3Z" />
    </g>
    <path class="light-defaultgrey" d="M7,11v1.5a3.5,3.5,0,0,1-7,0v-3a2.5,2.5,0,0,1,5,0v3a1.5,1.5,0,0,1-3,0V10H3v2.5a.5.5,0,0,0,1,0v-3a1.5,1.5,0,0,0-3,0v3a2.5,2.5,0,0,0,5,0V11Z" />
  </g>
</svg>
