<svg xmlns="http://www.w3.org/2000/svg" viewBox="0 0 16 16">
  <defs>
    <style>.canvas{fill: none; opacity: 0;}.light-defaultgrey-10{fill: #212121; opacity: 0.1;}.light-defaultgrey{fill: #212121; opacity: 1;}</style>
  </defs>
  <title>IconLightAttributeKeyDisabled</title>
  <g id="canvas">
    <path class="canvas" d="M16,16H0V0H16Z" />
  </g>
  <g id="level-1">
    <path class="light-defaultgrey-10" d="M5.5,7.5l2,0,0,2-2,0Zm-5,0,2,0,0,2-2,0Zm5-5,2,0,0,2-2,0Zm-5,0,2,0,0,2-2,0Zm5,10,2,0,0,2-2,0Zm-5,0,2,0,0,2-2,0Z" />
    <path class="light-defaultgrey" d="M7.5,10h-2L5,9.5l0-2L5.5,7l2,0,.5.5v2ZM6,9,7,9V8L6,8ZM2.5,10H.5L0,9.5l0-2L.5,7l2,0,.5.5v2ZM1,9,2,9V8L1,8ZM7.5,5h-2L5,4.5l0-2L5.5,2l2,0,.5.5v2ZM6,4,7,4V3L6,3ZM2.5,5H.5L0,4.5l0-2L.5,2l2,0,.5.5v2ZM1,4,2,4V3L1,3ZM7.5,15h-2L5,14.5l0-2,.5-.5,2,0,.5.5v2ZM6,14l1,0V13L6,13ZM2.5,15H.5L0,14.5l0-2L.5,12l2,0,.5.5v2ZM1,14l1,0V13L1,13Z" />
    <path class="light-defaultgrey-10" d="M9.495,4.5a3,3,0,1,1,4,2.811V7.5l1,1-1,1,1,1-1,1,1,1-2,2-1-1L11.5,7.318A2.993,2.993,0,0,1,9.495,4.5Z" />
    <path class="light-defaultgrey" d="M9,4.5a3.379,3.379,0,0,0,2,3.151l.007,5.851.147.353,1,1h.707l2-2v-.707l-.647-.645.645-.648v-.707L14.209,9.5l.646-.648V8.143l-.624-.622A3.488,3.488,0,0,0,12.491,1,3.416,3.416,0,0,0,9,4.5Zm.995,0a2.5,2.5,0,1,1,3.221,2.379l0,1.042.576.574-.646.648v.707l.647.645-.645.648v.707l.647.645-1.291,1.3-.5-.5L12,6.95A2.5,2.5,0,0,1,9.995,4.5ZM12.5,2.75a.75.75,0,1,1-.749.751A.75.75,0,0,1,12.5,2.75Z" />
  </g>
</svg>
