<svg xmlns="http://www.w3.org/2000/svg" viewBox="0 0 16 16">
  <defs>
    <style>.canvas{fill: none; opacity: 0;}.light-blue-10{fill: #005dba; opacity: 0.1;}.light-blue{fill: #005dba; opacity: 1;}.light-defaultgrey-10{fill: #212121; opacity: 0.1;}.light-defaultgrey{fill: #212121; opacity: 1;}</style>
  </defs>
  <title>AutoSizeColumn</title>
  <g id="canvas">
    <path class="canvas" d="M16,16H0V0H16Z" />
  </g>
  <g id="level-1">
    <path class="light-blue-10" d="M5.5,2.5l-3,2V.5Z" />
    <path class="light-blue" d="M2,.5v4l.777.416,3-2V2.084l-3-2Zm1,.935L4.6,2.5,3,3.565ZM0,0H1V5H0ZM8,0V5H7V0Z" />
    <path class="light-defaultgrey-10" d="M9.5,2.5h5v12h-5Z" />
    <path class="light-defaultgrey" d="M14.5,1h-5L9,1.5v13l.5.5h5l.5-.5V1.5ZM14,6H10V3h4Zm0,4H10V7h4Zm0,4H10V11h4Z" />
  </g>
</svg>
