<svg xmlns="http://www.w3.org/2000/svg" viewBox="0 0 16 16">
  <defs>
    <style>.canvas{fill: none; opacity: 0;}.light-blue-10{fill: #005dba; opacity: 0.1;}.light-blue{fill: #005dba; opacity: 1;}.light-defaultgrey{fill: #212121; opacity: 1;}.light-defaultgrey-10{fill: #212121; opacity: 0.1;}.cls-1{opacity:0.75;}</style>
  </defs>
  <title>IconLightAutoScrollToCurrentFrame</title>
  <g id="canvas">
    <path class="canvas" d="M16,16H0V0H16Z" />
  </g>
  <g id="level-1">
    <path class="light-blue-10" d="M5.5,3.5l-3,2v-4Z" />
    <path class="light-blue" d="M2.777,5.916,2,5.5v-4l.777-.416,3,2v.832ZM3,2.435v2.13L4.6,3.5ZM1,1V6H0V1ZM8,1V6H7V1Z" />
    <path class="light-defaultgrey" d="M8.5,16h-6L2,15.5v-6L2.5,9h6l.5.5v6ZM3,15H8V10H3Z" />
    <path class="light-defaultgrey" d="M15.5,7h-4L11,6.5v-4l.5-.5h4l.5.5v4ZM12,6h3V3H12Z" />
    <path class="light-defaultgrey-10" d="M8.5,15.5h-6v-6h6Z" />
    <path class="light-defaultgrey-10" d="M15.5,6.5h-4v-4h4Z" />
    <g class="cls-1">
      <path class="light-defaultgrey" d="M13.5,13H9V12h4V7h1v5.5Z" />
    </g>
  </g>
</svg>
