<svg xmlns="http://www.w3.org/2000/svg" viewBox="0 0 16 16">
  <defs>
    <style>.canvas{fill: none; opacity: 0;}.light-blue-10{fill: #005dba; opacity: 0.1;}.light-blue{fill: #005dba; opacity: 1;}.light-defaultgrey{fill: #212121; opacity: 1;}.light-defaultgrey-10{fill: #212121; opacity: 0.1;}.cls-1{opacity:0.75;}</style>
  </defs>
  <title>IconLightAutosWindow</title>
  <g id="canvas">
    <path class="canvas" d="M16,16H0V0H16Z" />
  </g>
  <g id="level-1">
    <path class="light-blue-10" d="M5.5,7.958l2,2-5,2.778-2-2Z" />
    <g class="cls-1">
      <path class="light-blue-10" d="M7.5,10.53v2.039l-5,2.778-2-2v-1.9l1.646,1.647.6.084Z" />
      <path class="light-blue" d="M8,9.958v2.611l-.257.438-5,2.777-.6-.084-2-2L0,13.347V10.735L.257,10.3l-.111.791L1,11.942v1.2l1,1v-1.2l.146.147.6.084L3,13.03V14.5l4-2.222V10.808l.743-.412L7.854,9.6Z" />
    </g>
    <path class="light-blue" d="M2.743,13.173l-.6-.084-2-2L.257,10.3l5-2.777.6.083,2,2-.111.792ZM1.322,10.851l1.265,1.264L6.678,9.843,5.413,8.578Z" />
    <path class="light-defaultgrey" d="M13,4H7V3h6ZM7,6h3V5H7ZM7,7.337,7.663,8H13V7H7ZM14.5,1h-9L5,1.5V6.519l.065-.036L6,6.615V2h8V13H8.907l-.441.749L8.014,14H14.5l.5-.5V1.5Z" />
    <path class="light-defaultgrey-10" d="M5.5,1.5h9v12H8.613L9,12.842V9.759l-.3-.721L6.324,6.661,5.5,6.545Z" />
  </g>
</svg>
