<svg xmlns="http://www.w3.org/2000/svg" viewBox="0 0 16 16">
  <defs>
    <style>.canvas{fill: none; opacity: 0;}.light-defaultgrey{fill: #212121; opacity: 1;}.light-defaultgrey-10{fill: #212121; opacity: 0.1;}.light-blue-10{fill: #005dba; opacity: 0.1;}.light-blue{fill: #005dba; opacity: 1;}.cls-1{opacity:0.75;}</style>
  </defs>
  <title>IconLightAutoMergeAll</title>
  <g id="canvas" class="canvas">
    <path class="canvas" d="M16,16H0V0H16Z" />
  </g>
  <g id="level-1">
    <g class="cls-1">
      <path class="light-defaultgrey" d="M12.5,10v1A4.2,4.2,0,0,1,9,9.438V12.5H8v-6H9A3.411,3.411,0,0,0,12.5,10Z" />
    </g>
    <path class="light-defaultgrey-10" d="M10,5A1.5,1.5,0,1,1,8.5,3.5,1.5,1.5,0,0,1,10,5Zm0,9a1.5,1.5,0,1,1-1.5-1.5A1.5,1.5,0,0,1,10,14Zm5.5-3.5A1.5,1.5,0,1,1,14,9,1.5,1.5,0,0,1,15.5,10.5Z" />
    <path class="light-defaultgrey" d="M8.5,3a2,2,0,1,0,2,2A2,2,0,0,0,8.5,3Zm0,3a1,1,0,1,1,1-1A1,1,0,0,1,8.5,6Zm0,6a2,2,0,1,0,2,2A2,2,0,0,0,8.5,12Zm0,3a1,1,0,1,1,1-1A1,1,0,0,1,8.5,15ZM14,8.5a2,2,0,1,0,2,2A2,2,0,0,0,14,8.5Zm0,3a1,1,0,1,1,1-1A1,1,0,0,1,14,11.5Z" />
    <path class="light-blue-10" d="M5.5,2.5l-3,2V.5Z" />
    <path class="light-blue" d="M7,2.4V0H8V2.042A3.014,3.014,0,0,0,7,2.4Z" />
    <path class="light-blue" d="M5.777,2.084l-3-2L2,.5v4l.777.416,3-2ZM3,3.565V1.435L4.6,2.5Z" />
    <path class="light-blue" d="M0,0H1V5H0Z" />
  </g>
</svg>
