<svg xmlns="http://www.w3.org/2000/svg" viewBox="0 0 16 16">
  <defs>
    <style>.canvas{fill: none; opacity: 0;}.light-yellow{fill: #996f00; opacity: 1;}</style>
  </defs>
  <title>IconLightAvatarTwoWaveOn</title>
  <g id="canvas">
    <path class="canvas" d="M16,16H0V0H16Z" />
  </g>
  <g id="level-1">
    <path class="light-yellow" d="M11,1H5A4,4,0,0,0,1,5v6a4,4,0,0,0,4,4h6a4,4,0,0,0,4-4V5A4,4,0,0,0,11,1Zm.442,9.628a3.248,3.248,0,0,1-3.79-.055,2.223,2.223,0,0,0-1.309-.44,1.959,1.959,0,0,0-1.111.343l-.581.395L4,9.733l.567-.386a3.188,3.188,0,0,1,1.8-.558,3.361,3.361,0,0,1,1.985.66,2.078,2.078,0,0,0,2.419.039l.579-.443L12,10.182Zm0-4a3.248,3.248,0,0,1-3.79-.055,2.223,2.223,0,0,0-1.309-.44,1.959,1.959,0,0,0-1.111.343l-.581.4L4,5.733l.567-.386a3.188,3.188,0,0,1,1.8-.558,3.361,3.361,0,0,1,1.985.66,2.078,2.078,0,0,0,2.419.039l.579-.443L12,6.182Z" />
  </g>
</svg>
