<svg xmlns="http://www.w3.org/2000/svg" viewBox="0 0 16 16">
  <defs>
    <style>.canvas{fill: none; opacity: 0;}.light-red{fill: #c50b17; opacity: 1;}</style>
  </defs>
  <title>IconLightAvatarHeartOn</title>
  <g id="canvas">
    <path class="canvas" d="M16,16H0V0H16Z" />
  </g>
  <g id="level-1">
    <path class="light-red" d="M11,1H5A4,4,0,0,0,1,5v6a4,4,0,0,0,4,4h6a4,4,0,0,0,4-4V5A4,4,0,0,0,11,1Zm-.527,7.263L8,10.757,5.482,8.218A1.734,1.734,0,0,1,6.725,5.285c.521,0,.986.534,1.275.9.289-.367.754-.9,1.275-.9a1.733,1.733,0,0,1,1.2,2.978Z" />
  </g>
</svg>
