<svg xmlns="http://www.w3.org/2000/svg" viewBox="0 0 16 16">
  <defs>
    <style>.canvas{fill: none; opacity: 0;}.light-yellow-10{fill: #996f00; opacity: 0.1;}.light-yellow{fill: #996f00; opacity: 1;}</style>
  </defs>
  <title>IconLightAvatarTwoWaveOff</title>
  <g id="canvas">
    <path class="canvas" d="M16,16H0V0H16Z" />
  </g>
  <g id="level-1">
    <path class="light-yellow-10" d="M14.5,5.5v5a4,4,0,0,1-4,4h-5a4,4,0,0,1-4-4v-5a4,4,0,0,1,4-4h5A4,4,0,0,1,14.5,5.5Z" />
    <path class="light-yellow" d="M10.5,1h-5A4.505,4.505,0,0,0,1,5.5v5A4.505,4.505,0,0,0,5.5,15h5A4.505,4.505,0,0,0,15,10.5v-5A4.505,4.505,0,0,0,10.5,1ZM14,10.5A3.5,3.5,0,0,1,10.5,14h-5A3.5,3.5,0,0,1,2,10.5v-5A3.5,3.5,0,0,1,5.5,2h5A3.5,3.5,0,0,1,14,5.5Z" />
    <path class="light-yellow" d="M11.5,7.136l-.438.351a2.852,2.852,0,0,1-3.32-.053,1.987,1.987,0,0,0-2.311-.09l-.438.3L4.5,6.783l.438-.3a2.854,2.854,0,0,1,3.32.09,1.984,1.984,0,0,0,2.311.037l.438-.335Z" />
    <path class="light-yellow" d="M11.5,10.146l-.438.352a2.853,2.853,0,0,1-3.32-.054,1.989,1.989,0,0,0-2.311-.09l-.438.3L4.5,9.794l.438-.3a2.852,2.852,0,0,1,3.32.09,1.986,1.986,0,0,0,2.311.037l.438-.336Z" />
  </g>
</svg>
