<svg xmlns="http://www.w3.org/2000/svg" viewBox="0 0 16 16">
  <defs>
    <style>.canvas{fill: none; opacity: 0;}.light-green-10{fill: #1f801f; opacity: 0.1;}.light-green{fill: #1f801f; opacity: 1;}</style>
  </defs>
  <title>IconLightAvatarOneDotOff</title>
  <g id="canvas">
    <path class="canvas" d="M16,16H0V0H16Z" />
  </g>
  <g id="level-1">
    <path class="light-green-10" d="M14.5,5.5v5a4,4,0,0,1-4,4h-5a4,4,0,0,1-4-4v-5a4,4,0,0,1,4-4h5A4,4,0,0,1,14.5,5.5Z" />
    <path class="light-green" d="M10.5,1h-5A4.505,4.505,0,0,0,1,5.5v5A4.505,4.505,0,0,0,5.5,15h5A4.505,4.505,0,0,0,15,10.5v-5A4.505,4.505,0,0,0,10.5,1ZM14,10.5A3.5,3.5,0,0,1,10.5,14h-5A3.5,3.5,0,0,1,2,10.5v-5A3.5,3.5,0,0,1,5.5,2h5A3.5,3.5,0,0,1,14,5.5Z" />
    <path class="light-green" d="M9.5,8A1.5,1.5,0,1,1,8,6.5,1.5,1.5,0,0,1,9.5,8Z" />
  </g>
</svg>
