<svg xmlns="http://www.w3.org/2000/svg" viewBox="0 0 16 16">
  <defs>
    <style>.canvas{fill: none; opacity: 0;}.light-lightblue-10{fill: #0077a0; opacity: 0.1;}.light-lightblue{fill: #0077a0; opacity: 1;}</style>
  </defs>
  <title>IconLightAvatarInfinityOff</title>
  <g id="canvas">
    <path class="canvas" d="M16,16H0V0H16Z" />
  </g>
  <g id="level-1">
    <path class="light-lightblue-10" d="M14.5,5.5v5a4,4,0,0,1-4,4h-5a4,4,0,0,1-4-4v-5a4,4,0,0,1,4-4h5A4,4,0,0,1,14.5,5.5Z" />
    <path class="light-lightblue" d="M10.5,1h-5A4.505,4.505,0,0,0,1,5.5v5A4.505,4.505,0,0,0,5.5,15h5A4.505,4.505,0,0,0,15,10.5v-5A4.505,4.505,0,0,0,10.5,1ZM14,10.5A3.5,3.5,0,0,1,10.5,14h-5A3.5,3.5,0,0,1,2,10.5v-5A3.5,3.5,0,0,1,5.5,2h5A3.5,3.5,0,0,1,14,5.5Z" />
    <path class="light-lightblue" d="M11.459,6.631a1.965,1.965,0,0,0-2.719,0L8,7.371l-.74-.74a1.965,1.965,0,0,0-2.719,0A1.923,1.923,0,1,0,7.26,9.35L8,8.61l.74.74a1.923,1.923,0,1,0,2.719-2.719ZM7.376,7.991l-.738.737a1.07,1.07,0,0,1-1.475,0,1.048,1.048,0,0,1,0-1.48,1.036,1.036,0,0,1,.738-.3,1.02,1.02,0,0,1,.737.309Zm3.761,0a1.034,1.034,0,0,1-.3.737,1.069,1.069,0,0,1-1.474,0l-.739-.737.739-.738a1.071,1.071,0,0,1,1.474,0A1.036,1.036,0,0,1,11.137,7.991Z" />
  </g>
</svg>
