<svg xmlns="http://www.w3.org/2000/svg" viewBox="0 0 16 16">
  <defs>
    <style>.canvas{fill: none; opacity: 0;}.light-defaultgrey-10{fill: #212121; opacity: 0.1;}.light-defaultgrey{fill: #212121; opacity: 1;}.cls-1{opacity:0.5;}.cls-2{opacity:0.75;}</style>
  </defs>
  <title>IconLightBacklog</title>
  <g id="canvas" class="canvas">
    <path class="canvas" d="M16,16H0V0H16Z" />
  </g>
  <g id="level-1">
    <g class="cls-1">
      <path class="light-defaultgrey-10" d="M4.5,11.5v2h-3v-2Z" />
      <path class="light-defaultgrey-10" d="M9.5,7.5v2h-3v-2Z" />
      <path class="light-defaultgrey-10" d="M14.5,3.5v2h-3v-2Z" />
      <path class="light-defaultgrey" d="M4.5,11h-3l-.5.5v2l.5.5h3l.5-.5v-2ZM4,13H2V12H4Z" />
      <path class="light-defaultgrey" d="M9.5,7h-3L6,7.5v2l.5.5h3l.5-.5v-2ZM9,9H7V8H9Z" />
      <path class="light-defaultgrey" d="M14.5,3h-3l-.5.5v2l.5.5h3l.5-.5v-2ZM14,5H12V4h2Z" />
    </g>
    <g class="cls-2">
      <path class="light-defaultgrey-10" d="M4.5,7.5v2h-3v-2Z" />
      <path class="light-defaultgrey-10" d="M9.5,3.5v2h-3v-2Z" />
      <path class="light-defaultgrey" d="M4.5,7h-3L1,7.5v2l.5.5h3L5,9.5v-2ZM4,9H2V8H4Z" />
      <path class="light-defaultgrey" d="M9.5,3h-3L6,3.5v2l.5.5h3l.5-.5v-2ZM9,5H7V4H9Z" />
    </g>
    <path class="light-defaultgrey-10" d="M4.5,3.5v2h-3v-2Z" />
    <path class="light-defaultgrey" d="M4.5,3h-3L1,3.5v2l.5.5h3L5,5.5v-2ZM4,5H2V4H4Z" />
  </g>
</svg>
