<svg xmlns="http://www.w3.org/2000/svg" viewBox="0 0 16 16">
  <defs>
    <style>.canvas{fill: none; opacity: 0;}.light-defaultgrey{fill: #212121; opacity: 1;}.light-lightblue-10{fill: #0077a0; opacity: 0.1;}.light-lightblue{fill: #0077a0; opacity: 1;}.light-defaultgrey-10{fill: #212121; opacity: 0.1;}.cls-1{opacity:0.75;}</style>
  </defs>
  <title>IconLightBarChart</title>
  <g id="canvas">
    <path class="canvas" d="M16,16H0V0H16Z" />
  </g>
  <g id="level-1">
    <g class="cls-1">
      <path class="light-defaultgrey" d="M15,14v1H1.5L1,14.5V1H2V14Z" />
    </g>
    <path class="light-lightblue-10" d="M9.5,6.5v2h-6v-2Z" />
    <path class="light-lightblue" d="M9.5,6h-6L3,6.5v2l.5.5h6l.5-.5v-2ZM9,8H4V7H9Z" />
    <path class="light-defaultgrey-10" d="M11.5,2.5v2h-8v-2Z" />
    <path class="light-defaultgrey-10" d="M13.5,10.5v2H3.5v-2Z" />
    <path class="light-defaultgrey" d="M13.5,10H3.5l-.5.5v2l.5.5h10l.5-.5v-2ZM13,12H4V11h9Z" />
    <path class="light-defaultgrey" d="M11.5,2h-8L3,2.5v2l.5.5h8l.5-.5v-2ZM11,4H4V3h7Z" />
  </g>
</svg>
