<svg xmlns="http://www.w3.org/2000/svg" viewBox="0 0 16 16">
  <defs>
    <style>.canvas{fill: none; opacity: 0;}.light-defaultgrey-10{fill: #212121; opacity: 0.1;}.light-defaultgrey{fill: #212121; opacity: 1;}.light-blue{fill: #005dba; opacity: 1;}.cls-1{opacity:0.75;}</style>
  </defs>
  <title>IconLightBatchCheckIn</title>
  <g id="canvas">
    <path class="canvas" d="M16,16H0V0H16Z" />
  </g>
  <g id="level-1">
    <g class="cls-1">
      <path class="light-defaultgrey-10" d="M13.5,8.5v4H12v-2l-.5-.5h-8V8.5Z" />
      <path class="light-defaultgrey" d="M14,8.5v4l-.5.5H12V12h1V9H4v1H3V8.5L3.5,8h10Z" />
    </g>
    <path class="light-defaultgrey-10" d="M11.5,14.5H1.5v-4h10Z" />
    <path class="light-defaultgrey" d="M11.5,15H1.5L1,14.5v-4l.5-.5h10l.5.5v4ZM2,14h9V11H2Z" />
    <path class="light-blue" d="M8,2.707,6.854,3.854l-.708-.708,2-2h.708l2,2-.708.708L9,2.707V7H8Z" />
  </g>
</svg>
