<svg xmlns="http://www.w3.org/2000/svg" viewBox="0 0 16 16">
  <defs>
    <style>.canvas{fill: none; opacity: 0;}.light-defaultgrey-10{fill: #212121; opacity: 0.1;}.light-defaultgrey{fill: #212121; opacity: 1;}.light-green{fill: #1f801f; opacity: 1;}.cls-1{opacity:0.75;}</style>
  </defs>
  <title>Battery</title>
  <g id="canvas">
    <path class="canvas" d="M16,16H0V0H16Z" />
  </g>
  <g id="level-1">
    <g class="cls-1">
      <path class="light-defaultgrey-10" d="M11.5,2.5v12h-7V2.5h2v-1h3v1Z" />
      <path class="light-defaultgrey" d="M11.5,15h-7L4,14.5V2.5L4.5,2H6V1.5L6.5,1h3l.5.5V2h1.5l.5.5v12ZM5,14h6V3H9.5L9,2.5V2H7v.5L6.5,3H5Z" />
    </g>
    <path class="light-green" d="M10,5H6V4h4Zm0,1H6V7h4Zm0,2H6V9h4Zm0,2H6v1h4Zm0,2H6v1h4Z" />
  </g>
</svg>
