<svg xmlns="http://www.w3.org/2000/svg" viewBox="0 0 16 16">
  <defs>
    <style>.canvas{fill: none; opacity: 0;}.light-defaultgrey-10{fill: #212121; opacity: 0.1;}.light-blue-10{fill: #005dba; opacity: 0.1;}.light-blue{fill: #005dba; opacity: 1;}.light-lightblue-10{fill: #0077a0; opacity: 0.1;}.light-lightblue{fill: #0077a0; opacity: 1;}.light-defaultgrey{fill: #212121; opacity: 1;}</style>
  </defs>
  <title>IconLightBDCModelTemplate</title>
  <g id="canvas">
    <path class="canvas" d="M16,16H0V0H16Z" />
  </g>
  <g id="level-1">
    <path class="light-defaultgrey-10" d="M15.5,2.5v11H8V7.086L6.914,6H2.5V2.5Z" />
    <path class="light-blue-10" d="M.5,15.5v-8h6v8Z" />
    <path class="light-blue" d="M5,12H4V11H5ZM5,9H4v1H5ZM3,9H2v1H3Zm0,2H2v1H3ZM7,7.5V16H0V7.5L.5,7h6ZM6,8H1v7H3V13H4v2H6Z" />
    <path class="light-lightblue-10" d="M13.5,8.5v2c0,.552-1.119,1-2.5,1s-2.5-.448-2.5-1v-2c0-.552,1.119-1,2.5-1S13.5,7.948,13.5,8.5Z" />
    <path class="light-lightblue" d="M11,7C9.555,7,8,7.47,8,8.5v2C8,11.53,9.555,12,11,12s3-.47,3-1.5v-2C14,7.47,12.445,7,11,7Zm0,1a3.052,3.052,0,0,1,1.987.5A3.052,3.052,0,0,1,11,9a3.35,3.35,0,0,1-2-.47V8.522A2.862,2.862,0,0,1,11,8Zm0,3a3.026,3.026,0,0,1-2-.5V9.651A5.41,5.41,0,0,0,11,10a5.419,5.419,0,0,0,2-.349l0,.823A2.833,2.833,0,0,1,11,11Z" />
    <path class="light-defaultgrey" d="M15.5,2H2.5L2,2.5V6H15v7H8v1h7.5l.5-.5V2.5ZM15,5H3V3H15Z" />
  </g>
</svg>
