<svg xmlns="http://www.w3.org/2000/svg" viewBox="0 0 16 16">
  <defs>
    <style>.canvas{fill: none; opacity: 0;}.light-blue-10{fill: #005dba; opacity: 0.1;}.light-blue{fill: #005dba; opacity: 1;}.light-lightblue-10{fill: #0077a0; opacity: 0.1;}.light-lightblue{fill: #0077a0; opacity: 1;}</style>
  </defs>
  <title>IconLightBDCModelResource</title>
  <g id="canvas">
    <path class="canvas" d="M16,16H0V0H16Z" />
  </g>
  <g id="level-1">
    <path class="light-blue-10" d="M.5,15.5v-8h6v8Z" />
    <path class="light-blue" d="M5,12H4V11H5ZM5,9H4v1H5ZM3,9H2v1H3Zm0,2H2v1H3ZM7,7.5V16H0V7.5L.5,7h6ZM6,8H1v7H3V13H4v2H6Z" />
    <path class="light-lightblue-10" d="M13.5,3v8c0,.828-1.791,1.5-4,1.5A10.092,10.092,0,0,1,8,12.389v-5.3L6.914,6H5.5V3c0-.828,1.791-1.5,4-1.5S13.5,2.172,13.5,3Z" />
    <path class="light-lightblue" d="M5,2.969V6H6V4.3A7.9,7.9,0,0,0,9.5,5,7.913,7.913,0,0,0,13,4.3V11c0,.29-1.227,1-3.5,1A9.3,9.3,0,0,1,8,11.885v1A10.392,10.392,0,0,0,9.5,13c2.236,0,4.5-.687,4.5-2V2.969C14,.344,5,.344,5,2.969ZM13,3c0,.29-1.227,1-3.5,1S6,3.29,6,3V2.969c0-.29,1.227-1,3.5-1s3.5.71,3.5,1Z" />
  </g>
</svg>
