<svg xmlns="http://www.w3.org/2000/svg" viewBox="0 0 16 16">
  <defs>
    <style>.canvas{fill: none; opacity: 0;}.light-defaultgrey-10{fill: #212121; opacity: 0.1;}.light-defaultgrey{fill: #212121; opacity: 1;}.cls-1{opacity:0.75;}</style>
  </defs>
  <title>IconLightBevelJoint</title>
  <g id="Canvas">
    <path class="canvas" d="M16,16H0V0H16Z" />
  </g>
  <g id="level-1">
    <path class="light-defaultgrey-10" d="M5.5,3.5h8v8h-3v3h-8v-8Z" />
    <path class="light-defaultgrey" d="M10.5,15h-8L2,14.5v-8l.146-.354,3-3L5.5,3h8l.5.5v8l-.5.5H11v2.5ZM3,14h7V11.5l.5-.5H13V4H5.707L3,6.707Z" />
    <g class="cls-1">
      <path class="light-defaultgrey" d="M13,8H8V7h5ZM7,9H6v5H7Z" />
    </g>
    <path class="light-defaultgrey-10" d="M7.5,8.5h-2v-2h2Z" />
    <path class="light-defaultgrey" d="M5,9V6H8V9ZM6,8H7V7H6Z" />
  </g>
</svg>
