<svg xmlns="http://www.w3.org/2000/svg" viewBox="0 0 16 16">
  <defs>
    <style>.canvas{fill: none; opacity: 0;}.light-defaultgrey{fill: #212121; opacity: 1;}.light-defaultgrey-10{fill: #212121; opacity: 0.1;}.light-lightblue-10{fill: #0077a0; opacity: 0.1;}.light-lightblue{fill: #0077a0; opacity: 1;}.cls-1{opacity:0.75;}</style>
  </defs>
  <title>IconLightBindingNavigator</title>
  <g id="canvas">
    <path class="canvas" d="M16,16H0V0H16Z" />
  </g>
  <g id="level-1">
    <g class="cls-1">
      <path class="light-defaultgrey" d="M8.75,13l-1.5,1V12Zm-6.5,0,1.5-1v2Z" />
    </g>
    <path class="light-defaultgrey-10" d="M10.5,10.5v5H.5v-5Z" />
    <path class="light-lightblue-10" d="M13.5,2.97V11c0,.472-.592.887-1.5,1.162V10.086L10.914,9H5.5V2.97c0-.828,1.791-1.5,4-1.5S13.5,2.142,13.5,2.97Z" />
    <path class="light-lightblue" d="M5,2.97V9H6V4.261a7.863,7.863,0,0,0,3.5.709A7.863,7.863,0,0,0,13,4.261V11c0,.153-.348.42-1,.64v1.043c1.158-.321,2-.885,2-1.683V2.97C14,.343,5,.343,5,2.97Zm4.5,1c-2.273,0-3.5-.71-3.5-1s1.227-1,3.5-1,3.5.71,3.5,1S11.773,3.97,9.5,3.97Z" />
    <path class="light-defaultgrey" d="M10.5,10H.5l-.5.5v5l.5.5h10l.5-.5v-5ZM5,15H1V11H5Zm5,0H6V11h4Z" />
  </g>
</svg>
