<svg xmlns="http://www.w3.org/2000/svg" viewBox="0 0 16 16">
  <defs>
    <style>.canvas{fill: none; opacity: 0;}.light-defaultgrey-10{fill: #212121; opacity: 0.1;}.light-defaultgrey{fill: #212121; opacity: 1;}.light-lightblue-10{fill: #0077a0; opacity: 0.1;}.light-lightblue{fill: #0077a0; opacity: 1;}.cls-1{opacity:0.75;}</style>
  </defs>
  <title>IconLightBindingSource</title>
  <g id="canvas" class="canvas">
    <path class="canvas" d="M16,16H0V0H16Z" />
  </g>
  <g id="level-1">
    <g class="cls-1">
      <path class="light-defaultgrey-10" d="M13.5,5v6.5H9V9.813C9,8.64,8.061,7.764,6.5,7.322V2.5H11v2l.5.5Z" />
      <path class="light-defaultgrey" d="M6,7.19V2.5L6.5,2H11V3H7V7.477A6.4,6.4,0,0,0,6,7.19Z" />
      <path class="light-defaultgrey" d="M14,5v6.5l-.5.5H9V11h4V5Z" />
    </g>
    <path class="light-defaultgrey" d="M14.5,5h-3L11,4.5v-3l.5-.5h3l.5.5v3Z" />
    <path class="light-lightblue-10" d="M4,8.5C2.314,8.5.5,9,.5,10.086v3.828C.5,15,2.314,15.5,4,15.5s3.5-.5,3.5-1.586V10.086C7.5,9,5.686,8.5,4,8.5Z" />
    <path class="light-lightblue" d="M4,8C2.073,8,0,8.567,0,9.813v4.375C0,15.433,2.073,16,4,16s4-.567,4-1.812V9.813C8,8.567,5.927,8,4,8ZM4,9c1.969,0,3,.6,3,.813s-1.031.812-3,.812-3-.6-3-.812S2.031,9,4,9Zm0,6c-1.969,0-3-.6-3-.812V11.051a7.2,7.2,0,0,0,3,.574,7.2,7.2,0,0,0,3-.574v3.137C7,14.4,5.969,15,4,15Z" />
  </g>
</svg>
