<svg xmlns="http://www.w3.org/2000/svg" viewBox="0 0 16 16">
  <defs>
    <style>.canvas{fill: none; opacity: 0;}.light-defaultgrey{fill: #212121; opacity: 1;}.light-defaultgrey-10{fill: #212121; opacity: 0.1;}.cls-1{opacity:0.75;}</style>
  </defs>
  <title>IconLightBlankApplication</title>
  <g id="canvas" class="canvas">
    <path class="canvas" d="M16,16H0V0H16Z" />
  </g>
  <g id="level-1">
    <g class="cls-1">
      <path class="light-defaultgrey" d="M14.5,2H1.5L1,2.5V5.586l.96.96L2,6.529V6H14v7H8.414l1,1H14.5l.5-.5V2.5ZM14,5H2V3H14ZM2.379,13l1,1H1.5L1,13.5V11.621l1,1V13Z" />
      <path class="light-defaultgrey-10" d="M1,11.621,3.379,14H3L2,13,1,12ZM2,2.5V6.586L8.414,13H14.5V2.5Z" />
    </g>
    <path class="light-defaultgrey" d="M5,14l-.354-.146-3.5-3.5L1,10V7l7,7Z" />
  </g>
</svg>
