<svg xmlns="http://www.w3.org/2000/svg" viewBox="0 0 16 16">
  <defs>
    <style>.canvas{fill: none; opacity: 0;}.light-defaultgrey{fill: #212121; opacity: 1;}.light-defaultgrey-10{fill: #212121; opacity: 0.1;}.cls-1{opacity:0.75;}</style>
  </defs>
  <title>IconLightBlankWebSite</title>
  <g id="canvas" class="canvas">
    <path class="canvas" d="M16,16H0V0H16Z" />
  </g>
  <g id="level-1">
    <path class="light-defaultgrey" d="M7,15l-.354-.146-5.5-5.5L1,9V6l9,9Z" />
    <g class="cls-1">
      <path class="light-defaultgrey-10" d="M10.422,14.008l-8.43-8.43a6.486,6.486,0,1,1,8.43,8.43Z" />
      <path class="light-defaultgrey" d="M15,8A6.988,6.988,0,0,0,1.607,5.193L2.414,6H4.7a10.514,10.514,0,0,0-.2,2c0,.03,0,.06,0,.091L5.6,9.181A8.6,8.6,0,0,1,5.5,8a9.487,9.487,0,0,1,.222-2h4.556A9.487,9.487,0,0,1,10.5,8a9.487,9.487,0,0,1-.222,2H6.414l1,1h2.591a9.4,9.4,0,0,1-.818,1.773l.727.727A10.392,10.392,0,0,0,11.053,11h2.135a6.011,6.011,0,0,1-3.153,2.621l.772.772A6.994,6.994,0,0,0,15,8ZM4.946,5H2.812a6.023,6.023,0,0,1,3.4-2.727A10.517,10.517,0,0,0,4.946,5ZM6,5A9.481,9.481,0,0,1,7.628,2.019C7.752,2.011,7.874,2,8,2s.249.011.373.019A9.479,9.479,0,0,1,10.005,5ZM9.789,2.273A6.021,6.021,0,0,1,13.188,5H11.053A10.484,10.484,0,0,0,9.789,2.273ZM11.3,10a10.2,10.2,0,0,0,0-4H13.65a5.889,5.889,0,0,1,0,4Z" />
    </g>
  </g>
</svg>
