<svg xmlns="http://www.w3.org/2000/svg" viewBox="0 0 16 16">
  <defs>
    <style>.canvas{fill: none; opacity: 0;}.light-red{fill: #c50b17; opacity: 1;}.white{fill: #ffffff; opacity: 1;}.light-defaultgrey-10{fill: #212121; opacity: 0.1;}.light-defaultgrey{fill: #212121; opacity: 1;}</style>
  </defs>
  <title>IconLightBlockError</title>
  <g id="canvas">
    <path class="canvas" d="M16,16H0V0H16Z" />
  </g>
  <g id="level-1">
    <path class="light-red" d="M12,8a4,4,0,1,0,4,4A4,4,0,0,0,12,8Z" />
    <path class="white" d="M12.707,12l1.147,1.146-.708.708L12,12.707l-1.146,1.147-.708-.708L11.293,12l-1.147-1.146.708-.708L12,11.293l1.146-1.147.708.708Z" />
    <path class="light-defaultgrey-10" d="M11.5,1.5V7.051A4.915,4.915,0,0,0,9.86,7.5H7.5V9.86a4.915,4.915,0,0,0-.449,1.64H1.5v-6h4v-4Z" />
    <path class="light-defaultgrey" d="M11.5,1h-6L5,1.5V5H1.5L1,5.5v6l.5.5H7A4.952,4.952,0,0,1,8,9.031V8H9.031A4.952,4.952,0,0,1,12,7V1.5ZM7,11H2V6H7Zm4-4H8V5.5L7.5,5H6V2h5Z" />
  </g>
</svg>
