<svg xmlns="http://www.w3.org/2000/svg" viewBox="0 0 16 16">
  <defs>
    <style>.canvas{fill: none; opacity: 0;}.light-defaultgrey{fill: #212121; opacity: 1;}</style>
  </defs>
  <title>IconLightBold</title>
  <g id="canvas" class="canvas">
    <path class="canvas" d="M16,16H0V0H16Z" />
  </g>
  <g id="level-1">
    <path class="light-defaultgrey" d="M5.006,12.8V3h3.11a3.677,3.677,0,0,1,2.252.622,1.931,1.931,0,0,1,.831,1.62,2.315,2.315,0,0,1-.471,1.449,2.536,2.536,0,0,1-1.306.875v.028a2.552,2.552,0,0,1,1.616.748,2.279,2.279,0,0,1,.606,1.644,2.468,2.468,0,0,1-.992,2.037,3.923,3.923,0,0,1-2.5.78Zm1.62-8.5V7.1H7.679a2.028,2.028,0,0,0,1.33-.4A1.392,1.392,0,0,0,9.49,5.563q0-1.257-1.681-1.257Zm0,4.094v3.1H8.014a2.119,2.119,0,0,0,1.405-.42,1.441,1.441,0,0,0,.495-1.159Q9.914,8.4,7.8,8.4Z" />
  </g>
</svg>
