<svg xmlns="http://www.w3.org/2000/svg" viewBox="0 0 16 16">
  <defs>
    <style>.canvas{fill: none; opacity: 0;}.light-defaultgrey-10{fill: #212121; opacity: 0.1;}.light-defaultgrey{fill: #212121; opacity: 1;}.light-blue-10{fill: #005dba; opacity: 0.1;}.light-blue{fill: #005dba; opacity: 1;}</style>
  </defs>
  <title>BorderElement</title>
  <g id="canvas" class="canvas">
    <path class="canvas" d="M16,16H0V0H16Z" />
  </g>
  <g id="level-1">
    <path class="light-defaultgrey-10" d="M12.5,4.5v7h-1v1h-7v-1h-1v-7h1v-1h7v1Z" />
    <path class="light-defaultgrey" d="M4.5,3V4h7V3Zm0,9v1h7V12ZM3,4.5v7H4v-7Zm9,0v7h1v-7Z" />
    <path class="light-blue-10" d="M2.5,2.5h2v2h-2Zm9,0v2h2v-2Zm-9,11h2v-2h-2Zm9,0h2v-2h-2Z" />
    <path class="light-blue" d="M2.5,2,2,2.5v2l.5.5h2L5,4.5v-2L4.5,2ZM4,4H3V3H4Zm9.5-2h-2l-.5.5v2l.5.5h2l.5-.5v-2ZM13,4H12V3h1ZM2.5,11l-.5.5v2l.5.5h2l.5-.5v-2L4.5,11ZM4,13H3V12H4Zm7.5-2-.5.5v2l.5.5h2l.5-.5v-2l-.5-.5ZM13,13H12V12h1Z" />
  </g>
</svg>
