<svg xmlns="http://www.w3.org/2000/svg" viewBox="0 0 16 16">
  <defs>
    <style>.canvas{fill: none; opacity: 0;}.light-defaultgrey-10{fill: #212121; opacity: 0.1;}.light-defaultgrey{fill: #212121; opacity: 1;}.light-blue{fill: #005dba; opacity: 1;}.light-yellow{fill: #996f00; opacity: 1;}</style>
  </defs>
  <title>IconLightBoundImageColumn</title>
  <g id="canvas" class="canvas">
    <path class="canvas" d="M16,16H0V0H16Z" />
  </g>
  <g id="level-1">
    <path class="light-defaultgrey-10" d="M12.5,1.5v12H9v-6L8.5,7h-1V1.5Z" />
    <path class="light-defaultgrey" d="M12.5,0h-5L7,.5V7H8V6h4V9H9v1h3v3H9v1h3.5l.5-.5V.5ZM12,5H8V2h4Z" />
    <path class="light-defaultgrey-10" d="M7.5,8.5v7H.5v-7Z" />
    <path class="light-defaultgrey" d="M7.5,8H.5L0,8.5v7l.5.5h7l.5-.5v-7ZM7,15H1V9H7Z" />
    <path class="light-blue" d="M5.3,13,7,14.36V15H6.164l-1.189-.887-.751.334-.478,0L1.986,13.03,1,13.754V12.513L1.7,12l.608.012,1.75,1.4L4.776,13Z" />
    <path class="light-yellow" d="M4.648,11a1,1,0,1,1,1,1A1,1,0,0,1,4.648,11Z" />
  </g>
</svg>
