<svg xmlns="http://www.w3.org/2000/svg" viewBox="0 0 16 16">
  <defs>
    <style>.canvas{fill: none; opacity: 0;}.light-defaultgrey-10{fill: #212121; opacity: 0.1;}.light-defaultgrey{fill: #212121; opacity: 1;}.light-lightblue{fill: #0077a0; opacity: 1;}.light-lightblue-10{fill: #0077a0; opacity: 0.1;}.cls-1{opacity:0.75;}</style>
  </defs>
  <title>IconLightBoundCheckBoxFieldColumn</title>
  <g id="canvas" class="canvas">
    <path class="canvas" d="M16,16H0V0H16Z" />
  </g>
  <g id="level-1">
    <g class="cls-1">
      <path class="light-defaultgrey-10" d="M15.5,1.5v12H12v-6L11.5,7h-1V1.5Z" />
      <path class="light-defaultgrey" d="M15.5,0h-5L10,.5V7h1V6h4V9H12v1h3v3H12v1h3.5l.5-.5V.5ZM15,5H11V2h4Z" />
    </g>
    <path class="light-defaultgrey-10" d="M10.5,8.5v7h-7v-7Z" />
    <path class="light-lightblue" d="M2,11.64c-.652-.22-1-.487-1-.64V4.261a7.863,7.863,0,0,0,3.5.709A7.863,7.863,0,0,0,8,4.261V7H9V2.97c0-2.627-9-2.627-9,0V11c0,.8.842,1.362,2,1.683ZM4.5,1.97c2.273,0,3.5.71,3.5,1s-1.227,1-3.5,1S1,3.26,1,2.97,2.227,1.97,4.5,1.97Z" />
    <path class="light-lightblue-10" d="M2,12.162C1.092,11.888.5,11.472.5,11V2.97c0-.828,1.791-1.5,4-1.5s4,.672,4,1.5V7H3.086L2,8.086Z" />
    <path class="light-defaultgrey" d="M10.5,16h-7L3,15.5v-7L3.5,8h7l.5.5v7ZM4,15h6V9H4Zm2.646-1.409H5.939L4.879,12.53l.707-.707.707.707,2.121-2.121.707.707Z" />
  </g>
</svg>
