<svg xmlns="http://www.w3.org/2000/svg" viewBox="0 0 16 16">
  <defs>
    <style>.canvas{fill: none; opacity: 0;}.light-defaultgrey{fill: #212121; opacity: 1;}.light-lightblue-10{fill: #0077a0; opacity: 0.1;}.light-lightblue{fill: #0077a0; opacity: 1;}.cls-1{opacity:0.75;}</style>
  </defs>
  <title>IconLightBoxPlotChart</title>
  <g id="canvas">
    <path class="canvas" d="M16,16H0V0H16Z" />
  </g>
  <g id="level-1">
    <g class="cls-1">
      <path class="light-defaultgrey" d="M15,14v1H1.5L1,14.5V1H2V14Z" />
    </g>
    <path class="light-lightblue-10" d="M5.5,9.5h-2v-4h2Z" />
    <path class="light-lightblue" d="M6,3V2H3V3H4V5H3.5L3,5.5v4l.5.5H4v2H3v1H6V12H5V10h.5L6,9.5v-4L5.5,5H5V3ZM5,9H4V6H5Z" />
    <path class="light-lightblue-10" d="M13.505,9.5h-2v-4h2Z" />
    <path class="light-lightblue" d="M13.505,10l.5-.5v-4l-.5-.5H13V3h1V2H11V3h1V5h-.495l-.5.5v4l.5.5H12v2H11v1h3V12H13V10Zm-.5-4V9h-1V6Z" />
    <path class="light-lightblue-10" d="M9.5,10.5h-2v-5h2Z" />
    <path class="light-lightblue" d="M10,3V2H7V3H8V5H7.5L7,5.5v5l.5.5H8v1H7v1h3V12H9V11h.5l.5-.5v-5L9.5,5H9V3ZM9,10H8V6H9Z" />
  </g>
</svg>
