<svg xmlns="http://www.w3.org/2000/svg" viewBox="0 0 16 16">
  <defs>
    <style>.canvas{fill: none; opacity: 0;}.light-defaultgrey{fill: #212121; opacity: 1;}.light-defaultgrey-10{fill: #212121; opacity: 0.1;}.cls-1{opacity:0.75;}</style>
  </defs>
  <title>IconLightBranchFork</title>
  <g id="canvas" class="canvas">
    <path class="canvas" d="M16,16H0V0H16Z" />
  </g>
  <g id="level-1">
    <g class="cls-1">
      <path class="light-defaultgrey" d="M12,5.552V6.5A2.5,2.5,0,0,1,9.5,9H9a1,1,0,0,0-1,1v1.552H7V10A1,1,0,0,0,6,9H5.5A2.5,2.5,0,0,1,3,6.5V5.552H4V6.5A1.5,1.5,0,0,0,5.5,8H6a1.988,1.988,0,0,1,1.5.691A1.988,1.988,0,0,1,9,8h.5A1.5,1.5,0,0,0,11,6.5V5.552Z" />
    </g>
    <path class="light-defaultgrey-10" d="M5.466,3.552a2,2,0,1,1-2-2A2,2,0,0,1,5.466,3.552Zm8,0a2,2,0,1,1-2-2A2,2,0,0,1,13.466,3.552Zm-4,10a2,2,0,1,1-2-2A2,2,0,0,1,9.466,13.552Z" />
    <path class="light-defaultgrey" d="M3.5,1A2.5,2.5,0,1,0,6,3.5,2.5,2.5,0,0,0,3.5,1Zm0,4A1.5,1.5,0,1,1,5,3.5,1.5,1.5,0,0,1,3.5,5Zm8-4A2.5,2.5,0,1,0,14,3.5,2.5,2.5,0,0,0,11.5,1Zm0,4A1.5,1.5,0,1,1,13,3.5,1.5,1.5,0,0,1,11.5,5Zm-4,6A2.5,2.5,0,1,0,10,13.5,2.5,2.5,0,0,0,7.5,11Zm0,4A1.5,1.5,0,1,1,9,13.5,1.5,1.5,0,0,1,7.5,15Z" />
  </g>
</svg>
