<svg xmlns="http://www.w3.org/2000/svg" viewBox="0 0 16 16">
  <defs>
    <style>.canvas{fill: none; opacity: 0;}.light-defaultgrey{fill: #212121; opacity: 1;}.light-defaultgrey-10{fill: #212121; opacity: 0.1;}.light-green{fill: #1f801f; opacity: 1;}.white{fill: #ffffff; opacity: 1;}.cls-1{opacity:0.75;}</style>
  </defs>
  <title>BranchUploaded</title>
  <g id="canvas" class="canvas">
    <path class="canvas" d="M16,16H0V0H16Z" />
  </g>
  <g id="level-1">
    <g class="cls-1">
      <path class="light-defaultgrey" d="M6,9.78V5.95a2.525,2.525,0,0,1-1,0v5.1A2.734,2.734,0,0,1,5.5,11a2.308,2.308,0,0,1,.37.03.847.847,0,0,1,.17.04.845.845,0,0,1,.17.05c0-.01.01-.01.01-.02a1.891,1.891,0,0,1,.52-.63,4.784,4.784,0,0,1,.73-1.42A2.927,2.927,0,0,0,6,9.78Z" />
    </g>
    <path class="light-defaultgrey-10" d="M5.5,1.5a2,2,0,1,0,2,2A2.006,2.006,0,0,0,5.5,1.5ZM6.91,13.99a4.889,4.889,0,0,1-.39-1.58c-.01-.13-.02-.27-.02-.41a1.62,1.62,0,0,1,.01-.22A1.941,1.941,0,0,0,5.5,11.5a2,2,0,1,0,1.7,3.05A4.249,4.249,0,0,1,6.91,13.99ZM12.5,3.5a1.994,1.994,0,0,0-1.29,3.52A1.368,1.368,0,0,1,11.5,7a5.133,5.133,0,0,1,1.8.33,2,2,0,0,0-.8-3.83Z" />
    <path class="light-defaultgrey" d="M5.5,1A2.5,2.5,0,0,0,5,5.95a2.525,2.525,0,0,0,1,0A2.5,2.5,0,0,0,5.5,1Zm0,4A1.5,1.5,0,1,1,7,3.5,1.5,1.5,0,0,1,5.5,5Zm1.7,9.55a4.249,4.249,0,0,1-.29-.56A1.472,1.472,0,0,1,5.5,15a1.5,1.5,0,0,1,0-3,1.427,1.427,0,0,1,1.02.41c-.01-.13-.02-.27-.02-.41a1.62,1.62,0,0,1,.01-.22,3.287,3.287,0,0,1,.05-.54,2.025,2.025,0,0,0-.34-.14.566.566,0,0,0-.18-.03.847.847,0,0,0-.17-.04A2.308,2.308,0,0,0,5.5,11a2.734,2.734,0,0,0-.5.05A2.5,2.5,0,1,0,7.5,15,3.52,3.52,0,0,1,7.2,14.55ZM12.5,3A2.5,2.5,0,0,0,10,5.5a2.474,2.474,0,0,0,.57,1.59,3.39,3.39,0,0,1,.64-.07A1.368,1.368,0,0,1,11.5,7a5.133,5.133,0,0,1,1.8.33,5.689,5.689,0,0,1,.56.26A2.466,2.466,0,0,0,15,5.5,2.5,2.5,0,0,0,12.5,3Zm0,4A1.5,1.5,0,1,1,14,5.5,1.5,1.5,0,0,1,12.5,7Z" />
    <path class="light-green" d="M15.5,12a4,4,0,1,1-4-4A4,4,0,0,1,15.5,12Z" />
    <path class="white" d="M13.6,11.9,12.9,12.6l-.9-.9V14H11V11.707l-.9.9L9.4,11.9l1.75-1.75h.708Z" />
  </g>
</svg>
