<svg xmlns="http://www.w3.org/2000/svg" viewBox="0 0 16 16">
  <defs>
    <style>.canvas{fill: none; opacity: 0;}.light-defaultgrey{fill: #212121; opacity: 1;}.light-defaultgrey-10{fill: #212121; opacity: 0.1;}.cls-1{opacity:0.75;}</style>
  </defs>
  <title>IconLightBranchCousin</title>
  <g id="canvas" class="canvas">
    <path class="canvas" d="M16,16H0V0H16Z" />
  </g>
  <g id="level-1">
    <g class="cls-1">
      <path class="light-defaultgrey" d="M8,6H1.5L1,5.5V1H2V5H8Z" />
      <path class="light-defaultgrey" d="M8,13H1.5L1,12.5V8H2v4H8Z" />
      <path class="light-defaultgrey-10" d="M14.5,14.5h-6v-4h6Z" />
      <path class="light-defaultgrey" d="M14.5,15h-6L8,14.5v-4l.5-.5h6l.5.5v4ZM9,14h5V11H9Z" />
    </g>
    <path class="light-defaultgrey-10" d="M14.5,7.5h-6v-4h6Z" />
    <path class="light-defaultgrey" d="M14.5,8h-6L8,7.5v-4L8.5,3h6l.5.5v4ZM9,7h5V4H9Z" />
  </g>
</svg>
