<svg xmlns="http://www.w3.org/2000/svg" viewBox="0 0 16 16">
  <defs>
    <style>.canvas{fill: none; opacity: 0;}.light-defaultgrey{fill: #212121; opacity: 1;}.light-defaultgrey-10{fill: #212121; opacity: 0.1;}.light-blue{fill: #005dba; opacity: 1;}.white{fill: #ffffff; opacity: 1;}.cls-1{opacity:0.75;}</style>
  </defs>
  <title>BranchRemote</title>
  <g id="canvas" class="canvas">
    <path class="canvas" d="M16,16H0V0H16Z" />
  </g>
  <g id="level-1">
    <g class="cls-1">
      <path class="light-defaultgrey" d="M7.424,10H6a2,2,0,0,0-1.785,1.117A2.455,2.455,0,0,0,3.5,11a2.5,2.5,0,0,0-.5.051v-5.1a2.476,2.476,0,0,0,1,0V9.78A2.981,2.981,0,0,1,6,9H8.026A4.967,4.967,0,0,0,7.424,10Z" />
    </g>
    <path class="light-defaultgrey-10" d="M5.5,3.5a2,2,0,1,1-2-2A2,2,0,0,1,5.5,3.5Zm0,10a2,2,0,1,1-2-2A2,2,0,0,1,5.5,13.5Zm3-8a2,2,0,1,1,3.284,1.522,4.966,4.966,0,0,0-1.79.4A1.994,1.994,0,0,1,8.5,5.5Z" />
    <path class="light-defaultgrey" d="M3.5,1A2.5,2.5,0,1,0,6,3.5,2.5,2.5,0,0,0,3.5,1Zm0,4A1.5,1.5,0,1,1,5,3.5,1.5,1.5,0,0,1,3.5,5Zm0,6A2.5,2.5,0,1,0,6,13.5,2.5,2.5,0,0,0,3.5,11Zm0,4A1.5,1.5,0,1,1,5,13.5,1.5,1.5,0,0,1,3.5,15ZM9.415,7.742A4.952,4.952,0,0,1,12,7c.154,0,.3.032.45.045A2.473,2.473,0,0,0,13,5.5,2.5,2.5,0,1,0,9.415,7.742ZM10.5,4A1.5,1.5,0,1,1,9,5.5,1.5,1.5,0,0,1,10.5,4Z" />
    <path class="light-blue" d="M12,8a4,4,0,1,0,4,4A4,4,0,0,0,12,8Z" />
    <path class="white" d="M11.854,13.354l-1.5,1.5-.708-.708L10.793,13,9.646,11.854l.708-.708,1.5,1.5Zm2.5-1.208-.708.708-1.5-1.5v-.708l1.5-1.5.708.708L13.207,11Z" />
  </g>
</svg>
