<svg xmlns="http://www.w3.org/2000/svg" viewBox="0 0 16 16">
  <defs>
    <style>.canvas{fill: none; opacity: 0;}.light-red{fill: #c50b17; opacity: 1;}.light-red-10{fill: #c50b17; opacity: 0.1;}.white{fill: #ffffff; opacity: 1;}.cls-1{opacity:0.75;}</style>
  </defs>
  <title>IconLightBreakpointError</title>
  <g id="canvas" class="canvas">
    <path class="canvas" d="M16,16H0V0H16Z" />
  </g>
  <g id="level-1">
    <g class="cls-1">
      <path class="light-red" d="M8.025,15H8a7,7,0,1,1,7-7v.025a4.936,4.936,0,0,0-1.029-.617A6,6,0,1,0,7.408,13.97,4.936,4.936,0,0,0,8.025,15Z" />
    </g>
    <path class="light-red-10" d="M7.687,14.484a6.5,6.5,0,1,1,6.8-6.8A4.943,4.943,0,0,0,12,7a5.006,5.006,0,0,0-5,5A4.943,4.943,0,0,0,7.687,14.484Z" />
    <path class="light-red" d="M12,8a4,4,0,1,0,4,4A4,4,0,0,0,12,8Z" />
    <path class="white" d="M12.707,12l1.147,1.146-.708.708L12,12.707l-1.146,1.147-.708-.708L11.293,12l-1.147-1.146.708-.708L12,11.293l1.146-1.147.708.708Z" />
  </g>
</svg>
