<svg xmlns="http://www.w3.org/2000/svg" viewBox="0 0 16 16">
  <defs>
    <style>.canvas{fill: none; opacity: 0;}.light-red-10{fill: #c50b17; opacity: 0.1;}.light-red{fill: #c50b17; opacity: 1;}.white{fill: #ffffff; opacity: 1;}.cls-1{opacity:0.75;}</style>
  </defs>
  <title>BreakpointTemporaryError</title>
  <g id="canvas">
    <path class="canvas" d="M16,16H0V0H16Z" />
  </g>
  <g id="level-1">
    <g class="cls-1">
      <path class="light-red-10" d="M8,1.5a6.494,6.494,0,0,0-.34,12.98,4.065,4.065,0,0,1-.26-.51,4.788,4.788,0,0,1-.31-1.06A4.6,4.6,0,0,1,7,12a.57.57,0,0,1,.01-.13A4.922,4.922,0,0,1,8,9,5.262,5.262,0,0,1,9,8a4.922,4.922,0,0,1,2.87-.99A.57.57,0,0,1,12,7a4.6,4.6,0,0,1,.91.09,4.788,4.788,0,0,1,1.06.31,4.065,4.065,0,0,1,.51.26A6.484,6.484,0,0,0,8,1.5Z" />
      <path class="light-red" d="M8,1A7,7,0,0,0,8,15a4.653,4.653,0,0,1-.34-.52,4.065,4.065,0,0,1-.26-.51A6,6,0,1,1,13.97,7.4a4.065,4.065,0,0,1,.51.26A4.653,4.653,0,0,1,15,8,7,7,0,0,0,8,1Z" />
    </g>
    <path class="light-red" d="M8,8V5H7V8.5l.5.5H8A5.262,5.262,0,0,1,9,8ZM8,3a5,5,0,0,0-.91,9.91A4.6,4.6,0,0,1,7,12a.57.57,0,0,1,.01-.13,4,4,0,1,1,4.86-4.86A.57.57,0,0,1,12,7a4.6,4.6,0,0,1,.91.09A4.985,4.985,0,0,0,8,3ZM8,5H7V8.5l.5.5H8A5.262,5.262,0,0,1,9,8H8ZM8,8V5H7V8.5l.5.5H8A5.262,5.262,0,0,1,9,8Z" />
    <path class="light-red" d="M12,8a4,4,0,1,0,4,4A4,4,0,0,0,12,8Z" />
    <path class="white" d="M12.707,12l1.147,1.146-.708.708L12,12.707l-1.146,1.147-.708-.708L11.293,12l-1.147-1.146.708-.708L12,11.293l1.146-1.147.708.708Z" />
  </g>
</svg>
