<svg xmlns="http://www.w3.org/2000/svg" viewBox="0 0 16 16">
  <defs>
    <style>.canvas{fill: none; opacity: 0;}.light-red-10{fill: #c50b17; opacity: 0.1;}.light-red{fill: #c50b17; opacity: 1;}.light-yellow{fill: #996f00; opacity: 1;}.white{fill: #ffffff; opacity: 1;}.cls-1{opacity:0.75;}</style>
  </defs>
  <title>BreakpointTemporaryWarning</title>
  <g id="canvas">
    <path class="canvas" d="M16,16H0V0H16Z" />
  </g>
  <g id="level-1">
    <g class="cls-1">
      <path class="light-red-10" d="M8,1.5A6.5,6.5,0,0,0,6.45,14.31l.24-.45.51-.93.52-.94L9.37,9l1.1-2h2.06l.46.84.85,1.53.35.64A6.656,6.656,0,0,0,14.5,8,6.5,6.5,0,0,0,8,1.5Z" />
      <path class="light-red" d="M8,1A7,7,0,0,0,6.2,14.76l.25-.45.24-.45A6,6,0,1,1,14,8a5.646,5.646,0,0,1-.16,1.37l.35.64.31.57A6.738,6.738,0,0,0,15,8,7,7,0,0,0,8,1Z" />
    </g>
    <path class="light-red" d="M8,8V5H7V8.5l.5.5H9.37l.55-1ZM8,3a5,5,0,0,0-.8,9.93l.52-.94A4,4,0,1,1,11.87,7h.66l.46.84A4.987,4.987,0,0,0,8,3ZM8,5H7V8.5l.5.5H9.37l.55-1H8ZM8,8V5H7V8.5l.5.5H9.37l.55-1Z" />
    <path class="light-yellow" d="M15.5,16h-8l-.439-.739,4-7.261h.878l4,7.261Z" />
    <path class="white" d="M12,13H11V10h1Zm.25,1.5a.75.75,0,1,1-.75-.75A.75.75,0,0,1,12.25,14.5Z" />
  </g>
</svg>
