<svg xmlns="http://www.w3.org/2000/svg" viewBox="0 0 16 16">
  <defs>
    <style>.canvas{fill: none; opacity: 0;}.light-defaultgrey-10{fill: #212121; opacity: 0.1;}.light-defaultgrey{fill: #212121; opacity: 1;}</style>
  </defs>
  <title>IconLightBrightness</title>
  <g id="Canvas">
    <path class="canvas" d="M16,16H0V0H16Z" />
  </g>
  <g id="level-1">
    <path class="light-defaultgrey-10" d="M3,7.5A4.5,4.5,0,1,1,7.5,12,4.5,4.5,0,0,1,3,7.5Z" />
    <path class="light-defaultgrey" d="M12.449,7a4.94,4.94,0,0,0-1.1-2.646L12.8,2.9,12.1,2.2l-1.45,1.449A4.94,4.94,0,0,0,8,2.551V.5H7V2.551A4.94,4.94,0,0,0,4.354,3.646L2.9,2.2,2.2,2.9l1.449,1.45A4.94,4.94,0,0,0,2.551,7H.5V8H2.551a4.94,4.94,0,0,0,1.095,2.646L2.2,12.1,2.9,12.8l1.45-1.449A4.94,4.94,0,0,0,7,12.449V14.5H8V12.449a4.94,4.94,0,0,0,2.646-1.1L12.1,12.8,12.8,12.1l-1.449-1.45A4.94,4.94,0,0,0,12.449,8H14.5V7ZM7.5,11.5a4,4,0,1,1,4-4A4,4,0,0,1,7.5,11.5Z" />
  </g>
</svg>
