<svg xmlns="http://www.w3.org/2000/svg" viewBox="0 0 16 16">
  <defs>
    <style>.canvas{fill: none; opacity: 0;}.light-defaultgrey-10{fill: #212121; opacity: 0.1;}.light-defaultgrey{fill: #212121; opacity: 1;}</style>
  </defs>
  <title>IconLightBrowserSDK</title>
  <g id="canvas">
    <path class="canvas" d="M16,16H0V0H16Z" />
  </g>
  <g id="level-1">
    <path class="light-defaultgrey-10" d="M7.5,10.5v5H.5v-5Z" />
    <path class="light-defaultgrey" d="M7.5,10H6V8.5L5.5,8h-3L2,8.5V10H.5l-.5.5v5l.5.5h7l.5-.5v-5ZM3,9H5v1H3Zm4,2v1H1V11ZM1,15V13H2v1H3V13H5v1H6V13H7v2Z" />
    <path class="light-defaultgrey-10" d="M14,3V5H2V3Z" />
    <path class="light-defaultgrey" d="M14.5,6H1.5L1,5.5v-3L1.5,2h13l.5.5v3ZM2,5H14V3H2Z" />
    <path class="light-defaultgrey-10" d="M14.5,5.5v8H9V10.086l-.5-.5V9.5H8.414l-.5-.5H7V8.086L5.914,7H2.086L1.5,7.586V5.5Z" />
    <path class="light-defaultgrey" d="M15,5.5v8l-.5.5H9V13h5V6H2V7.086l-1,1V5.5L1.5,5h13Z" />
  </g>
</svg>
