<svg xmlns="http://www.w3.org/2000/svg" viewBox="0 0 16 16">
  <defs>
    <style>.canvas{fill: none; opacity: 0;}.light-blue{fill: #005dba; opacity: 1;}.light-defaultgrey{fill: #212121; opacity: 1;}.light-defaultgrey-10{fill: #212121; opacity: 0.1;}</style>
  </defs>
  <title>IconLightBrowseNext</title>
  <g id="canvas" class="canvas">
    <path class="canvas" d="M16,16H0V0H16Z" />
  </g>
  <g id="level-1">
    <path class="light-blue" d="M8.854,11.146v.708L6.2,14.505,5.5,13.8l1.8-1.8H1V11H7.293L5.5,9.2,6.2,8.495Z" />
    <path class="light-defaultgrey" d="M11.951,4.756A1,1,0,0,1,12,5a1.1,1.1,0,1,1-.756-.951l2.938-2.938.707.707Z" />
    <path class="light-defaultgrey-10" d="M16,5a5,5,0,1,1-5-5A5.006,5.006,0,0,1,16,5Z" />
    <path class="light-defaultgrey" d="M15.416,2.705A4.943,4.943,0,0,1,16,5a5,5,0,1,1-5-5,4.934,4.934,0,0,1,2.3.584l-.734.734a4,4,0,1,0,2.121,2.121Z" />
  </g>
</svg>
