<svg xmlns="http://www.w3.org/2000/svg" viewBox="0 0 16 16">
  <defs>
    <style>.canvas{fill: none; opacity: 0;}.light-defaultgrey{fill: #212121; opacity: 1;}.light-blue-10{fill: #005dba; opacity: 0.1;}.light-blue{fill: #005dba; opacity: 1;}</style>
  </defs>
  <title>IconLightBrowserLink</title>
  <g id="canvas">
    <path class="canvas" d="M16,16H0V0H16Z" />
  </g>
  <g id="level-1">
    <path class="light-defaultgrey" d="M2,14a2,2,0,0,1,2-2H6a2,2,0,0,1,0,4H4A2,2,0,0,1,2,14Zm2-1a1,1,0,0,0,0,2H6a1,1,0,0,0,0-2Z" />
    <path class="light-defaultgrey" d="M6,12a2,2,0,0,1-2,2H3a1,1,0,0,1,1-1,1,1,0,0,0,0-2H2a1,1,0,0,0,0,2h.269A1.984,1.984,0,0,0,2,14a2,2,0,0,1,0-4H4A2,2,0,0,1,6,12Z" />
    <path class="light-blue-10" d="M14.5,8a6.42,6.42,0,0,1-5.542,6.413A2.963,2.963,0,0,0,9,14a3,3,0,0,0-2.129-2.871A3,3,0,0,0,4,9H2a2.974,2.974,0,0,0-.4.041A6.494,6.494,0,1,1,14.5,8Z" />
    <path class="light-blue" d="M12.947,3.053a6.984,6.984,0,0,0-11.839,6.1A2.963,2.963,0,0,1,2,9h.088A5.835,5.835,0,0,1,2.35,6H4.7a10.187,10.187,0,0,0-.141,3.057,2.965,2.965,0,0,1,1.08.442A9.54,9.54,0,0,1,5.5,8a9.472,9.472,0,0,1,.222-2h4.556a9.12,9.12,0,0,1,0,4H6.226a2.993,2.993,0,0,1,.594,1h3.19A9.467,9.467,0,0,1,8.9,13.27a2.735,2.735,0,0,1-.066,1.671A6.989,6.989,0,0,0,12.947,3.053ZM4.946,5H2.812a6.025,6.025,0,0,1,3.4-2.727A10.522,10.522,0,0,0,4.946,5ZM6,5A9.479,9.479,0,0,1,7.628,2.019C7.752,2.011,7.874,2,8,2s.249.011.373.019A9.478,9.478,0,0,1,10.005,5ZM9.789,2.273A6.02,6.02,0,0,1,13.188,5H11.053A10.489,10.489,0,0,0,9.789,2.273Zm0,11.454A10.489,10.489,0,0,0,11.053,11h2.135A6.02,6.02,0,0,1,9.789,13.727ZM13.65,10H11.3a10.2,10.2,0,0,0,0-4h2.35A5.885,5.885,0,0,1,13.65,10Z" />
  </g>
</svg>
