<svg xmlns="http://www.w3.org/2000/svg" viewBox="0 0 16 16">
  <defs>
    <style>.canvas{fill: none; opacity: 0;}.light-blue-10{fill: #005dba; opacity: 0.1;}.light-blue{fill: #005dba; opacity: 1;}.light-defaultgrey-10{fill: #212121; opacity: 0.1;}.light-defaultgrey{fill: #212121; opacity: 1;}</style>
  </defs>
  <title>BrowseDefinition</title>
  <g id="canvas" class="canvas">
    <path class="canvas" d="M16,16H0V0H16Z" />
  </g>
  <g id="level-1">
    <path class="light-blue-10" d="M.5,10.143a2.5,2.5,0,1,1,2.5,2.5A2.5,2.5,0,0,1,.5,10.143Z" />
    <path class="light-blue" d="M8.85,15.286,5.408,11.914A2.964,2.964,0,0,0,6,10.143a3.007,3.007,0,1,0-1.3,2.472L8.15,16ZM1,10.143a2,2,0,1,1,2,2A2,2,0,0,1,1,10.143Z" />
    <path class="light-defaultgrey-10" d="M8.5,6.5a1,1,0,1,0,1,1A1,1,0,0,0,8.5,6.5Z" />
    <path class="light-defaultgrey" d="M14.16,2.55,13.8,2.2l-.35-.36-.02.02L9.14,6.15a1.518,1.518,0,1,0,.71.71ZM8.5,8A.5.5,0,1,1,9,7.5.5.5,0,0,1,8.5,8Z" />
    <path class="light-defaultgrey-10" d="M15.97,6.88c0-.1-.02-.21-.03-.31l-.03-.21a5.123,5.123,0,0,0-.14-.68.83.83,0,0,0-.06-.21,2.185,2.185,0,0,0-.1-.34.689.689,0,0,0-.04-.1,4.93,4.93,0,0,0-.31-.75,4.156,4.156,0,0,0-.24-.47,6.787,6.787,0,0,0-.88-1.24c-.11-.13-.22-.25-.34-.37s-.24-.23-.37-.34A6.787,6.787,0,0,0,12.19.98a4.156,4.156,0,0,0-.47-.24,4.087,4.087,0,0,0-.75-.31.689.689,0,0,0-.1-.04,2.185,2.185,0,0,0-.34-.1.83.83,0,0,0-.21-.06A3.889,3.889,0,0,0,9.64.1,1.552,1.552,0,0,0,9.43.06C9.33.05,9.22.03,9.12.03,8.91.01,8.71,0,8.5,0A7.5,7.5,0,0,0,1.05,6.66a3.976,3.976,0,0,1,1.07-.42A3.654,3.654,0,0,1,3,6.14a4.005,4.005,0,0,1,4,4,3.96,3.96,0,0,1-.34,1.6l2.28,2.24.92.89A7.5,7.5,0,0,0,16,7.5C16,7.29,15.99,7.09,15.97,6.88Z" />
    <path class="light-defaultgrey" d="M15.97,6.88c0-.1-.02-.21-.03-.31l-.03-.21a5.123,5.123,0,0,0-.14-.68.83.83,0,0,0-.06-.21,2.185,2.185,0,0,0-.1-.34.689.689,0,0,0-.04-.1,4.93,4.93,0,0,0-.31-.75,4.156,4.156,0,0,0-.24-.47l-.74.74A6.369,6.369,0,0,1,15,7.5a6.5,6.5,0,0,1-6.06,6.48l.92.89A7.5,7.5,0,0,0,16,7.5C16,7.29,15.99,7.09,15.97,6.88ZM12.19.98a4.156,4.156,0,0,0-.47-.24,4.93,4.93,0,0,0-.75-.31.689.689,0,0,0-.1-.04,2.185,2.185,0,0,0-.34-.1.83.83,0,0,0-.21-.06A3.889,3.889,0,0,0,9.64.1,1.552,1.552,0,0,0,9.43.06C9.33.05,9.22.03,9.12.03,8.91.01,8.71,0,8.5,0A7.5,7.5,0,0,0,1.05,6.66a3.976,3.976,0,0,1,1.07-.42A6.521,6.521,0,0,1,8.5,1a6.369,6.369,0,0,1,2.95.72Z" />
  </g>
</svg>
