<svg xmlns="http://www.w3.org/2000/svg" viewBox="0 0 16 16">
  <defs>
    <style>.canvas{fill: none; opacity: 0;}.light-defaultgrey-10{fill: #212121; opacity: 0.1;}.light-defaultgrey{fill: #212121; opacity: 1;}.cls-1{opacity:0.5;}.cls-2{opacity:0.75;}</style>
  </defs>
  <title>IconLightBuildQueue</title>
  <g id="canvas" class="canvas">
    <path class="canvas" d="M16,16H0V0H16Z" />
  </g>
  <g id="level-1">
    <g class="cls-1">
      <path class="light-defaultgrey-10" d="M14.5,1.5v5H11V7H9.5L9,6.5V5h.5V1.5Z" />
      <path class="light-defaultgrey" d="M15,1.5v5l-.5.5H11V6h3V2H10V5H9V1.5L9.5,1h5Z" />
    </g>
    <g class="cls-2">
      <path class="light-defaultgrey-10" d="M10.5,5.5v5H7V11H5.5L5,10.5V9h.5V5.5Z" />
      <path class="light-defaultgrey" d="M11,5.5v5l-.5.5H7V10h3V6H6V9H5V5.5L5.5,5h5Z" />
    </g>
    <path class="light-defaultgrey-10" d="M6.5,9.5v5h-5v-5Z" />
    <path class="light-defaultgrey" d="M6.5,15h-5L1,14.5v-5L1.5,9h5l.5.5v5ZM2,14H6V10H2Z" />
  </g>
</svg>
