<svg xmlns="http://www.w3.org/2000/svg" viewBox="0 0 16 16">
  <defs>
    <style>.canvas{fill: none; opacity: 0;}.light-blue{fill: #005dba; opacity: 1;}.light-defaultgrey-10{fill: #212121; opacity: 0.1;}.light-defaultgrey{fill: #212121; opacity: 1;}.cls-1{opacity:0.75;}</style>
  </defs>
  <title>IconLightBuildDynamicValueGroup</title>
  <g id="canvas" class="canvas">
    <path class="canvas" d="M16,16H0V0H16Z" />
  </g>
  <g id="level-1">
    <g class="cls-1">
      <path class="light-blue" d="M12,1V2H7V1H9V0h1V1ZM7,12V11h5v1H10v1H9V12Z" />
      <path class="light-defaultgrey-10" d="M14.5,3.5v6H12V5.086L10.914,4H9V3.5Z" />
      <path class="light-defaultgrey" d="M15,3.5v6l-.5.5H12V9h2V4H9V3h5.5Z" />
    </g>
    <path class="light-blue" d="M3,14V13H8v1H6v1H5V14ZM8,3V4H3V3H5V2H6V3Z" />
    <path class="light-defaultgrey-10" d="M10.5,11.5H.5v-6h10Z" />
    <path class="light-defaultgrey" d="M10.5,12H.5L0,11.5v-6L.5,5h10l.5.5v6ZM1,11h9V6H1Z" />
  </g>
</svg>
