<svg xmlns="http://www.w3.org/2000/svg" viewBox="0 0 16 16">
  <defs>
    <style>.canvas{fill: none; opacity: 0;}.light-defaultgrey-10{fill: #212121; opacity: 0.1;}.light-defaultgrey{fill: #212121; opacity: 1;}.light-defaultgrey-25{fill: #212121; opacity: 0.25;}.cls-1{opacity:0.75;}</style>
  </defs>
  <title>IconLightBuildCollection</title>
  <g id="canvas" class="canvas">
    <path class="canvas" d="M16,16H0V0H16Z" />
  </g>
  <g id="level-1">
    <g class="cls-1">
      <path class="light-defaultgrey-10" d="M14.5,1.5V9.911H12V5.5L11.5,5h-4V1.5Z" />
      <path class="light-defaultgrey-10" d="M4,12.5H1.5v-9H7V5H4.5L4,5.5Z" />
      <path class="light-defaultgrey" d="M15,1.5v9l-.5.5H12V10h2V2H8V5H7V4H2v8H4v1H1.5L1,12.5v-9L1.5,3H7V1.5L7.5,1h7Z" />
    </g>
    <path class="light-defaultgrey-10" d="M11.5,14.5h-7v-9h7Z" />
    <path class="light-defaultgrey" d="M11.5,15h-7L4,14.5v-9L4.5,5h7l.5.5v9ZM5,14h6V6H5Z" />
    <path class="light-defaultgrey-25" d="M11,10v1H7.5L7,10.5V6H8v4Z" />
  </g>
</svg>
