<svg xmlns="http://www.w3.org/2000/svg" viewBox="0 0 16 16">
  <defs>
    <style>.canvas{fill: none; opacity: 0;}.light-defaultgrey{fill: #212121; opacity: 1;}.light-defaultgrey-10{fill: #212121; opacity: 0.1;}.cls-1{opacity:0.5;}</style>
  </defs>
  <title>IconLightButterflyGraphMode</title>
  <g id="canvas" class="canvas">
    <path class="canvas" d="M16,16H0V0H16Z" />
  </g>
  <g id="level-1">
    <g class="cls-1">
      <path class="light-defaultgrey" d="M6.646,7.646l.708.708-4,4-.708-.708ZM3,7V8H6V7Zm9,1V7H9.707l3.647-3.646-.708-.708-4,4L9,7V8l-.354.354,4,4,.708-.708L9.707,8ZM2.646,3.354l4,4,.708-.708-4-4Z" />
    </g>
    <path class="light-defaultgrey-10" d="M6.5,6.5h3v2h-3Zm-5-3h2v-2h-2Zm11-2v2h2v-2Zm-11,7h2v-2h-2Zm0,5h2v-2h-2Zm11,0h2v-2h-2Zm0-5h2v-2h-2Z" />
    <path class="light-defaultgrey" d="M1.5,1,1,1.5v2l.5.5h2L4,3.5v-2L3.5,1ZM3,3H2V2H3ZM14.5,1h-2l-.5.5v2l.5.5h2l.5-.5v-2ZM14,3H13V2h1ZM1.5,6,1,6.5v2l.5.5h2L4,8.5v-2L3.5,6ZM3,8H2V7H3ZM6.5,6,6,6.5v2l.5.5h3l.5-.5v-2L9.5,6ZM9,8H7V7H9Zm3.5-2-.5.5v2l.5.5h2l.5-.5v-2L14.5,6ZM14,8H13V7h1ZM1.5,11l-.5.5v2l.5.5h2l.5-.5v-2L3.5,11ZM3,13H2V12H3Zm9.5-2-.5.5v2l.5.5h2l.5-.5v-2l-.5-.5ZM14,13H13V12h1Z" />
  </g>
</svg>
