<svg xmlns="http://www.w3.org/2000/svg" viewBox="0 0 16 16">
  <defs>
    <style>.canvas{fill: none; opacity: 0;}.light-defaultgrey-10{fill: #212121; opacity: 0.1;}.light-defaultgrey{fill: #212121; opacity: 1;}.cls-1{opacity:0.75;}</style>
  </defs>
  <title>IconLightButtonGroup</title>
  <g id="canvas" class="canvas">
    <path class="canvas" d="M16,16H0V0H16Z" />
  </g>
  <g id="level-1">
    <path class="light-defaultgrey-10" d="M13.5,10.5H1.5a1,1,0,0,1-1-1v-4a1,1,0,0,1,1-1h12a1,1,0,0,1,1,1v4A1,1,0,0,1,13.5,10.5Z" />
    <path class="light-defaultgrey" d="M13.5,4H1.5A1.5,1.5,0,0,0,0,5.5v4A1.5,1.5,0,0,0,1.5,11h12A1.5,1.5,0,0,0,15,9.5v-4A1.5,1.5,0,0,0,13.5,4Zm-12,6A.5.5,0,0,1,1,9.5v-4A.5.5,0,0,1,1.5,5H7v5ZM14,9.5a.5.5,0,0,1-.5.5H8V5h5.5a.5.5,0,0,1,.5.5Z" />
    <g class="cls-1">
      <path class="light-defaultgrey" d="M2,7H6V8H2ZM9,7V8h4V7Z" />
    </g>
  </g>
</svg>
