<svg xmlns="http://www.w3.org/2000/svg" viewBox="0 0 16 16">
  <defs>
    <style>.canvas{fill: none; opacity: 0;}.light-blue-10{fill: #005dba; opacity: 0.1;}.light-lightblue{fill: #0077a0; opacity: 1;}.light-yellow{fill: #996f00; opacity: 1;}.light-defaultgrey{fill: #212121; opacity: 1;}</style>
  </defs>
  <title>IconLightCacheProperty</title>
  <g id="canvas" class="canvas">
    <path class="canvas" d="M16,16H0V0H16Z" />
  </g>
  <g id="level-1">
    <path class="light-blue-10" d="M10.5,2.97V6.9c-.107.088-.221.165-.32.264a4,4,0,0,0-1.027,3.855l-1.4,1.4A10.14,10.14,0,0,1,6.5,12.5c-.335,0-.655-.02-.966-.049L7.7,9.97H5.3l2.136-3H2.5v-4c0-.828,1.791-1.5,4-1.5S10.5,2.142,10.5,2.97Z" />
    <path class="light-lightblue" d="M6.5,11.97a8.693,8.693,0,0,0,1.9-.2L7.227,12.942c-.241.016-.484.028-.727.028a10.571,10.571,0,0,1-1.341-.091l.813-.929C6.145,11.959,6.313,11.97,6.5,11.97Z" />
    <path class="light-lightblue" d="M2,2.97v4H3V4.261a7.863,7.863,0,0,0,3.5.709A7.863,7.863,0,0,0,10,4.261v3.1c.06-.068.115-.14.18-.205A3.942,3.942,0,0,1,11,6.548V2.97C11,.343,2,.343,2,2.97Zm4.5,1c-2.273,0-3.5-.71-3.5-1s1.227-1,3.5-1,3.5.71,3.5,1S8.773,3.97,6.5,3.97Z" />
    <path class="light-yellow" d="M5.5,10.97l-3.5,4H1l1.5-3H.5l2-4h3l-2.137,3Z" />
    <path class="light-defaultgrey" d="M15.129,12.111a2.99,2.99,0,0,1-3.4.577L8.412,16H7.705L7,15.293v-.707l3.311-3.312a2.983,2.983,0,0,1,3.983-3.983L12.3,9.282,13.715,10.7l1.992-1.992A2.992,2.992,0,0,1,15.129,12.111Z" />
  </g>
</svg>
