<svg xmlns="http://www.w3.org/2000/svg" viewBox="0 0 16 16">
  <defs>
    <style>.canvas{fill: none; opacity: 0;}.light-lightblue-10{fill: #0077a0; opacity: 0.1;}.light-lightblue{fill: #0077a0; opacity: 1;}.light-yellow{fill: #996f00; opacity: 1;}</style>
  </defs>
  <title>IconLightCache</title>
  <g id="canvas" class="canvas">
    <path class="canvas" d="M16,16H0V0H16Z" />
  </g>
  <g id="level-1">
    <path class="light-lightblue-10" d="M12.5,2.97V11c0,.828-1.791,1.5-4,1.5-.327,0-.639-.019-.943-.046L9.7,10H7.3L9.44,7H4.5V2.97c0-.828,1.791-1.5,4-1.5S12.5,2.142,12.5,2.97Z" />
    <path class="light-lightblue" d="M4,2.97V7H5V4.261a7.863,7.863,0,0,0,3.5.709A7.863,7.863,0,0,0,12,4.261V11c0,.29-1.227,1-3.5,1-.187,0-.356-.011-.529-.02l-.812.928A10.57,10.57,0,0,0,8.5,13c2.236,0,4.5-.687,4.5-2V2.97C13,.343,4,.343,4,2.97Zm4.5,1c-2.273,0-3.5-.71-3.5-1s1.227-1,3.5-1,3.5.71,3.5,1S10.773,3.97,8.5,3.97Z" />
    <path class="light-yellow" d="M7.5,11,4,15H3l1.5-3h-2l2-4h3L5.363,11Z" />
  </g>
</svg>
