<svg xmlns="http://www.w3.org/2000/svg" viewBox="0 0 16 16">
  <defs>
    <style>.canvas{fill: none; opacity: 0;}.light-lightblue-10{fill: #0077a0; opacity: 0.1;}.light-lightblue{fill: #0077a0; opacity: 1;}.light-yellow{fill: #996f00; opacity: 1;}.cls-1{opacity:0.75;}</style>
  </defs>
  <title>CacheGroup</title>
  <g id="canvas">
    <path class="canvas" d="M16,0V16H0V0Z" />
  </g>
  <g id="level-1">
    <path class="light-lightblue-10" d="M10.5,4.97V13c0,.828-1.791,1.5-4,1.5a8.317,8.317,0,0,1-2.843-.446L7.2,10H4.8L6.94,7H2.5V4.97c0-.828,1.791-1.5,4-1.5S10.5,4.142,10.5,4.97Z" />
    <g class="cls-1">
      <path class="light-lightblue-10" d="M15.5,3v8c0,.828-1.791,1.5-4,1.5-.171,0-.334-.011-.5-.019V4.969c0-1.116-1.63-1.753-3.5-1.92V3c0-.828,1.791-1.5,4-1.5S15.5,2.172,15.5,3Z" />
      <path class="light-lightblue" d="M16,2.969V11c0,1.313-2.264,2-4.5,2-.167,0-.333-.012-.5-.019v-1c.164.008.323.019.5.019,2.273,0,3.5-.71,3.5-1V4.3a7.913,7.913,0,0,1-3.5.7c-.168,0-.333-.015-.5-.023V4.969a1.318,1.318,0,0,0-.619-1.038A9.461,9.461,0,0,0,11.5,4C13.773,4,15,3.29,15,3V2.969c0-.29-1.227-1-3.5-1s-3.5.71-3.5,1V3a.221.221,0,0,0,.05.112A10.423,10.423,0,0,0,7,3.018V2.969C7,.344,16,.344,16,2.969Z" />
    </g>
    <path class="light-lightblue" d="M2,4.97V7H3V6.261a7.863,7.863,0,0,0,3.5.709A7.863,7.863,0,0,0,10,6.261V12.97c0,.29-1.227,1-3.5,1a7.9,7.9,0,0,1-2.464-.349l-.7.8A8.549,8.549,0,0,0,6.5,14.97c2.236,0,4.5-.686,4.5-2v-8C11,2.343,2,2.343,2,4.97Zm4.5,1c-2.273,0-3.5-.71-3.5-1s1.227-1,3.5-1,3.5.71,3.5,1S8.773,5.97,6.5,5.97Z" />
    <path class="light-yellow" d="M5,11,1.5,15H.5L2,12H0L2,8H5L2.863,11Z" />
  </g>
</svg>
