<svg xmlns="http://www.w3.org/2000/svg" viewBox="0 0 16 16">
  <defs>
    <style>.canvas{fill: none; opacity: 0;}.light-lightblue-10{fill: #0077a0; opacity: 0.1;}.light-lightblue{fill: #0077a0; opacity: 1;}.light-yellow{fill: #996f00; opacity: 1;}.light-red{fill: #c50b17; opacity: 1;}.white{fill: #ffffff; opacity: 1;}</style>
  </defs>
  <title>IconLightCacheError</title>
  <g id="canvas" class="canvas">
    <path class="canvas" d="M16,16H0V0H16Z" />
  </g>
  <g id="level-1">
    <path class="light-lightblue-10" d="M7,12c0,.164.033.319.048.479-.181.01-.36.021-.548.021-.327,0-.639-.019-.943-.046l1.672-1.911A4.9,4.9,0,0,0,7,12Z" />
    <path class="light-lightblue-10" d="M10.5,2.97V7.255A5.028,5.028,0,0,0,7.439,10H5.3L7.44,7H2.5V2.97c0-.828,1.791-1.5,4-1.5S10.5,2.142,10.5,2.97Z" />
    <path class="light-lightblue" d="M7,12a4.988,4.988,0,0,0,.1.977c-.2.011-.4.023-.6.023a10.57,10.57,0,0,1-1.341-.092l.812-.928c.173.009.342.02.529.02s.337-.011.5-.019Z" />
    <path class="light-lightblue" d="M2,2.97V7H3V4.261a7.863,7.863,0,0,0,3.5.709A7.863,7.863,0,0,0,10,4.261V7.424A4.91,4.91,0,0,1,11,7.1V2.97C11,.343,2,.343,2,2.97Zm4.5,1c-2.273,0-3.5-.71-3.5-1s1.227-1,3.5-1,3.5.71,3.5,1S8.773,3.97,6.5,3.97Z" />
    <path class="light-yellow" d="M5.5,11,2,15H1l1.5-3H.5l2-4h3L3.363,11Z" />
    <path class="light-red" d="M12,8a4,4,0,1,0,4,4A4,4,0,0,0,12,8Z" />
    <path class="white" d="M12.707,12l1.147,1.146-.708.708L12,12.707l-1.146,1.147-.708-.708L11.293,12l-1.147-1.146.708-.708L12,11.293l1.146-1.147.708.708Z" />
  </g>
</svg>
