<svg xmlns="http://www.w3.org/2000/svg" viewBox="0 0 16 16">
  <defs>
    <style>.canvas{fill: none; opacity: 0;}.light-defaultgrey-10{fill: #212121; opacity: 0.1;}.light-defaultgrey{fill: #212121; opacity: 1;}.cls-1{fill:none;}</style>
  </defs>
  <title>IconLightCalculatePrimaryKey</title>
  <g id="canvas" class="canvas">
    <path class="canvas" d="M0,0H16V16H0Z" />
  </g>
  <g id="level-1">
    <path class="light-defaultgrey-10" d="M.5,7.5h6v8H.5Z" />
    <path class="light-defaultgrey" d="M0,7.5v8l.5.5h6l.5-.5v-8L6.5,7H.5ZM1,8H6v7H1Zm2,4H2V11H3Zm0,2H2V13H3ZM2,9H5v1H2Zm2,4H5v1H4Zm0-2H5v1H4Z" />
    <path class="cls-1" d="M16,16H0V0H16Z" />
    <path class="light-defaultgrey-10" d="M7.5,4.5a3,3,0,1,1,4,2.816V7.5l1,1-1,1,1,1-1,1,1,1-2,2-1-1V7.316A2.99,2.99,0,0,1,7.5,4.5Z" />
    <path class="light-defaultgrey" d="M10.5,3a.75.75,0,1,1-.75.75A.75.75,0,0,1,10.5,3ZM7,4.5A3.5,3.5,0,0,0,9,7.649V13.5l.146.354,1,1h.708l2-2v-.708l-.647-.646.647-.646v-.708L12.207,9.5l.647-.646V8.146l-.623-.622A3.493,3.493,0,1,0,7,4.5Zm1,0a2.5,2.5,0,1,1,3.218,2.382V7.925l.575.575-.647.646v.708l.647.646-.647.646v.708l.647.646L10.5,13.793l-.5-.5V6.949A2.5,2.5,0,0,1,8,4.5Z" />
  </g>
</svg>
