<svg xmlns="http://www.w3.org/2000/svg" viewBox="0 0 16 16">
  <defs>
    <style>.canvas{fill: none; opacity: 0;}.light-defaultgrey-10{fill: #212121; opacity: 0.1;}.light-defaultgrey{fill: #212121; opacity: 1;}.light-purple-10{fill: #6936aa; opacity: 0.1;}.light-purple{fill: #6936aa; opacity: 1;}</style>
  </defs>
  <title>IconLightCalculatorMethod</title>
  <g id="canvas" class="canvas">
    <path class="canvas" d="M16,16H0V0H16Z" />
  </g>
  <g id="level-1">
    <path class="light-defaultgrey-10" d="M.511,7.5h6v8h-6Z" />
    <path class="light-defaultgrey" d="M0,7.5v8l.5.5h6l.5-.5v-8L6.5,7H.5ZM1,8H6v7H1Zm2,4H2V11H3Zm0,2H2V13H3ZM2,9H5v1H2Zm2,4H5v1H4Zm0-2H5v1H4Z" />
    <path class="light-purple-10" d="M13.5,3.814V8.553l-4,2L8.011,9.808V7.086L6.925,6H5.5V3.814l4-2.332Z" />
    <path class="light-purple" d="M13.752,3.382l-4-2.333h-.5l-4,2.333L5,3.814V6H6V4.915l3,1.5V9.744l-.989-.495v1.118L9.276,11h.448l4-2L14,8.553V3.814ZM9.5,5.546,6.281,3.937,9.5,2.06l3.219,1.877Zm3.5,2.7-3,1.5V6.415l3-1.5Z" />
  </g>
</svg>
