<svg xmlns="http://www.w3.org/2000/svg" viewBox="0 0 16 16">
  <defs>
    <style>.canvas{fill: none; opacity: 0;}.light-defaultgrey-10{fill: #212121; opacity: 0.1;}.light-defaultgrey{fill: #212121; opacity: 1;}.light-yellow{fill: #996f00; opacity: 1;}.white{fill: #ffffff; opacity: 1;}.cls-1{opacity:0.75;}</style>
  </defs>
  <title>IconLightCalculationWarning</title>
  <g id="canvas" class="canvas">
    <path class="canvas" d="M16,16H0V0H16Z" />
  </g>
  <g id="level-1">
    <path class="light-defaultgrey-10" d="M6.613,14H3V2h9.5l.03,5H10.47Z" />
    <path class="light-defaultgrey" d="M6.063,15H2.5L2,14.5V1.5L2.5,1h10l.5.5V7.853L12.53,7H12V2H3V14H6.613Z" />
    <g class="cls-1">
      <path class="light-defaultgrey" d="M8,8H7V7H8Zm2.194-.5H10V7h.47ZM8,10H7V9H8ZM4,7H5V8H4ZM4,9H5v1H4Zm0,2H5v1H4Zm3.722,1H7V11H8v.483Z" />
      <path class="light-defaultgrey" d="M4.5,3,4,3.5v2l.5.5h6l.5-.5v-2L10.5,3ZM10,5H5V4h5Z" />
    </g>
    <path class="light-yellow" d="M15.5,16h-8l-.439-.739,4-7.261h.878l4,7.261Z" />
    <path class="white" d="M12,13H11V10h1Zm.25,1.5a.75.75,0,1,1-.75-.75A.75.75,0,0,1,12.25,14.5Z" />
  </g>
</svg>
