<svg xmlns="http://www.w3.org/2000/svg" viewBox="0 0 16 16">
  <defs>
    <style>.canvas{fill: none; opacity: 0;}.light-defaultgrey-10{fill: #212121; opacity: 0.1;}.light-defaultgrey{fill: #212121; opacity: 1;}</style>
  </defs>
  <title>IconLightCalloutRoundedRectangle</title>
  <g id="canvas" class="canvas">
    <path class="canvas" d="M16,16H0V0H16Z" />
  </g>
  <g id="level-1">
    <path class="light-defaultgrey-10" d="M14.5,4v6A1.5,1.5,0,0,1,13,11.5H7.5l-3,2.983V11.5H3A1.5,1.5,0,0,1,1.5,10V4A1.5,1.5,0,0,1,3,2.5H13A1.5,1.5,0,0,1,14.5,4Z" />
    <path class="light-defaultgrey" d="M4.853,14.838,4,14.483V12H3a2,2,0,0,1-2-2V4A2,2,0,0,1,3,2H13a2,2,0,0,1,2,2v6a2,2,0,0,1-2,2H7.706ZM3,3A1,1,0,0,0,2,4v6a1,1,0,0,0,1,1H4.5l.5.5v1.781l2.147-2.135L7.5,11H13a1,1,0,0,0,1-1V4a1,1,0,0,0-1-1Z" />
  </g>
</svg>
