<svg xmlns="http://www.w3.org/2000/svg" viewBox="0 0 16 16"><defs><style>.canvas{fill: none; opacity: 0;}.dark-green{fill: #5fb55f; opacity: 1;}.white{fill: #ffffff; opacity: 1;}.light-defaultgrey{fill: #212121; opacity: 1;}.light-blue{fill: #005dba; opacity: 1;}.cls-1{opacity:0.5;}</style></defs><title>IconLightCallReturnInstructionPointerAlert</title><g id="canvas" class="canvas"><path class="canvas" d="M16,16H0V0H16Z"/></g><g id="level-1"><path class="dark-green" d="M7.509,8.9V6.732c-2.695,0-5.757-1.093-6.493-5.5A10.2,10.2,0,0,0,7.509,3.269V1.105L11.4,5Z"/><g class="cls-1"><path class="white" d="M7.509,8.9V6.732c-2.695,0-5.757-1.093-6.493-5.5A10.2,10.2,0,0,0,7.509,3.269V1.105L11.4,5Z"/></g><path class="light-defaultgrey" d="M7.862,9.25,7.008,8.9V7.22C3.427,7.045,1.132,4.965.523,1.318L1.3.824A9.588,9.588,0,0,0,7.008,2.762V1.105L7.862.751l3.895,3.9v.707ZM1.785,2.318c1.01,3.2,3.609,3.914,5.723,3.914h.5V7.689L10.7,5,8.008,2.312V3.761l-.5.008A10.507,10.507,0,0,1,1.785,2.318Z"/><path class="light-blue" d="M12.213,16H10.787l-.353-.146L7.646,13.066,7.5,12.713V11.287l.146-.353,2.788-2.788L10.787,8h1.426l.353.146,2.788,2.788.146.353v1.426l-.146.353-2.788,2.788Z"/><path class="white" d="M12,12H11V9h1Zm-.5.75a.75.75,0,1,0,.75.75A.75.75,0,0,0,11.5,12.75Z"/></g></svg>