<svg xmlns="http://www.w3.org/2000/svg" viewBox="0 0 16 16">
  <defs>
    <style>.canvas{fill: none; opacity: 0;}.light-defaultgrey{fill: #212121; opacity: 1;}.light-defaultgrey-10{fill: #212121; opacity: 0.1;}</style>
  </defs>
  <title>IconLightCallHierarchy</title>
  <g id="canvas" class="canvas">
    <path class="canvas" d="M16,16H0V0H16Z" />
  </g>
  <g id="level-1">
    <path class="light-defaultgrey" d="M7.5,8,7,7.5v-1L7.5,6h1l.5.5v1L8.5,8ZM7,9.5,6.5,9h-1L5,9.5v1l.5.5h1l.5-.5Zm4,0L10.5,9h-1L9,9.5v1l.5.5h1l.5-.5ZM3.5,12l-.5.5v1l.5.5h1l.5-.5v-1L4.5,12Zm4,0-.5.5v1l.5.5h1l.5-.5v-1L8.5,12Zm5,0h-1l-.5.5v1l.5.5h1l.5-.5v-1Z" />
    <path class="light-defaultgrey-10" d="M14.5,3.809V5.5h-3v-2h-7v2h-3V3.809A2.312,2.312,0,0,1,3.809,1.5h8.382A2.312,2.312,0,0,1,14.5,3.809Z" />
    <path class="light-defaultgrey" d="M12.191,1H3.809A2.812,2.812,0,0,0,1,3.809V5.5l.5.5h3L5,5.5V4h6V5.5l.5.5h3l.5-.5V3.809A2.812,2.812,0,0,0,12.191,1ZM14,5H12V4a1,1,0,0,0-1-1H5A1,1,0,0,0,4,4V5H2V3.811A1.808,1.808,0,0,1,3.809,2h8.382A1.808,1.808,0,0,1,14,3.811Z" />
  </g>
</svg>
