<svg xmlns="http://www.w3.org/2000/svg" viewBox="0 0 16 16">
  <defs>
    <style>.canvas{fill: none; opacity: 0;}.light-defaultgrey-10{fill: #212121; opacity: 0.1;}.light-defaultgrey{fill: #212121; opacity: 1;}</style>
  </defs>
  <title>IconLightCall</title>
  <g id="canvas" class="canvas">
    <path class="canvas" d="M16,16H0V0H16Z" />
  </g>
  <g id="level-1">
    <path class="light-defaultgrey-10" d="M7.809,1.5H9.5v3h-2v7h2v3H7.809A2.312,2.312,0,0,1,5.5,12.191V3.809A2.312,2.312,0,0,1,7.809,1.5Z" />
    <path class="light-defaultgrey" d="M5,3.809v8.382A2.812,2.812,0,0,0,7.809,15H9.5l.5-.5v-3L9.5,11H8V5H9.5l.5-.5v-3L9.5,1H7.809A2.812,2.812,0,0,0,5,3.809ZM9,2V4H8A1,1,0,0,0,7,5v6a1,1,0,0,0,1,1H9v2H7.811A1.808,1.808,0,0,1,6,12.191V3.809A1.808,1.808,0,0,1,7.811,2Z" />
  </g>
</svg>
