<svg xmlns="http://www.w3.org/2000/svg" viewBox="0 0 16 16"><defs><style>.canvas{fill: none; opacity: 0;}.dark-green{fill: #5fb55f; opacity: 1;}.white{fill: #ffffff; opacity: 1;}.light-defaultgrey{fill: #212121; opacity: 1;}.cls-1{opacity:0.5;}</style></defs><title>IconLightCallReturnInstructionPointer</title><g id="canvas" class="canvas"><path class="canvas" d="M16,16H0V0H16Z"/></g><g id="level-1"><path class="dark-green" d="M9.5,13V10.5C6.388,10.5,2.85,9.237,2,4.151A11.778,11.778,0,0,0,9.5,6.5V4L14,8.5Z"/><g class="cls-1"><path class="white" d="M9.5,13V10.5C6.388,10.5,2.85,9.237,2,4.151A11.778,11.778,0,0,0,9.5,6.5V4L14,8.5Z"/></g><path class="light-defaultgrey" d="M9.854,13.354,9,13V10.989C4.861,10.813,2.208,8.43,1.507,4.233l.777-.494A11.156,11.156,0,0,0,9,5.994V4l.854-.354,4.5,4.5v.708Zm-7.1-8.121C3.891,9.138,6.988,10,9.5,10l.5.5v1.293L13.293,8.5,10,5.207V6.5L9.5,7A12.072,12.072,0,0,1,2.756,5.233Z"/></g></svg>