<svg xmlns="http://www.w3.org/2000/svg" viewBox="0 0 16 16">
  <defs>
    <style>.canvas{fill: none; opacity: 0;}.light-defaultgrey-10{fill: #212121; opacity: 0.1;}.light-defaultgrey{fill: #212121; opacity: 1;}</style>
  </defs>
  <title>IconLightCallBrowserSettings</title>
  <g id="canvas" class="canvas">
    <path class="canvas" d="M16,16H0V0H16Z" />
  </g>
  <g id="level-1">
    <path class="light-defaultgrey-10" d="M13.5,3.809V5.5h-3v-2h-6v2h-3V3.809A2.312,2.312,0,0,1,3.809,1.5h7.382A2.312,2.312,0,0,1,13.5,3.809Z" />
    <path class="light-defaultgrey" d="M11.191,1H3.809A2.812,2.812,0,0,0,1,3.809V5.5l.5.5h3L5,5.5V4h5V5.5l.5.5h3l.5-.5V3.809A2.812,2.812,0,0,0,11.191,1ZM13,5H11V4a1,1,0,0,0-1-1H5A1,1,0,0,0,4,4V5H2V3.811A1.808,1.808,0,0,1,3.809,2h7.382A1.808,1.808,0,0,1,13,3.811Z" />
    <path class="light-defaultgrey" d="M11,12V11H9.949a2.473,2.473,0,0,0-.365-.876l.745-.745-.707-.707-.745.745A2.469,2.469,0,0,0,8,9.051V8H7V9.051a2.469,2.469,0,0,0-.877.366l-.745-.745-.707.707.745.745A2.473,2.473,0,0,0,5.051,11H4v1H5.051a2.473,2.473,0,0,0,.365.876l-.745.745.707.707.745-.745A2.469,2.469,0,0,0,7,13.949V15H8V13.949a2.469,2.469,0,0,0,.877-.366l.745.745.707-.707-.745-.745A2.473,2.473,0,0,0,9.949,12ZM7.5,13A1.5,1.5,0,1,1,9,11.5,1.5,1.5,0,0,1,7.5,13Z" />
  </g>
</svg>
