<svg xmlns="http://www.w3.org/2000/svg" viewBox="0 0 16 16">
  <defs>
    <style>.canvas{fill: none; opacity: 0;}.light-defaultgrey-10{fill: #212121; opacity: 0.1;}.light-defaultgrey{fill: #212121; opacity: 1;}.light-lightblue-10{fill: #0077a0; opacity: 0.1;}.light-lightblue{fill: #0077a0; opacity: 1;}.cls-1{opacity:0.75;}</style>
  </defs>
  <title>IconLightCallBrowser</title>
  <g id="canvas" class="canvas">
    <path class="canvas" d="M16,16H0V0H16Z" />
  </g>
  <g id="level-1">
    <g class="cls-1">
      <path class="light-defaultgrey-10" d="M14.5,5v8H4.914L4,12.086V10.914l1-1V7.086L3.914,6H2a3.058,3.058,0,0,0-.5.042V5Z" />
      <path class="light-defaultgrey" d="M15,5.5v8l-.5.5H5v-.914L4.914,13H14V6H2a2.984,2.984,0,0,0-1,.172V5.5L1.5,5h13Z" />
    </g>
    <path class="light-lightblue-10" d="M2,15.5A1.5,1.5,0,0,1,.5,14V9A1.5,1.5,0,0,1,2,7.5H3.5v2h-1v4h1v2Z" />
    <path class="light-defaultgrey-10" d="M14.5,2.5v3H1.5v-3Z" />
    <path class="light-defaultgrey" d="M14.5,6H1.5L1,5.5v-3L1.5,2h13l.5.5v3ZM2,5H14V3H2Z" />
    <path class="light-lightblue" d="M3,8V9H2.5L2,9.5v4l.5.5H3v1H2a1,1,0,0,1-1-1V9A1,1,0,0,1,2,8ZM0,9v5a2,2,0,0,0,2,2H3.5l.5-.5v-2L3.5,13H3V10h.5L4,9.5v-2L3.5,7H2A2,2,0,0,0,0,9Z" />
  </g>
</svg>
