<svg xmlns="http://www.w3.org/2000/svg" viewBox="0 0 16 16">
  <defs>
    <style>.canvas{fill: none; opacity: 0;}.light-defaultgrey-10{fill: #212121; opacity: 0.1;}.light-defaultgrey{fill: #212121; opacity: 1;}</style>
  </defs>
  <title>IconLightCalloutCloud</title>
  <g id="canvas" class="canvas">
    <path class="canvas" d="M16,16H0V0H16Z" />
  </g>
  <g id="level-1">
    <path class="light-defaultgrey-10" d="M7.5,12.5a1,1,0,1,1-1-1A1,1,0,0,1,7.5,12.5Z" />
    <path class="light-defaultgrey-10" d="M3.5,13.5a1,1,0,1,1-1-1A1,1,0,0,1,3.5,13.5Z" />
    <path class="light-defaultgrey-10" d="M4.579,9.5a3.125,3.125,0,0,1,0-6.25,3.023,3.023,0,0,1,.475.038l.317.051.178-.268A3.48,3.48,0,0,1,8.447,1.5a3.543,3.543,0,0,1,3.476,3.073l.056.406L12.388,5a2.25,2.25,0,0,1-.138,4.5Z" />
    <path class="light-defaultgrey" d="M12.418,4.505A4.049,4.049,0,0,0,8.447,1,3.985,3.985,0,0,0,5.133,2.794a3.538,3.538,0,0,0-.554-.044,3.625,3.625,0,0,0,0,7.25H12.25a2.75,2.75,0,0,0,.168-5.495ZM12.25,9H4.579a2.625,2.625,0,0,1,0-5.25,2.459,2.459,0,0,1,.662.091L5.816,3.6A3,3,0,0,1,8.447,2a3.048,3.048,0,0,1,3.008,3.008l.5.492h.295a1.75,1.75,0,0,1,0,3.5Z" />
    <path class="light-defaultgrey" d="M6.5,11A1.5,1.5,0,1,0,8,12.5,1.5,1.5,0,0,0,6.5,11Zm0,2a.5.5,0,1,1,.5-.5A.5.5,0,0,1,6.5,13Z" />
    <path class="light-defaultgrey" d="M2.5,12A1.5,1.5,0,1,0,4,13.5,1.5,1.5,0,0,0,2.5,12Zm0,2a.5.5,0,1,1,.5-.5A.5.5,0,0,1,2.5,14Z" />
  </g>
</svg>
