<svg xmlns="http://www.w3.org/2000/svg" viewBox="0 0 16 16">
  <defs>
    <style>.canvas{fill: none; opacity: 0;}.light-lightblue-10{fill: #0077a0; opacity: 0.1;}.light-lightblue{fill: #0077a0; opacity: 1;}.light-defaultgrey-10{fill: #212121; opacity: 0.1;}.light-defaultgrey{fill: #212121; opacity: 1;}</style>
  </defs>
  <title>IconLightCallStackWindow</title>
  <g id="canvas" class="canvas">
    <path class="canvas" d="M16,16H0V0H16Z" />
  </g>
  <g id="level-1">
    <path class="light-lightblue-10" d="M3,14.5A1.5,1.5,0,0,1,1.5,13V8A1.5,1.5,0,0,1,3,6.5H4.5v2h-1v4h1v2Z" />
    <path class="light-lightblue" d="M4,7V8H3.5L3,8.5v4l.5.5H4v1H3a1,1,0,0,1-1-1V8A1,1,0,0,1,3,7ZM1,8v5a2,2,0,0,0,2,2H4.5l.5-.5v-2L4.5,12H4V9h.5L5,8.5v-2L4.5,6H3A2,2,0,0,0,1,8Z" />
    <path class="light-defaultgrey-10" d="M14.5,1.5v2H1.5v-2Zm-8,7h8v-2h-8Zm0,5h8v-2h-8Z" />
    <path class="light-defaultgrey" d="M14.5,1H1.5L1,1.5v2l.5.5h13l.5-.5v-2ZM14,3H2V2H14ZM6.5,6,6,6.5v2l.5.5h8l.5-.5v-2L14.5,6ZM14,8H7V7h7ZM6.5,11l-.5.5v2l.5.5h8l.5-.5v-2l-.5-.5ZM14,13H7V12h7Z" />
  </g>
</svg>
