<svg xmlns="http://www.w3.org/2000/svg" viewBox="0 0 16 16">
  <defs>
    <style>.canvas{fill: none; opacity: 0;}.light-defaultgrey-10{fill: #212121; opacity: 0.1;}.light-defaultgrey{fill: #212121; opacity: 1;}.light-teal-10{fill: #006758; opacity: 0.1;}.light-teal{fill: #006758; opacity: 1;}</style>
  </defs>
  <title>IconLightCamera</title>
  <g id="canvas" class="canvas">
    <path class="canvas" d="M16,16H0V0H16Z" />
  </g>
  <g id="level-1">
    <path class="light-defaultgrey-10" d="M15.5,2.5v11H.5V2.5h4l1-1h5l1,1Z" />
    <path class="light-defaultgrey" d="M15.5,2H11.707l-.853-.854L10.5,1h-5l-.354.146L4.293,2H.5L0,2.5v11l.5.5h15l.5-.5V2.5ZM15,13H1V3H4.5l.354-.146L5.707,2h4.586l.853.854L11.5,3H15Z" />
    <path class="light-teal-10" d="M11.5,8A3.5,3.5,0,1,1,8,4.5,3.5,3.5,0,0,1,11.5,8Z" />
    <path class="light-teal" d="M8,4a4,4,0,1,0,4,4A4,4,0,0,0,8,4Zm0,7a3,3,0,1,1,3-3A3,3,0,0,1,8,11Z" />
    <path class="light-teal" d="M3,4.5A.5.5,0,1,1,2.5,4,.5.5,0,0,1,3,4.5Z" />
  </g>
</svg>
