<svg xmlns="http://www.w3.org/2000/svg" viewBox="0 0 16 16">
  <defs>
    <style>.canvas{fill: none; opacity: 0;}.light-defaultgrey{fill: #212121; opacity: 1;}.light-defaultgrey-10{fill: #212121; opacity: 0.1;}.light-red{fill: #c50b17; opacity: 1;}.cls-1{opacity:0.75;}</style>
  </defs>
  <title>IconLightCancellationScope</title>
  <g id="canvas" class="canvas">
    <path class="canvas" d="M16,16H0V0H16Z" />
  </g>
  <g id="level-1">
    <g class="cls-1">
      <path class="light-defaultgrey" d="M13,4.5v8l-.5.5h-7L5,12.5V7.121l.146.147L6,6.414V12h6V5H7.121l-1-1H12.5Z" />
      <path class="light-defaultgrey-10" d="M12.5,4.5v8h-7V6.914L7.268,5.146,6.621,4.5Z" />
    </g>
    <path class="light-red" d="M3.707,3,5.854,5.146l-.708.708L3,3.707.854,5.854.146,5.146,2.293,3,.146.854.854.146,3,2.293,5.146.146l.708.708Z" />
    <path class="light-defaultgrey" d="M4,14H8v1H3.5L3,14.5V10H4Zm10,0H10v1h4.5l.5-.5V10H14ZM4,6.121l-1-1V7H4ZM5.121,3H8V2H6.121ZM14.5,2H10V3h4V7h1V2.5Z" />
  </g>
</svg>
