<svg xmlns="http://www.w3.org/2000/svg" viewBox="0 0 16 16">
  <defs>
    <style>.canvas{fill: none; opacity: 0;}.light-defaultgrey{fill: #212121; opacity: 1;}.light-defaultgrey-10{fill: #212121; opacity: 0.1;}.light-red{fill: #c50b17; opacity: 1;}.cls-1{opacity:0.75;}</style>
  </defs>
  <title>IconLightCancelXSISchema</title>
  <g id="canvas" class="canvas">
    <path class="canvas" d="M16,16H0V0H16Z" />
  </g>
  <g id="level-1">
    <g class="cls-1">
      <path class="light-defaultgrey" d="M13,8.5V11H12V9H5v2H4V8.5L4.5,8H8V6H9V8h3.5Z" />
    </g>
    <path class="light-defaultgrey" d="M6.5,11h-4l-.5.5v3l.5.5h4l.5-.5v-3ZM6,14H3V12H6Zm8.5-3h-4l-.5.5v3l.5.5h4l.5-.5v-3ZM14,14H11V12h3ZM7,4.879l-1-1V2.5L6.5,2h4l.5.5v3l-.5.5h-4l-.043-.043.811-.811L7.121,5H10V3H7Z" />
    <path class="light-defaultgrey-10" d="M2.5,11.5h4v3h-4Zm8,0v3h4v-3Zm0-6v-3h-4V4.379l.768.767L6.914,5.5Z" />
    <path class="light-red" d="M3.707,3,5.854,5.146l-.708.708L3,3.707.854,5.854.146,5.146,2.293,3,.146.854.854.146,3,2.293,5.146.146l.708.708Z" />
  </g>
</svg>
