<svg xmlns="http://www.w3.org/2000/svg" viewBox="0 0 16 16">
  <defs>
    <style>.canvas{fill: none; opacity: 0;}.light-defaultgrey{fill: #212121; opacity: 1;}.light-teal-10{fill: #006758; opacity: 0.1;}.light-teal{fill: #006758; opacity: 1;}.light-defaultgrey-10{fill: #212121; opacity: 0.1;}.light-red{fill: #c50b17; opacity: 1;}</style>
  </defs>
  <title>IconLightCancelTest</title>
  <g id="canvas" class="canvas">
    <path class="canvas" d="M16,16H0V0H16Z" />
  </g>
  <g id="level-1">
    <path class="light-defaultgrey" d="M6,6.414l1-1V6.667l-.081.273-2,3.06H4l-.416.232,0,0L6,6.519Zm4,.105V2h1V1H7.121L6,2.121V3.879l1,1V2H9V6.667l.081.273,2,3.06H12l.416.232,0,0Z" />
    <path class="light-teal-10" d="M12.675,14.5H3.325a1,1,0,0,1-.843-1.538L4,10.5h8l1.518,2.462A1,1,0,0,1,12.675,14.5Z" />
    <path class="light-teal" d="M12.676,15H3.324A1.5,1.5,0,0,1,2.06,12.693l1.514-2.456L4,10h8l.426.237L13.944,12.7A1.5,1.5,0,0,1,12.676,15Zm-8.4-4L2.907,13.225A.5.5,0,0,0,3.324,14h9.352a.5.5,0,0,0,.421-.77L11.721,11Z" />
    <path class="light-defaultgrey-10" d="M11.674,10H4.326L6.5,6.667V5.914l.768-.768L6.5,4.379V1.621L6.621,1.5H9.5V6.667Z" />
    <path class="light-red" d="M3.707,3,5.854,5.146l-.708.708L3,3.707.854,5.854.146,5.146,2.293,3,.146.854.854.146,3,2.293,5.146.146l.708.708Z" />
  </g>
</svg>
