<svg xmlns="http://www.w3.org/2000/svg" viewBox="0 0 16 16">
  <defs>
    <style>.canvas{fill: none; opacity: 0;}.light-defaultgrey-10{fill: #212121; opacity: 0.1;}.light-defaultgrey{fill: #212121; opacity: 1;}.light-red{fill: #c50b17; opacity: 1;}.cls-1{opacity:0.75;}</style>
  </defs>
  <title>CancelBuild</title>
  <g id="canvas">
    <path class="canvas" d="M16,16H0V0H16Z" />
  </g>
  <g id="level-1">
    <g class="cls-1">
      <path class="light-defaultgrey-10" d="M13.5,7v7.5H2.5V7Z" />
      <path class="light-defaultgrey" d="M14,7v7.5l-.5.5H2.5L2,14.5V7H3v7H13V7Z" />
    </g>
    <path class="light-defaultgrey" d="M10,8v2h2V8Zm2-4V2H10V4ZM10,7V5H8V7ZM8,11v2h2V11ZM6,13V11H4v2Zm2-3V8H6v2Z" />
    <path class="light-red" d="M3.707,3,5.854,5.146l-.708.708L3,3.707.854,5.854.146,5.146,2.293,3,.146.854.854.146,3,2.293,5.146.146l.708.708Z" />
  </g>
</svg>
