<svg xmlns="http://www.w3.org/2000/svg" viewBox="0 0 16 16">
  <defs>
    <style>.canvas{fill: none; opacity: 0;}.light-defaultgrey-10{fill: #212121; opacity: 0.1;}.light-defaultgrey{fill: #212121; opacity: 1;}.cls-1{opacity:0.75;}</style>
  </defs>
  <title>IconLightCanvasElement</title>
  <g id="canvas" class="canvas">
    <path class="canvas" d="M16,16H0V0H16Z" />
  </g>
  <g id="level-1">
    <path class="light-defaultgrey-10" d="M14.5,14.5H1.5V1.5h13Z" />
    <path class="light-defaultgrey" d="M14.5,15H1.5L1,14.5V1.5L1.5,1h13l.5.5v13ZM2,14H14V2H2Z" />
    <g class="cls-1">
      <path class="light-defaultgrey-10" d="M12.5,9.5v3h-6v-3Zm-1-4a2,2,0,0,0-2-2h-4a2,2,0,0,0,0,4h4A2,2,0,0,0,11.5,5.5Z" />
      <path class="light-defaultgrey" d="M12.5,9h-6L6,9.5v3l.5.5h6l.5-.5v-3ZM12,12H7V10h5Zm0-6.5A2.5,2.5,0,0,0,9.5,3h-4a2.5,2.5,0,0,0,0,5h4A2.5,2.5,0,0,0,12,5.5Zm-8,0A1.5,1.5,0,0,1,5.5,4h4a1.5,1.5,0,0,1,0,3h-4A1.5,1.5,0,0,1,4,5.5Z" />
    </g>
  </g>
</svg>
