<svg xmlns="http://www.w3.org/2000/svg" viewBox="0 0 16 16">
  <defs>
    <style>.canvas{fill: none; opacity: 0;}.light-defaultgrey-10{fill: #212121; opacity: 0.1;}.light-defaultgrey{fill: #212121; opacity: 1;}.light-teal-10{fill: #006758; opacity: 0.1;}.light-teal{fill: #006758; opacity: 1;}.light-yellow{fill: #996f00; opacity: 1;}</style>
  </defs>
  <title>IconLightCaptureFrame</title>
  <g id="canvas" class="canvas">
    <path class="canvas" d="M16,16H0V0H16Z" />
  </g>
  <g id="level-1">
    <path class="light-defaultgrey-10" d="M14.5,5.5v9H1.5v-9H5l1-1h4l1,1Z" />
    <path class="light-defaultgrey" d="M14.5,15H1.5L1,14.5v-9L1.5,5H4.793l.853-.854L6,4h4l.354.146L11.207,5H14.5l.5.5v9ZM2,14H14V6H11l-.354-.146L9.793,5H6.207l-.853.854L5,6H2Z" />
    <path class="light-teal-10" d="M10.5,10A2.5,2.5,0,1,1,8,7.5,2.5,2.5,0,0,1,10.5,10Z" />
    <path class="light-teal" d="M8,13a3,3,0,1,1,3-3A3,3,0,0,1,8,13ZM8,8a2,2,0,1,0,2,2A2,2,0,0,0,8,8Z" />
    <path class="light-teal" d="M4,7.5A.5.5,0,1,1,3.5,7,.5.5,0,0,1,4,7.5Z" />
    <path class="light-yellow" d="M12,0l0,2-.5.5L11,2l0-2ZM9.377.673l-.706.707,1.416,1.413h.707V2.085Zm4.95.7L13.62.671,12.207,2.088v.706h.707ZM15,3,13,3l-.5.5L13,4l2,0Z" />
  </g>
</svg>
