<svg xmlns="http://www.w3.org/2000/svg" viewBox="0 0 16 16">
  <defs>
    <style>.canvas{fill: none; opacity: 0;}.light-defaultgrey-10{fill: #212121; opacity: 0.1;}.light-defaultgrey{fill: #212121; opacity: 1;}.cls-1{opacity:0.75;}</style>
  </defs>
  <title>IconLightCaptionTag</title>
  <g id="canvas" class="canvas">
    <path class="canvas" d="M16,16H0V0H16Z" />
  </g>
  <g id="level-1">
    <path class="light-defaultgrey-10" d="M13.5,5.5H1.5v-2h12Z" />
    <path class="light-defaultgrey" d="M13.5,6H1.5L1,5.5v-2L1.5,3h12l.5.5v2ZM2,5H13V4H2Z" />
    <g class="cls-1">
      <path class="light-defaultgrey" d="M13,6V8H10V6H9V8H6V6H5V8H2V6H1.5L1,5.5v9l.5.5h12l.5-.5v-9l-.5.5ZM5,14H2V12H5Zm0-3H2V9H5Zm4,3H6V12H9Zm0-3H6V9H9Zm4,3H10V12h3Zm0-3H10V9h3Z" />
      <path class="light-defaultgrey-10" d="M13.5,14.5H1.5V6h12Z" />
    </g>
    <path class="light-defaultgrey" d="M12,2H1V1H12Z" />
  </g>
</svg>
