<svg xmlns="http://www.w3.org/2000/svg" viewBox="0 0 16 16">
  <defs>
    <style>.canvas{fill: none; opacity: 0;}.light-defaultgrey-10{fill: #212121; opacity: 0.1;}.light-defaultgrey{fill: #212121; opacity: 1;}.cls-1{opacity:0.75;}</style>
  </defs>
  <title>IconLightCarousel</title>
  <g id="canvas" class="canvas">
    <path class="canvas" d="M16,16H0V0H16Z" />
  </g>
  <g id="level-1">
    <path class="light-defaultgrey-10" d="M11.5,14.5h-7V2.5h7Z" />
    <path class="light-defaultgrey" d="M11.5,15h-7L4,14.5V2.5L4.5,2h7l.5.5v12ZM5,14h6V3H5Z" />
    <g class="cls-1">
      <path class="light-defaultgrey-10" d="M4,3.5v10H2.5v-1H.5v-8h2v-1Zm11.5,1h-2v-1H12v10h1.5v-1h2Z" />
      <path class="light-defaultgrey" d="M2,3.5V4H.5L0,4.5v8l.5.5H2v.5l.5.5H4V13H3V4H4V3H2.5ZM2,12H1V5H2ZM15.5,4H14V3.5L13.5,3H12V4h1v9H12v1h1.5l.5-.5V13h1.5l.5-.5v-8ZM15,12H14V5h1Z" />
    </g>
  </g>
</svg>
