<svg xmlns="http://www.w3.org/2000/svg" viewBox="0 0 16 16">
  <defs>
    <style>.canvas{fill: none; opacity: 0;}.light-defaultgrey{fill: #212121; opacity: 1;}.light-defaultgrey-10{fill: #212121; opacity: 0.1;}.cls-1{opacity:0.75;}</style>
  </defs>
  <title>IconLightCategoryPageItemTemplate</title>
  <g id="canvas" class="canvas">
    <path class="canvas" d="M16,16H0V0H16Z" />
  </g>
  <g id="level-1">
    <g class="cls-1">
      <path class="light-defaultgrey" d="M7,4H9V6H7ZM7,9H9V7H7Zm0,3H9V10H7Zm3,0h2V10H10Zm0-6h2V4H10Zm3-2V6h2V4ZM10,9h2V7H10Zm3,0h2V7H13Zm0,3h2V10H13Z" />
    </g>
    <path class="light-defaultgrey-10" d="M.5,4.5h5v7H.5Z" />
    <path class="light-defaultgrey" d="M5.5,12H.5L0,11.5v-7L.5,4h5l.5.5v7ZM1,11H5V5H1Z" />
  </g>
</svg>
