<svg xmlns="http://www.w3.org/2000/svg" viewBox="0 0 16 16">
  <defs>
    <style>.canvas{fill: none; opacity: 0;}.light-blue-10{fill: #005dba; opacity: 0.1;}.light-blue{fill: #005dba; opacity: 1;}.cls-1{opacity:0.75;}</style>
  </defs>
  <title>IconLightCD</title>
  <g id="canvas" class="canvas">
    <path class="canvas" d="M16,16H0V0H16Z" />
  </g>
  <g id="level-1">
    <path class="light-blue-10" d="M8,1.5A6.5,6.5,0,1,0,14.5,8,6.5,6.5,0,0,0,8,1.5Zm0,8A1.5,1.5,0,1,1,9.5,8,1.5,1.5,0,0,1,8,9.5Z" />
    <path class="light-blue" d="M8,15a7,7,0,1,1,7-7A7.009,7.009,0,0,1,8,15ZM8,2a6,6,0,1,0,6,6A6.006,6.006,0,0,0,8,2Zm0,8a2,2,0,1,1,2-2A2,2,0,0,1,8,10ZM8,7A1,1,0,1,0,9,8,1,1,0,0,0,8,7Z" />
    <g class="cls-1">
      <path class="light-blue" d="M6.176,2.289,7.724,6.026a1.8,1.8,0,0,0-.924.383L5.252,2.671c.147-.075.3-.15.452-.214S6.018,2.339,6.176,2.289ZM2.457,5.7c-.065.156-.118.314-.168.472L6.026,7.724A1.8,1.8,0,0,1,6.409,6.8L2.671,5.252C2.6,5.4,2.521,5.548,2.457,5.7ZM10.3,13.543c.156-.064.305-.139.452-.214L9.2,9.591a1.8,1.8,0,0,1-.924.383l1.548,3.737C9.982,13.661,10.14,13.608,10.3,13.543ZM13.543,10.3c.065-.156.118-.314.168-.472L9.974,8.276a1.8,1.8,0,0,1-.383.924l3.738,1.548C13.4,10.6,13.479,10.452,13.543,10.3Z" />
      <path class="light-blue-10" d="M5.7,2.457l1.531,3.7A1.993,1.993,0,0,0,6.153,7.235L2.457,5.7A5.99,5.99,0,0,1,5.7,2.457Zm6.539,9.786a5.991,5.991,0,0,0,1.3-1.947l-3.7-1.531A1.993,1.993,0,0,1,8.765,9.847l1.531,3.7A5.991,5.991,0,0,0,12.243,12.243Z" />
    </g>
  </g>
</svg>
