<svg xmlns="http://www.w3.org/2000/svg" viewBox="0 0 16 16">
  <defs>
    <style>.canvas{fill: none; opacity: 0;}.light-defaultgrey-10{fill: #212121; opacity: 0.1;}.light-defaultgrey{fill: #212121; opacity: 1;}.light-yellow{fill: #996f00; opacity: 1;}.white{fill: #ffffff; opacity: 1;}</style>
  </defs>
  <title>IconLightCertificateWarning</title>
  <g id="canvas" class="canvas">
    <path class="canvas" d="M16,16H0V0H16Z" />
  </g>
  <g id="level-1">
    <path class="light-defaultgrey-10" d="M3.5,3a3.48,3.48,0,0,0-2,.635V1.5h12V8.76L12.53,7H10.47L7.991,11.5H6V8.942H6A3.495,3.495,0,0,0,3.5,3Z" />
    <path class="light-defaultgrey-10" d="M3.5,10a3.48,3.48,0,0,0,2-.635V14.5l-2-2-2,2V9.365A3.48,3.48,0,0,0,3.5,10Zm0-6.5a3,3,0,1,0,3,3A3,3,0,0,0,3.5,3.5Z" />
    <path class="light-defaultgrey" d="M5,3V2H4V3H3V2H2V3.351a3.515,3.515,0,0,0-1,.707V1.5L1.5,1h12l.5.5V9.668L12.53,7H13V6H12V5h1V4H12V3h1V2H12V3H11V2H10V3H9V2H8V3H7V2H6V3Z" />
    <path class="light-defaultgrey" d="M8.266,11l-.55,1H6V11H7V10H8v1Z" />
    <path class="light-defaultgrey" d="M11,4V5H8V4ZM8,7h3V6H8Z" />
    <path class="light-defaultgrey" d="M7,6.5A3.5,3.5,0,1,0,1,8.942H1V14.5l.854.354L3.5,13.207l1.646,1.647L6,14.5V8.942H6A3.485,3.485,0,0,0,7,6.5ZM5,9.649v3.644L3.854,12.146H3.146L2,13.293V9.649H2A3.464,3.464,0,0,0,3.5,10,3.464,3.464,0,0,0,5,9.649ZM3.5,9A2.5,2.5,0,1,1,6,6.5,2.5,2.5,0,0,1,3.5,9Z" />
    <path class="light-yellow" d="M15.5,16h-8l-.439-.739,4-7.261h.878l4,7.261Z" />
    <path class="white" d="M12,13H11V10h1Zm.25,1.5a.75.75,0,1,1-.75-.75A.75.75,0,0,1,12.25,14.5Z" />
  </g>
</svg>
