<svg xmlns="http://www.w3.org/2000/svg" viewBox="0 0 16 16">
  <defs>
    <style>.canvas{fill: none; opacity: 0;}.light-defaultgrey-10{fill: #212121; opacity: 0.1;}.light-defaultgrey{fill: #212121; opacity: 1;}.light-purple{fill: #6936aa; opacity: 1;}.cls-1{opacity:0.75;}</style>
  </defs>
  <title>IconLightCFile</title>
  <g id="canvas" class="canvas">
    <path class="canvas" d="M16,16H0V0H16Z" />
  </g>
  <g id="level-1">
    <g class="cls-1">
      <path class="light-defaultgrey-10" d="M12.5,4.5v10H2.5V1.5h7Z" />
      <path class="light-defaultgrey" d="M12.854,4.146l-3-3L9.5,1h-7L2,1.5v13l.5.5h10l.5-.5V4.5ZM12,14H3V2H9V5h3Z" />
    </g>
    <path class="light-purple" d="M9.5,11.664a3.806,3.806,0,0,1-1.65.306,2.783,2.783,0,0,1-2.089-.781A2.857,2.857,0,0,1,5,9.108a3.05,3.05,0,0,1,.855-2.246A2.989,2.989,0,0,1,8.075,6,4.153,4.153,0,0,1,9.5,6.214V7.466a2.523,2.523,0,0,0-1.32-.347,1.746,1.746,0,0,0-1.312.512,1.9,1.9,0,0,0-.5,1.384,1.861,1.861,0,0,0,.47,1.335,1.666,1.666,0,0,0,1.268.5A2.7,2.7,0,0,0,9.5,10.476Z" />
  </g>
</svg>
