<svg xmlns="http://www.w3.org/2000/svg" viewBox="0 0 16 16">
  <defs>
    <style>.canvas{fill: none; opacity: 0;}.light-green{fill: #1f801f; opacity: 1;}.light-defaultgrey{fill: #212121; opacity: 1;}</style>
  </defs>
  <title>IconLightChangesetMergeUp</title>
  <g id="canvas" class="canvas">
    <path class="canvas" d="M16,16H0V0H16Z" />
  </g>
  <g id="level-1">
    <path class="light-green" d="M16,14.5V16H15V14.707l-1-1V16H13V10.707L11.909,11.8l-.707-.707,1.944-1.945h.708L15.8,11.091l-.707.707L14,10.707v1.586l1.854,1.853Z" />
    <path class="light-defaultgrey" d="M8.707,9H10.5a3.5,3.5,0,1,0-3-5.274A3.494,3.494,0,1,0,4.5,9H6.293L1.646,13.646l.708.708L7.5,9.207l2.146,2.147.708-.708ZM7,8H4.5A2.5,2.5,0,1,1,7,5.5ZM8,5.5A2.5,2.5,0,1,1,10.5,8H8Z" />
  </g>
</svg>
