<svg xmlns="http://www.w3.org/2000/svg" viewBox="0 0 16 16">
  <defs>
    <style>.canvas{fill: none; opacity: 0;}.light-defaultgrey-10{fill: #212121; opacity: 0.1;}.light-defaultgrey{fill: #212121; opacity: 1;}.light-blue-10{fill: #005dba; opacity: 0.1;}.light-blue{fill: #005dba; opacity: 1;}</style>
  </defs>
  <title>IconLightChangePassword</title>
  <g id="canvas" class="canvas">
    <path class="canvas" d="M16,16H0V0H16Z" />
  </g>
  <g id="level-1">
    <path class="light-defaultgrey-10" d="M8.253,10.5H1.5v-8h14V5.61a2.535,2.535,0,0,0-2.868.511Z" />
    <path class="light-defaultgrey" d="M7.753,11H1.5L1,10.5v-8L1.5,2h14l.5.5V5.918a2.511,2.511,0,0,0-1-.478V3H2v7H8.753Z" />
    <path class="light-defaultgrey" d="M9.046,7.254,10.718,6.5,9.046,5.746l.574-.994,1.489,1.071L10.927,4h1.146l-.182,1.823L13.38,4.752l.412.714a2.523,2.523,0,0,0-1.16.655L11.057,7.7l.052-.519L9.62,8.248ZM6.073,9,5.891,7.177,7.38,8.248l.574-.994L6.282,6.5l1.672-.754L7.38,4.752,5.891,5.823,6.073,4H4.927l.182,1.823L3.62,4.752l-.574.994L4.718,6.5l-1.672.754.574.994L5.109,7.177,4.927,9Z" />
    <path class="light-blue-10" d="M15.192,8.681,9.635,14.238,8.153,12.72l5.539-5.539a1.059,1.059,0,0,1,1.5,0A1.062,1.062,0,0,1,15.192,8.681Z" />
    <path class="light-blue" d="M15.543,6.83a1.559,1.559,0,0,0-2.2,0l-5.25,5.25L6.511,15.326,7.186,16l2.995-1.629,5.365-5.336A1.562,1.562,0,0,0,15.543,6.83Zm-.7,1.5-5.2,5.2-.783-.8,5.19-5.189a.561.561,0,0,1,.793.793Z" />
  </g>
</svg>
