<svg xmlns="http://www.w3.org/2000/svg" viewBox="0 0 16 16">
  <defs>
    <style>.canvas{fill: none; opacity: 0;}.light-defaultgrey-10{fill: #212121; opacity: 0.1;}.light-defaultgrey{fill: #212121; opacity: 1;}.cls-1{opacity:0.75;}</style>
  </defs>
  <title>IconLightCheckBoxGroup</title>
  <g id="canvas">
    <path class="canvas" d="M16,0V16H0V0Z" />
  </g>
  <g id="level-1">
    <path class="light-defaultgrey-10" d="M12.5,3.5v11H1.5V3.5Z" />
    <path class="light-defaultgrey" d="M12.5,3H1.5L1,3.5v11l.5.5h11l.5-.5V3.5ZM12,14H2V4H12Z" />
    <g class="cls-1">
      <path class="light-defaultgrey" d="M3.5,1h11l.5.5v11l-.5.5H13V12h1V2H4V3H3V1.5Z" />
      <path class="light-defaultgrey-10" d="M14.5,1.5v11H13v-9L12.5,3h-9V1.5Z" />
    </g>
    <path class="light-defaultgrey" d="M11,6.6l-5.25,5.25H5.043L2.793,9.6,3.5,8.892l1.9,1.9,4.9-4.9Z" />
  </g>
</svg>
