<svg xmlns="http://www.w3.org/2000/svg" viewBox="0 0 16 16">
  <defs>
    <style>.canvas{fill: none; opacity: 0;}.light-defaultgrey{fill: #212121; opacity: 1;}.light-blue{fill: #005dba; opacity: 1;}</style>
  </defs>
  <title>IconLightCheckInShelveset</title>
  <g id="canvas" class="canvas">
    <path class="canvas" d="M16,16H0V0H16Z" />
  </g>
  <g id="level-1">
    <path class="light-defaultgrey" d="M9.5,12.5a2.5,2.5,0,1,0-2-3.985,2.5,2.5,0,1,0-2,3.985h.793L3.646,15.146l.708.708L7.5,12.707l3.146,3.147.708-.708L8.707,12.5ZM7,11.5H5.5A1.5,1.5,0,1,1,7,10ZM8,10a1.5,1.5,0,1,1,1.5,1.5H8Z" />
    <path class="light-blue" d="M7.146.146h.708l2.5,2.5-.708.708L8,1.709V7H7V1.705L5.354,3.354l-.708-.708Z" />
  </g>
</svg>
