<svg xmlns="http://www.w3.org/2000/svg" viewBox="0 0 16 16">
  <defs>
    <style>.canvas{fill: none; opacity: 0;}.light-defaultgrey-10{fill: #212121; opacity: 0.1;}.light-defaultgrey{fill: #212121; opacity: 1;}</style>
  </defs>
  <title>IconLightCheckedOutByOtherUser</title>
  <g id="canvas" class="canvas">
    <path class="canvas" d="M16,16H0V0H16Z" />
  </g>
  <g id="level-1">
    <path class="light-defaultgrey-10" d="M10,7.5a2,2,0,1,1-2-2A2,2,0,0,1,10,7.5Z" />
    <path class="light-defaultgrey-10" d="M4.5,13a3.5,3.5,0,0,1,7,0Z" />
    <path class="light-defaultgrey" d="M9.648,9.365a2.5,2.5,0,1,0-3.3,0A4,4,0,0,0,4,13H5a3,3,0,0,1,6,0h1A4,4,0,0,0,9.648,9.365ZM6.5,7.5A1.5,1.5,0,1,1,8,9,1.5,1.5,0,0,1,6.5,7.5Z" />
  </g>
</svg>
