<svg xmlns="http://www.w3.org/2000/svg" viewBox="0 0 16 16">
  <defs>
    <style>.canvas{fill: none; opacity: 0;}.light-lightblue-10{fill: #0077a0; opacity: 0.1;}.light-lightblue{fill: #0077a0; opacity: 1;}.light-defaultgrey-10{fill: #212121; opacity: 0.1;}.light-defaultgrey{fill: #212121; opacity: 1;}.light-teal{fill: #006758; opacity: 1;}.light-teal-10{fill: #006758; opacity: 0.1;}</style>
  </defs>
  <title>IconLightCheckpointBuild</title>
  <g id="canvas" class="canvas">
    <path class="canvas" d="M16,16H0V0H16Z" />
  </g>
  <g id="level-1">
    <path class="light-lightblue-10" d="M15.5,2.47V10.5c0,.63-1.034,1.169-2.5,1.391v-4.8L11.914,6H9.121l-.7-.7L7.7,5H7.5V2.47c0-.828,1.791-1.5,4-1.5S15.5,1.642,15.5,2.47Z" />
    <path class="light-lightblue" d="M7,2.47V5h.7l.3.125V3.761a7.863,7.863,0,0,0,3.5.709A7.863,7.863,0,0,0,15,3.761V10.5c0,.218-.692.673-2,.886V12.4c1.647-.239,3-.879,3-1.895V2.47C16-.157,7-.157,7,2.47Zm4.5,1c-2.273,0-3.5-.71-3.5-1s1.227-1,3.5-1,3.5.71,3.5,1S13.773,3.47,11.5,3.47Z" />
    <path class="light-defaultgrey-10" d="M11.5,14.5H.5v-7H3.744l.756-1h3l1,1h3Z" />
    <path class="light-defaultgrey" d="M11.5,15H.5L0,14.5v-7L.5,7H3.293l.853-.854L4.5,6h3l.354.146L8.707,7H11.5l.5.5v7ZM1,14H11V8H8.5l-.354-.146L7.293,7H4.707l-.853.854L3.5,8H1Z" />
    <path class="light-teal" d="M3,10H2V9H3Z" />
    <path class="light-teal-10" d="M8,11A2,2,0,1,1,6,9,2,2,0,0,1,8,11Z" />
    <path class="light-teal" d="M6,13.5A2.5,2.5,0,1,1,8.5,11,2.5,2.5,0,0,1,6,13.5Zm0-4A1.5,1.5,0,1,0,7.5,11,1.5,1.5,0,0,0,6,9.5Z" />
  </g>
</svg>
