<svg xmlns="http://www.w3.org/2000/svg" viewBox="0 0 7 16">
  <defs>
    <style>.canvas{fill: none; opacity: 0;}.light-defaultgrey-10{fill: #212121; opacity: 0.1;}.light-defaultgrey{fill: #212121; opacity: 1;}</style>
  </defs>
  <title>IconLightCheckedOutByOtherUserNode</title>
  <g id="canvas">
    <path class="canvas" d="M7,16H0V0H7Z" />
  </g>
  <g id="level-1">
    <path class="light-defaultgrey-10" d="M5.5,12H.562A2.47,2.47,0,0,1,2.525,9.584a1.587,1.587,0,1,1,1.012,0A2.469,2.469,0,0,1,5.5,12Z" />
    <path class="light-defaultgrey" d="M4.453,9.392a2,2,0,1,0-2.876-.016A2.988,2.988,0,0,0,0,12H1a2,2,0,0,1,4,0H6A2.988,2.988,0,0,0,4.453,9.392ZM3.021,7a1,1,0,1,1-1,1A1,1,0,0,1,3.021,7Z" />
  </g>
</svg>
