<svg xmlns="http://www.w3.org/2000/svg" viewBox="0 0 16 16">
  <defs>
    <style>.canvas{fill: none; opacity: 0;}.light-defaultgrey-10{fill: #212121; opacity: 0.1;}.light-defaultgrey{fill: #212121; opacity: 1;}</style>
  </defs>
  <title>IconLightCheckBoxList</title>
  <g id="canvas" class="canvas">
    <path class="canvas" d="M16,16H0V0H16Z" />
  </g>
  <g id="level-1">
    <path class="light-defaultgrey-10" d="M4,4H3V3H4ZM4,8H3V7H4Zm0,4H3V11H4Z" />
    <path class="light-defaultgrey" d="M15,11v1H7V11ZM7,7V8h8V7ZM7,3V4h8V3ZM2,2V5H5V2ZM4,4H3V3H4ZM2,6V9H5V6ZM4,8H3V7H4ZM2,10v3H5V10Zm2,2H3V11H4Z" />
  </g>
</svg>
