<svg xmlns="http://www.w3.org/2000/svg" viewBox="0 0 16 16">
  <defs>
    <style>.canvas{fill: none; opacity: 0;}.light-defaultgrey-10{fill: #212121; opacity: 0.1;}.light-defaultgrey{fill: #212121; opacity: 1;}.cls-1{opacity:0.75;}</style>
  </defs>
  <title>IconLightChildWindow</title>
  <g id="canvas" class="canvas">
    <path class="canvas" d="M16,16H0V0H16Z" />
  </g>
  <g id="level-1">
    <g class="cls-1">
      <path class="light-defaultgrey-10" d="M14.5,1.5v11H10V9.086L8.914,8H1.5V1.5Z" />
      <path class="light-defaultgrey" d="M1.5,5H2V8H1V4.5Zm13,0,.5-.5v8l-.5.5H10V12h4V5Z" />
    </g>
    <path class="light-defaultgrey" d="M14.5,1H1.5L1,1.5v3l.5.5h13l.5-.5v-3ZM14,4H2V2H14Z" />
    <path class="light-defaultgrey-10" d="M.5,9.5h8v6H.5Z" />
    <path class="light-defaultgrey" d="M8.5,9H.5L0,9.5v6l.5.5h8l.5-.5v-6ZM8,15H1V11H8Z" />
  </g>
</svg>
