<svg xmlns="http://www.w3.org/2000/svg" viewBox="0 0 16 16">
  <defs>
    <style>.canvas{fill: none; opacity: 0;}.light-defaultgrey-10{fill: #212121; opacity: 0.1;}.light-defaultgrey{fill: #212121; opacity: 1;}.light-green{fill: #1f801f; opacity: 1;}</style>
  </defs>
  <title>IconLightChooseTarget</title>
  <g id="canvas" class="canvas">
    <path class="canvas" d="M16,16H0V0H16Z" />
  </g>
  <g id="level-1">
    <path class="light-defaultgrey-10" d="M3.5,8V2.5h12v10H8A4.5,4.5,0,0,0,3.5,8Z" />
    <path class="light-defaultgrey" d="M8,12.5a4.576,4.576,0,0,0-.05-.5H15V3H4V8.05A4.576,4.576,0,0,0,3.5,8a4.576,4.576,0,0,0-.5.05V2.5L3.5,2h12l.5.5v10l-.5.5H7.95A4.576,4.576,0,0,0,8,12.5Z" />
    <path class="light-green" d="M15,7.366V8.78l-2.5-2.5L8.854,9.927H8.146L6.5,8.28l-.487.487a4.443,4.443,0,0,0-.932-.481L6.146,7.22h.708L8.5,8.866,12.146,5.22h.708Z" />
    <path class="light-defaultgrey" d="M1.051,13a2.473,2.473,0,0,0,.365.876l-.745.745.707.707.745-.745A2.469,2.469,0,0,0,3,14.949V16H4V14.949a2.469,2.469,0,0,0,.877-.366l.745.745.707-.707-.745-.745A2.473,2.473,0,0,0,5.949,13H7V12H5.949a2.473,2.473,0,0,0-.365-.876l.745-.745-.707-.707-.745.745A2.469,2.469,0,0,0,4,10.051V9H3v1.051a2.469,2.469,0,0,0-.877.366l-.745-.745-.707.707.745.745A2.473,2.473,0,0,0,1.051,12H0v1ZM2,12.5A1.5,1.5,0,1,1,3.5,14,1.5,1.5,0,0,1,2,12.5Z" />
  </g>
</svg>
