<svg xmlns="http://www.w3.org/2000/svg" viewBox="0 0 16 16">
  <defs>
    <style>.canvas{fill: none; opacity: 0;}.light-defaultgrey-10{fill: #212121; opacity: 0.1;}.light-defaultgrey{fill: #212121; opacity: 1;}.light-yellow-10{fill: #996f00; opacity: 0.1;}.light-yellow{fill: #996f00; opacity: 1;}</style>
  </defs>
  <title>ClassProtected</title>
  <g id="canvas" class="canvas">
    <path class="canvas" d="M16,16H0V0H16Z" />
  </g>
  <g id="level-1">
    <path class="light-defaultgrey-10" d="M13.844,13.07l.426,2.488-2.234-1.175L9.8,15.558l.427-2.488L8.42,11.308l2.5-.363,1.118-2.264,1.117,2.264,2.5.363Z" />
    <path class="light-defaultgrey" d="M16,11.666l-.276-.853-2.239-.326-1-2.028h-.9l-1,2.028-2.238.326-.277.853L9.69,13.244l-.382,2.229.725.527,2-1.053,2,1.053.726-.527-.383-2.229Zm-2.394,2.978-1.337-.7H11.8l-1.339.7.256-1.49-.145-.443L9.494,11.656l1.5-.217.376-.273.67-1.356.669,1.356.376.273,1.5.217L13.5,12.711l-.144.443Z" />
    <path class="light-yellow-10" d="M5.5,1.5l2,2-4,4-2-2Zm6,3-2,2L11,8l2-2Z" />
    <path class="light-yellow" d="M7,10.5l.3.3.288-.887L8,9.853V6H9.293l-.147.146v.708l1.419,1.418.4-.813h1.281l1.106-1.1V5.646l-1.5-1.5h-.708L10.293,5H6.707L7.854,3.854V3.146l-2-2H5.146l-4,4v.708l2,2h.708L5.707,6H7Zm4.5-5.293L12.293,6,11,7.293,10.207,6.5Zm-8,1.586L2.207,5.5,5.5,2.207,6.793,3.5Z" />
  </g>
</svg>
