<svg xmlns="http://www.w3.org/2000/svg" viewBox="0 0 16 16">
  <defs>
    <style>.canvas{fill: none; opacity: 0;}.light-defaultgrey{fill: #212121; opacity: 1;}.light-defaultgrey-10{fill: #212121; opacity: 0.1;}.light-yellow{fill: #996f00; opacity: 1;}.cls-1{opacity:0.75;}</style>
  </defs>
  <title>ClassCollection</title>
  <g id="canvas" class="canvas">
    <path class="canvas" d="M16,16H0V0H16ZM0,0H16V16H0Z" />
  </g>
  <g id="level-1">
    <g class="cls-1">
      <path class="light-defaultgrey" d="M15,1.5v11l-.5.5H13V12h1V2H4V3H3V1.5L3.5,1h11Z" />
      <path class="light-defaultgrey-10" d="M13,12V3.75L12.25,3H4V2H14V12Z" />
    </g>
    <path class="light-defaultgrey-10" d="M12,14H2V4H12Z" />
    <path class="light-defaultgrey" d="M12.5,3H1.5L1,3.5v11l.5.5h11l.5-.5V3.5ZM12,14H2V4H12Z" />
    <path class="light-yellow" d="M8.023,8.307V8H7v3H8.976l.672-.672H10l.625.625v.354L9,12.932H8.648l-.625-.625V12H6.5L6,11.5V8H5.229l-.615.614H4.261l-1-1V7.261l2.25-2.25h.353l1,1v.353L6.229,7H8.976l.672-.672H10l.625.625v.354L9,8.932H8.648Z" />
  </g>
</svg>
