<svg xmlns="http://www.w3.org/2000/svg" viewBox="0 0 16 16">
  <defs>
    <style>.canvas{fill: none; opacity: 0;}.light-purple-10{fill: #6936aa; opacity: 0.1;}.light-purple{fill: #6936aa; opacity: 1;}.light-blue{fill: #005dba; opacity: 1;}.white{fill: #ffffff; opacity: 1;}.cls-1{opacity:0.75;}</style>
  </defs>
  <title>ClassMethodReferenceAmbiguous</title>
  <g id="canvas">
    <path class="canvas" d="M16,16H0V0H16Z" />
  </g>
  <g id="level-1">
    <g class="cls-1">
      <path class="light-purple-10" d="M7.04,12.4,6,13,1.5,10.4V5.189L6.009,2.4,10.5,5.189V7.255A4.991,4.991,0,0,0,7,12C7,12.137,7.03,12.265,7.04,12.4Z" />
      <path class="light-purple" d="M7,12c0-.056.015-.108.017-.164l-.516.3,0-4.059L10,6.055V7.424A4.91,4.91,0,0,1,11,7.1V5.189l-.235-.424L6.274,1.97H5.746l-4.51,2.8L1,5.189V10.4l.25.433,4.5,2.6h.5l.846-.488A5,5,0,0,1,7,12Zm-1.5.135L2,10.113V6.056l3.5,2.02ZM6,7.21,2.474,5.174,6.009,2.983l3.52,2.191Z" />
    </g>
    <path class="light-purple-10" d="M6.009,2.4,10.5,5.189,6,7.787l-4.5-2.6Z" />
    <path class="light-purple" d="M5.754,8.221l-4.5-2.6-.014-.858L5.746,1.97h.528l4.491,2.8-.015.857-4.5,2.6ZM2.474,5.174,6,7.21,9.528,5.174,6.009,2.983Z" />
    <path class="light-blue" d="M12,16a4,4,0,1,1,4-4A4,4,0,0,1,12,16Z" />
    <path class="white" d="M12.625,14.5A.625.625,0,1,1,12,13.875.625.625,0,0,1,12.625,14.5Zm.587-4.842a1.534,1.534,0,0,1,.5,1.137c0,.775-.546,1.116-1.085,1.638a.543.543,0,0,0-.167.264,1.55,1.55,0,0,0-.033.508h-.858v-.3a1.29,1.29,0,0,1,.094-.508A1.692,1.692,0,0,1,11.9,12c.3-.373.426-.315.863-.879a.457.457,0,0,0,.094-.326.859.859,0,0,0-1.714,0h-.857A1.731,1.731,0,0,1,13.212,9.658Z" />
  </g>
</svg>
