<svg xmlns="http://www.w3.org/2000/svg" viewBox="0 0 16 16">
  <defs>
    <style>.canvas{fill: none; opacity: 0;}.light-defaultgrey-10{fill: #212121; opacity: 0.1;}.light-defaultgrey{fill: #212121; opacity: 1;}.light-yellow-10{fill: #996f00; opacity: 0.1;}.light-yellow{fill: #996f00; opacity: 1;}</style>
  </defs>
  <title>ClassSealed</title>
  <g id="canvas" class="canvas">
    <path class="canvas" d="M16,16H0V0H16Z" />
  </g>
  <g id="level-1">
    <path class="light-defaultgrey-10" d="M12.5,9.5a3,3,0,1,1-3,3A3,3,0,0,1,12.5,9.5Z" />
    <path class="light-defaultgrey" d="M9,12.5A3.5,3.5,0,1,0,12.5,9,3.5,3.5,0,0,0,9,12.5Zm6,0a2.486,2.486,0,0,1-.416,1.377l-3.461-3.461A2.5,2.5,0,0,1,15,12.5Zm-5,0a2.486,2.486,0,0,1,.416-1.377l3.461,3.461A2.5,2.5,0,0,1,10,12.5Z" />
    <path class="light-yellow-10" d="M5.5,1.5l2,2-4,4-2-2Zm6,3-2,2L11,8l2-2Z" />
    <path class="light-yellow" d="M8.762,10H8V6H9.293l-.147.146v.708l1.5,1.5h.106a4.455,4.455,0,0,1,.866-.265l1.736-1.735V5.646l-1.5-1.5h-.708L10.293,5H6.707L7.854,3.854V3.146l-2-2H5.146l-4,4v.708l2,2h.708L5.707,6H7v4.5l.5.5h.776A4.493,4.493,0,0,1,8.762,10ZM11.5,5.207,12.293,6,11,7.293,10.207,6.5Zm-8,1.586L2.207,5.5,5.5,2.207,6.793,3.5Z" />
  </g>
</svg>
