<svg xmlns="http://www.w3.org/2000/svg" viewBox="0 0 16 16">
  <defs>
    <style>.canvas{fill: none; opacity: 0;}.light-yellow-10{fill: #996f00; opacity: 0.1;}.light-yellow{fill: #996f00; opacity: 1;}.light-defaultgrey-10{fill: #212121; opacity: 0.1;}.light-defaultgrey{fill: #212121; opacity: 1;}</style>
  </defs>
  <title>ClassInternal</title>
  <g id="canvas" class="canvas">
    <path class="canvas" d="M16,16H0V0H16Z" />
  </g>
  <g id="level-1">
    <path class="light-yellow-10" d="M5.5,1.5l2,2-4,4-2-2Zm6,3-2,2L11,8l2-2Z" />
    <path class="light-yellow" d="M7,10.5l.124.124A3.5,3.5,0,0,1,8,9.058V6H9.293l-.147.146v.708l1.166,1.165c.063,0,.124-.019.188-.019.024,0,.047.008.07.008S10.623,8,10.65,8a3.4,3.4,0,0,1,.917.14l1.787-1.786V5.646l-1.5-1.5h-.708L10.293,5H6.707L7.854,3.854V3.146l-2-2H5.146l-4,4v.708l2,2h.708L5.707,6H7Zm4.5-5.293L12.293,6,11,7.293,10.207,6.5Zm-8,1.586L2.207,5.5,5.5,2.207,6.793,3.5Z" />
    <path class="light-defaultgrey-10" d="M15.5,11.5a1.99,1.99,0,0,1-.148.75l-.138.265c-.2.331-3.214,2.81-3.214,2.81s-3.018-2.479-3.214-2.81l-.138-.265A1.993,1.993,0,0,1,12,10.19a1.992,1.992,0,0,1,3.5,1.31Z" />
    <path class="light-defaultgrey" d="M13.5,9a2.478,2.478,0,0,0-1.5.509A2.491,2.491,0,0,0,8,11.5a2.517,2.517,0,0,0,.2.978l.152.294a33.618,33.618,0,0,0,3.327,2.94l.317.261.317-.261a31.686,31.686,0,0,0,3.342-2.968l.156-.307A2.494,2.494,0,0,0,13.5,9ZM14.9,12.047l-.1.192c-.167.218-1.5,1.364-2.8,2.438-1.3-1.074-2.63-2.217-2.771-2.39l-.117-.225a1.493,1.493,0,0,1,2.512-1.543l.376.43.376-.43A1.494,1.494,0,0,1,14.9,12.047Z" />
  </g>
</svg>
