<svg xmlns="http://www.w3.org/2000/svg" viewBox="0 0 16 16">
  <defs>
    <style>.canvas{fill: none; opacity: 0;}.light-red{fill: #c50b17; opacity: 1;}.light-defaultgrey-10{fill: #212121; opacity: 0.1;}.light-defaultgrey{fill: #212121; opacity: 1;}.light-defaultgrey-25{fill: #212121; opacity: 0.25;}.cls-1{opacity:0.75;}</style>
  </defs>
  <title>ClearCollection</title>
  <g id="canvas">
    <path class="canvas" d="M16,16H0V0H16Z" />
  </g>
  <g id="level-1">
    <path class="light-red" d="M3.707,3,5.854,5.146l-.708.708L3,3.707.854,5.854.146,5.146,2.293,3,.146.854.854.146,3,2.293,5.146.146l.708.708Z" />
    <g class="cls-1">
      <path class="light-defaultgrey-10" d="M8.5,2.5V6h4l.5.5v5h2.5v-9Z" />
      <path class="light-defaultgrey-10" d="M6.62,4.5l.65.65L6.42,6H8V4.5ZM2.5,5.62V13.5H5V7.12l-2-2Z" />
      <path class="light-defaultgrey" d="M15.5,2h-7L8,2.5V4H6.12l1,1H8V6H9V3h6v8H13v1h2.5l.5-.5v-9ZM3,5.12l-1,1V13.5l.5.5H5V13H3Z" />
    </g>
    <path class="light-defaultgrey-10" d="M5.92,6.5l-.42.42V15.5h7v-9Z" />
    <path class="light-defaultgrey" d="M12.5,6H6.42l-.5.5-.42.42-.35.35L5,7.12V15.5l.5.5h7l.5-.5v-9ZM12,15H6V7h6Z" />
    <path class="light-defaultgrey-25" d="M9,11V7H8v4.5l.5.5H12V11Z" />
  </g>
</svg>
