<svg xmlns="http://www.w3.org/2000/svg" viewBox="0 0 16 16">
  <defs>
    <style>.canvas{fill: none; opacity: 0;}.light-defaultgrey-10{fill: #212121; opacity: 0.1;}.light-defaultgrey{fill: #212121; opacity: 1;}.light-red{fill: #c50b17; opacity: 1;}.cls-1{opacity:0;}</style>
  </defs>
  <title>IconLightClearBookmark</title>
  <g id="canvas" class="cls-1">
    <path class="canvas" d="M16,16H0V0H16Z" />
  </g>
  <g id="level-1">
    <path class="light-defaultgrey-10" d="M13.5,1.5V14.2L9.372,9.765H8.628L4.5,14.2v-7.6l.66.66L7.254,5.159,5.1,3,6.6,1.5Z" />
    <path class="light-defaultgrey" d="M14,1.5v13l-.872.335L9,10.247,4.872,14.835,4,14.5V6.093l1,1v6.1L8.628,9.165h.744L13,13.2V2H6.1l1-1H13.5Z" />
    <path class="light-red" d="M3.681,3,5.84,5.159l-.68.68L3,3.678.84,5.839l-.68-.68L2.319,3,.16.841.84.161,3,2.322,5.16.161l.68.68Z" />
  </g>
</svg>
