<svg xmlns="http://www.w3.org/2000/svg" viewBox="0 0 16 16">
  <defs>
    <style>.canvas{fill: none; opacity: 0;}.light-defaultgrey-10{fill: #212121; opacity: 0.1;}.light-defaultgrey{fill: #212121; opacity: 1;}.light-red{fill: #c50b17; opacity: 1;}</style>
  </defs>
  <title>IconLightClearDictionary</title>
  <g id="canvas">
    <path class="canvas" d="M16,16H0V0H16Z" />
  </g>
  <g id="level-1">
    <path class="light-defaultgrey-10" d="M13.5,5.72v7.586l-.207.207H10.5a2,2,0,0,0-.4.04l-.081.016-.071.041a2.972,2.972,0,0,1-.507.233A2.888,2.888,0,0,1,7.05,13.61l-.071-.041L6.9,13.553a2,2,0,0,0-.4-.04H3.707L3.5,13.306V5.72l.049-.05,1.6,1.6L6.859,5.555a1.985,1.985,0,0,1,1.24.772l.4.539.4-.539a1.979,1.979,0,0,1,1.6-.814h2.793Z" />
    <path class="light-defaultgrey" d="M13.5,5.013h-3a2.489,2.489,0,0,0-2,1.015A2.514,2.514,0,0,0,7.265,5.15L6.4,6.013h.1A1.5,1.5,0,0,1,8,7.513v6H8a2.482,2.482,0,0,0-1.5-.5H4V6.121l-.8-.8-.2.2v8l.5.5h3a1.472,1.472,0,0,1,.3.03,3.35,3.35,0,0,0,.595.272,3.394,3.394,0,0,0,2.212,0,3.35,3.35,0,0,0,.6-.272,1.472,1.472,0,0,1,.3-.03h3l.5-.5v-8Zm-.5,8H10.5a2.482,2.482,0,0,0-1.5.5H9v-6a1.5,1.5,0,0,1,1.5-1.5H13Z" />
    <path class="light-red" d="M3.707,3,5.854,5.146l-.708.708L3,3.707.854,5.854.146,5.146,2.293,3,.146.854.854.146,3,2.293,5.146.146l.708.708Z" />
  </g>
</svg>
