<svg xmlns="http://www.w3.org/2000/svg" viewBox="0 0 16 16">
  <defs>
    <style>.canvas{fill: none; opacity: 0;}.light-defaultgrey-10{fill: #212121; opacity: 0.1;}.light-defaultgrey{fill: #212121; opacity: 1;}.cls-1{opacity:0.75;}</style>
  </defs>
  <title>IconLightClientStatistics</title>
  <g id="canvas">
    <path class="canvas" d="M16,16H0V0H16Z" />
  </g>
  <g id="level-1">
    <g class="cls-1">
      <path class="light-defaultgrey-10" d="M15.5,1.5v8H9v-4A2.5,2.5,0,0,0,6.5,3h-2V1.5Z" />
      <path class="light-defaultgrey" d="M16,1.5v8l-.5.5H9V9h6V2H5V3H4V1.5L4.5,1h11Z" />
    </g>
    <path class="light-defaultgrey" d="M11,5h1V8H11ZM9,4h1V8H9Zm4-1V8h1V3Z" />
    <path class="light-defaultgrey-10" d="M7.5,5.5v10h-6V5.5a1,1,0,0,1,1-1h4A1,1,0,0,1,7.5,5.5Z" />
    <path class="light-defaultgrey" d="M7.5,16h-6L1,15.5V5.5A1.5,1.5,0,0,1,2.5,4h4A1.5,1.5,0,0,1,8,5.5v10ZM2,15H7V5.5A.5.5,0,0,0,6.5,5h-4a.5.5,0,0,0-.5.5Z" />
    <g class="cls-1">
      <path class="light-defaultgrey" d="M6,7V8H3V7ZM3,12H6V11H3Zm0,2H6V13H3Z" />
    </g>
  </g>
</svg>
