<svg xmlns="http://www.w3.org/2000/svg" viewBox="0 0 16 16">
  <defs>
    <style>.canvas{fill: none; opacity: 0;}.light-defaultgrey-10{fill: #212121; opacity: 0.1;}.light-defaultgrey{fill: #212121; opacity: 1;}</style>
  </defs>
  <title>IconLightClosedCaption</title>
  <g id="canvas" class="canvas">
    <path class="canvas" d="M16,16H0V0H16Z" />
  </g>
  <g id="level-1">
    <path class="light-defaultgrey-10" d="M14.5,2.5v11H.5V2.5Z" />
    <path class="light-defaultgrey" d="M5.765,5A2.668,2.668,0,0,1,7,5.274V6.483a1.753,1.753,0,0,0-1.14-.448,1.5,1.5,0,0,0-1.2.56,2.176,2.176,0,0,0-.47,1.455,2.093,2.093,0,0,0,.44,1.4,1.491,1.491,0,0,0,1.19.515A1.744,1.744,0,0,0,7,9.472V10.6A2.621,2.621,0,0,1,5.54,11a2.334,2.334,0,0,1-1.84-.795A3.029,3.029,0,0,1,3,8.134a3.324,3.324,0,0,1,.75-2.272A2.544,2.544,0,0,1,5.765,5Zm5.1,1.035A1.753,1.753,0,0,1,12,6.483V5.274A2.668,2.668,0,0,0,10.765,5a2.544,2.544,0,0,0-2.015.862A3.324,3.324,0,0,0,8,8.134a3.029,3.029,0,0,0,.7,2.071,2.334,2.334,0,0,0,1.84.8A2.621,2.621,0,0,0,12,10.6V9.472a1.744,1.744,0,0,1-1.18.5,1.491,1.491,0,0,1-1.19-.515,2.093,2.093,0,0,1-.44-1.4A2.176,2.176,0,0,1,9.655,6.6,1.5,1.5,0,0,1,10.86,6.035Z" />
    <path class="light-defaultgrey" d="M14.5,2H.5L0,2.5v11l.5.5h14l.5-.5V2.5ZM14,13H1V3H14Z" />
  </g>
</svg>
